<?xml version="1.0" standalone="no"?>
<!DOCTYPE svg PUBLIC "-//W3C//DTD SVG 1.1//EN" "http://www.w3.org/Graphics/SVG/1.1/DTD/svg11.dtd" >
<svg>
<metadata>
Created by FontForge 20110222 at Tue Jan  6 00:32:11 2015
 By deploy user
Copyright (c) International Typeface Corporation 1996.  Portions Copyright (c) Microsoft Corporation 1996.  All rights reserved.
</metadata>
<defs>
<font id="VinerHandITC" horiz-adv-x="1024" >
  <font-face 
    font-family="Viner Hand ITC"
    font-weight="400"
    font-stretch="normal"
    units-per-em="2048"
    panose-1="3 7 5 2 3 5 2 2 2 3"
    ascent="1638"
    descent="-410"
    x-height="922"
    cap-height="1391"
    bbox="-455 -1260 2249 2046"
    underline-thickness="102"
    underline-position="-103"
    unicode-range="U+0020-F003"
  />
<missing-glyph horiz-adv-x="2048" 
d="M256 0v1536h1536v-1536h-1536zM384 128h1280v1280h-1280v-1280z" />
    <glyph glyph-name=".notdef" horiz-adv-x="2048" 
d="M256 0v1536h1536v-1536h-1536zM384 128h1280v1280h-1280v-1280z" />
    <glyph glyph-name="glyph1" horiz-adv-x="0" 
 />
    <glyph glyph-name="glyph2" horiz-adv-x="473" 
 />
    <glyph glyph-name="space" unicode=" " horiz-adv-x="473" 
 />
    <glyph glyph-name="exclam" unicode="!" horiz-adv-x="821" 
d="M817 1608l4 -13q0 -13 -22 -24q-10 -9 -18 -27l-19 -39l-43 -59l-33 -84l-51 -84q3 -6 14 -14q-20 -32 -33 -70q-3 -21 -14 -41l-33 -47q0 -5 -3 -15l-8 -40l-11 -37l-8 -70l-19 -33l4 -51h-4v-10l-10 -64l4 -6l-8 -12h4v-6h-10l-4 -27l-9 -127l9 -18l-4 -41l8 -14
l-23 -66l-37 -23l-24 -36q-4 -7 -27 -19l-18 12l-33 -18l-14 6q-15 -18 -27 -18l-14 4l-11 18v4l19 56l-19 61l15 59l4 50q0 5 10.5 14.5t26.5 11.5v4q10 24 10 33l-10 33l32 8l11 33q3 49 5.5 60.5t2.5 15.5v8q-4 20 -4 28q0 17 14 23l4 18h-4v19l8 -4l-4 22l10 15v24h33
l-14 31q27 87 27 90v31l14 47h10l8 4l6 10h5l8 8q0 22 -19 62q21 44 25 65l8 9l-8 14l14 4l19 47l12 10l33 74l10 -4q8 19 8 27q0 21 34.5 41t49.5 34l4 -6h-4l4 -4l15 19q32 10 36 18zM307 -67q-9 -10 -35 -17.5t-36 -7.5q-29 22 -44.5 33.5t-35.5 40.5l-13 4l9 18v10
l24 47l12 -6q6 20 33 33v4l25 14h8l14 11l-4 8l4 6q0 27 41 27q47 0 78 -28t31 -69q0 -35 -15 -43l-47 -28z" />
    <glyph glyph-name="quotedbl" unicode="&#x22;" horiz-adv-x="958" 
d="M631 946l-37 12l-2 58l12 19q6 9 8 38l31 33l-8 74q49 55 49 67q0 16 -9 30t-9 17t2 4l20 82l22 34q11 16 46 46q40 -8 71 -30v-46l39 -4l4 -10v-14l13 -6v-37q-10 -23 -22 -47t-50 -49l14 -29q-15 -18 -27.5 -37t-22.5 -39t-17 -42l-13 -44l-53 -68l-33 9zM250 954
l-23 19q8 24 17 63l24 21l-18 43l24 6l13 53q24 39 27.5 84.5t11.5 48.5l36 107l23 29q4 6 27 16l39 -10l8 -29l43 -6q24 -41 24 -45v-15l13 -6v-37q-19 -42 -41 -73l2 -31l-19 -21q-9 -17 -45 -60.5t-53 -76.5l-41 -78l-39 -22z" />
    <glyph glyph-name="numbersign" unicode="#" horiz-adv-x="1290" 
d="M680 1354v-54l-27 -36l-4 -50l-24 -26l-60 -182l-12 -11h14l15 -2l20 2l25 -2q41 -4 45 -4l22 2l35 -2l43 4h25q46 -12 65 -12l33 2v16l18 15q2 10 6 20.5t9 19.5t10 32.5t10.5 40.5t13 33t11.5 32q6 2 10 6h-4q13 48 22 59l11 -2q8 9 8 11v4l-4 14l8 14l10 -2l-2 9
q0 7 6.5 30t18.5 23l57 -4v-54l-29 -36l-2 -50l-24 -26l-60 -182l-10 -17l19 -4h28q3 0 9.5 -1.5t14.5 1t15 2.5l29 -4q17 0 24 2q13 -6 21 -6q4 0 12 4q25 4 43 4l33 -2q8 0 57 16q5 -29 21 -53l-8 -18l-21 -10l-16 2q-7 -4 -13 -15q-13 -10 -20 -12l-12 14q-6 9 -17 9
q-6 -15 -24 -15q-13 0 -21 2l-6 -4h-18l-56 -4l-36 8l-50 -2h-24l-9 -28q-3 -13 -34 -56l-4 -57q0 -17 -15 -35q-20 -35 -20 -47l-8 -53l-19 -60l-10 -55l23 10q61 -7 70.5 -4.5t15.5 2.5l28 -4q17 0 25 2q12 -6 20 -6q4 0 13 4q24 4 43 4l32 -2q13 0 27.5 7t30.5 10
q4 -30 20 -52l-8 -18l-20 -12l-17 2q-4 -2 -12 -15q-9 -6 -21 -10l-12 14q-4 7 -16 7q-7 -15 -25 -15q-13 0 -20 2l-9 -4h-16l-55 -4l-37 8l-49 -2q-19 0 -51 8l-25 -73l-8 -58l-33 -133l-6 -6l2 -12q-23 -26 -27 -43q-24 -185 -82 -197l-12 15l-55 -3l8 35v4l10 21
q5 36 23 98q22 16 22 41h4l13 39l6 -2l10 53q28 61 41 123h4l-2 6l18 82l-88 4l-36 -4q-9 -2 -27 -2q-21 0 -52 6l-28 6l-33 -4l-55 4l-31 -6l-4 -24l-9 -28q-5 -15 -8 -31l-7 -42l-31 -133l-8 -6l2 -12q-24 -26 -27 -43q-9 -68 -17 -98.5t-21.5 -57t-23 -32.5t-44.5 -9
l-11 15l-30 -3l6 35v4l10 21q5 36 23 98q22 16 22 41h4l12 39l7 -2l10 53q27 61 41 123h4v6l16 78l-4 14l-12 -8h-45l-31 -2l-86 2l-59 -2h-15l-10 4l-4 -8q-19 -10 -31 -24q-4 14 -20 28q10 18 25.5 30t31 26.5t39.5 25t90 10.5l39 -6q8 0 14 6l52 -6l30 2q7 0 13 -2
q3 11 18 23l6 71l21 64l8 8l-8 14q3 21 18 39l2 17l4 -4l-6 26l17 2l6 51l4 -2q15 30 20 80h-22l-13 -6h-45l-30 -4l-86 4l-60 -2h-14l-10 4l-4 -10q-20 -7 -31 -23q-8 15 -21 29q12 21 26 31.5t29.5 25t40 25t91.5 10.5l39 -6q6 0 12 6l53 -6l31 2q25 0 35 -4l10 6l10 23
q3 18 12.5 35t11.5 38t19 61t17 44q6 2 10 6h-4q12 48 24 59l9 -2q8 9 8 11v4l-4 14l8 14l10 -2l-2 9q0 10 8 32t19 21zM764 516v14q0 16 14 25l8 59l21 64l8 8l-8 14q3 21 18 39l2 17l4 -4l-8 26l19 2l6 51l4 -2q16 32 18 70l-108 6l-39 -4q-10 -2 -33 -2q-19 0 -47 5
l-27 5l-30 -2l-54 4l-4 -49l-24 -34q-12 -17 -12 -66q0 -20 -13 -35q-22 -39 -22 -47l-6 -53l-37 -105l51 8l14 -4l21 4l45 -6h90l35 2h24q38 -10 70 -10z" />
    <glyph glyph-name="dollar" unicode="$" horiz-adv-x="1352" 
d="M547 55l-35 -10l-4 2l-33 -2l-100 -14l-99 10l-47 -14l-59 14l-25 3q-12 1 -31.5 13.5t-27.5 24.5l-25 35l5 61l16 4l16 17l27 12q14 18 43 37h94v-29l-2 -12l12 -12l-23 -22q-11 -11 -24 -38l8 -16l48 -21l12 21l33 8l45 -10l96 -6l33 16h28q22 2 27 6l-6 27q0 8 8 24
l-4 23l4 20l-6 39l4 35l4 -2l-2 12l12 15q-14 28 -14 39l2 24q12 12 12 27q0 8 -2 12l6 -2q-16 36 -16 63q0 13 4 33l6 2l-8 6l6 19l4 121l4 2v8q0 8 5 16l-3 4l5 5l-2 6l-9 -13l-41 19l-6 -19h-33l-6 13l-39 6l-34 -15l-31 5q-14 2 -41 16l-19 -8l-18 8l-2 -14l-53 -7l-2 9
l-21 -2l-35 28l-8 22q-4 11 -20 27q21 17 37 33h10l16 31h17l20 22l45 31l47 43l25 17l33 12l30 31l27 12l27 22l43 27l33 37q5 6 38 24q0 33 19 64l2 -4l4 2v22l-4 11q6 6 6 14q0 6 -2 10q4 10 4 29q0 10 -2 18q6 6 6 9v4q12 6 12 14q0 4 -8 16h10l4 15h7l-7 8q0 4 5 29
l8 4l2 12q0 11 -6 20q6 5 24.5 43t18.5 50v32q11 35 43 35q3 0 17 -7.5t28 -10.5l-27 -43q-9 -19 -27 -41v-76l-43 -111l-18 -39l6 -36l-8 -39l27 20h16l23 27q28 17 45 31l4 12q7 12 8 18q35 24 69 53h7v9h12l4 14l39 10l70 43l22 -14l33 4l37 -43v-18l24 -19l11 -43
l-5 -26h5l-11 -144l-24 -22l-37 -19l-41 -53l-23 -7q-14 -3 -23 -12l-24 -24l-47 22l-12 33l20 25l-14 28l23 43q-7 37 -13 44l-47 -7l-33 15l-39 -15l5 -20l-39 -33h-15l-86 -53l11 -17l-15 -10l8 -8q-21 -19 -26 -221l37 -2l10 -17h39l31 -22l75 6h25l16 -14h27
q11 -11 33 -15l20 -18h17q10 8 34 14q27 -22 37 -47l72 -47l70 -61l-15 -29l29 -29l-21 -61l-6 -60l-19 -30q-9 -15 -20 -51l-39 -21l-8 -22l-155 -107l-29 6l-4 -16l-152 -56l-26 -20h-50l-14 -12h-24l-13 -15l-6 2q-6 -30 -6 -59v-20q-12 -68 -12 -78q0 -18 12 -51
l-14 -48l4 -79q-22 -23 -33 -60l-37 -10l8 20l-10 -2q-10 0 -18.5 14t-8.5 27q0 20 11 54l-4 14q18 9 18 22q0 3 -4 15l6 2l6 39l-2 14q0 14 14 23l7 69l-7 19q6 2 13 16l6 12q0 21 -4 41zM569 805l4 10l15 84l-6 8q8 22 8 45t-4 33q6 12 6 19v4q7 11 10 22q-43 -23 -70 -55
l-20 -4l-8 -17l-47 -12l4 -10l-33 -12l-90 -70q28 -18 43 -43l20 12l13 -16l35 14l26 -14l45 4zM598 145h23l20 5l78 30l26 6q34 20 56 23l12 14l12 -4l76 43l21 39l39 12l-3 25l15 20l-6 7l18 51l-2 22l10 29l-22 43l10 33l-23 51l-22 6q-12 31 -29 43l-47 -6l-14 31
q-2 6 -23 22l-59 -14l-12 14l-37 10q-8 2 -16 9l-21 18l-10 -12l-27 8l-14 -14v-21l-9 -61l-4 -181l-6 -81l8 -21l-14 -31l2 -28h-8l2 -23l12 -2l6 -43l-20 -24l8 -23q0 -12 -6 -25z" />
    <glyph glyph-name="percent" unicode="%" horiz-adv-x="1436" 
d="M1071 1292q-10 0 -18 -4l4 -10q-27 -18 -83.5 -98t-65 -100t-25.5 -44l-13 11v-25l-18 -18q-14 -33 -27 -52l-28 -37l-103 -172l-51 -73l-4 -25l-19 -15q-10 -7 -24 -34l-8 4l-13 -25l13 -8l-19 -43l-32 -12l-7 -29q-35 -43 -43 -67.5t-33 -50t-44 -76.5q-11 0 -33 -33
h-8l-4 -29l-52 -45q-39 -61 -62.5 -87t-41.5 -55l-16 -26l-23 -61l-39 -37l-41 -78q-32 -12 -65 -39q-62 16 -80.5 26.5t-18.5 29.5q0 21 47 71l4 19h7q24 0 26 26h8l29 33q3 29 29 29h4q0 10 14 14l8 27q80 63 80 98v4l4 6q30 4 33 27l10 10v-6l9 6l4 45l10 -4q14 24 29 37
l4 18l14 11l4 22h8q10 7 25.5 20.5t36.5 92.5l18 18h15q8 38 32 45l4 25l19 18l10 28q4 13 27 42l6 -4l4 12l18 6v8q0 34 23 62q26 3 33 33l4 -6q3 58 43 98h8l-4 10l14 12l70 113h4q5 16 18 23v6h6l8 25q5 16 12 24l21 24l5 29l10 8l59 74v10q38 29 47 74l4 4q15 3 15 14
q25 4 28 29l19 18q0 25 26 29v12q21 42 62 70v-4h4l14 18v15q19 0 19 18q15 13 28 43h4q11 0 11 12q15 0 18 25l8 -6l15 14l4 -4v10q0 9 18 27h10q15 18 15 33q25 10 33 22l4 -4q5 10 8 29l6 -4v4l12 18l29 15l10 12l23 14q18 33 25 38t12 5q2 0 19 -10t44 -10q17 0 27 2
q6 -12 6 -21q0 -31 -64 -55l-41 -74l-135 -125l-37 -28l-14 -37l-57 -62q-41 -52 -68 -73v-19zM563 1599l47 -14q35 -46 78 -121q-31 -7 -31 -41l9 -39l-74 -63l-19 -70q-11 -16 -18 -43l-51 -22l-94 -107l-66 -39l-31 -36l-18 10q-49 -19 -76 -19q-25 0 -41 37l-10 -4
q-21 11 -21 37l3 14h-5l-10 51l10 41v19l15 14q15 13 16.5 45t28.5 90h14q17 6 33 19q16 53 16 59l35 19q12 19 31 20l6 23l11 20q3 6 36 31v4l41 29q24 26 57 26h19l22 -8l11 14h18zM340 1315l-27 -19l9 -26l-5 -25q0 -7 10 -40.5t31 -43.5l7 -12q4 13 18 22h8l33 29v8l4 4
l6 -4v4l19 7l14 32l4 -10l14 10h4l9 52l-9 30v58l-28 8h-51l-23 -8h-37zM1047 596l69 -10v4l29 -4l14 4l15 -15q28 0 63 -22l-4 -4l41 -47l-8 -51l28 -70q-37 -51 -59 -101.5t-43 -74.5l-76 -84l-41 -19v-4l-55 -39l-51 -59l-43 -14l-74 -47h-51l-33 -5q-3 4 -9 14
q-10 16 -20 25l-26 27q-6 7 -8 12l-3 13q-3 11 -5 32l-2 25q-1 5 -4 13t-3 16q0 9 7 24l7 15l19 106h10l23 59h10q22 4 22 19q0 3 -4 14l19 4v25l14 18q19 6 23 33q31 0 32 41l23 14q53 56 61 62l56 37v4zM860 246v-23q-4 -24 -4 -33l14 -32h19l14 -27v-20l55 43q37 0 52 32
q104 50 112 107h-10q0 62 -29 106q-30 0 -36 19l-33 6l-27 -14h-29l-18 -37l-70 -76z" />
    <glyph glyph-name="ampersand" unicode="&#x26;" horiz-adv-x="1169" 
d="M903 1182l19 -15v-4q31 19 51 19q25 0 33 -33q-25 -67 -52 -76l-69 -22l-56 -47l-69 6l-51 -15h-33q-43 -21 -70 -28l-4 -9q-73 -18 -113 -75l52 -9q9 0 28 -12t37 -12h4q48 18 62 18l33 -12h51l8 -10l29 -60l-62 -38q-14 -24 -21.5 -37.5t-51.5 -39.5l-42 -24l-98 -112
l-135 -140q-67 -67 -92 -186l-15 -4l9 -23v-24q0 -10 18 -19q6 9 43 29l19 -6l14 14l4 -4h18v4l23 10v-4l61 8l19 -8q10 10 10 27l121 51l-10 14l12 -2l10 2q27 6 43 41l8 -8l25 23h8q14 8 14 22v25q-8 24 -8 41l35 16q6 2 25 27v-6l43 28q13 -8 24 -8q8 0 8 14q0 11 -2 17
l66 14l51 -69l-33 -103l-77 -213l-37 -121l-47 -139l-48 -172l-14 -18l6 -15q-2 -11 -12 -33.5t-19 -62t-18.5 -59t-22 -66t-12.5 -57.5h4q-33 -100 -120 -140l-37 -6l-51 -37q6 32 16 43t10 37l-22 37l14 27q3 24 18 24h15q15 21 26 27v29l29 37v55q17 50 23 80
q37 32 38 61l5 101l14 10l4 22q19 23 21.5 60t6 45.5t27.5 21.5v41l19 10q-9 23 -5 42l5 51l-19 18l4 43q4 8 4 25q0 19 -4 26l-22 13q-13 -8 -26 -24.5t-31.5 -24t-26.5 -7.5l-27 4q-9 0 -18 -18q-17 -21 -43.5 -35t-65.5 -24l-113 -33q-19 -10 -40 -15q-9 5 -15 5l-22 -9
h-23q-30 -18 -55 -24q-13 5 -18.5 9t-14.5 34l-33 -10q-22 7 -22 38l3 21q3 21 5 24q10 21 21.5 62t20.5 57l20 31l45 84l18 -14v18q44 44 102 125q10 43 33 43h15l6 4v14q0 15 12 15l18 18l5 -10l10 18q65 69 65 93v6q-3 26 -61 26h-14v15q-31 -11 -54 -11q-15 0 -28 11
l-29 -9l-37 41l-18 -22l-19 8q9 26 12 43l21 8q8 14 9.5 28t39.5 52l6 -4l15 23l4 -5l41 70q10 0 23.5 5.5t41.5 45.5l37 9l61 47l52 10l26 26q43 4 117 33l18 29h84l15 22l22 -14z" />
    <glyph glyph-name="quotesingle" unicode="'" horiz-adv-x="614" 
d="M250 954l-23 19q8 24 17 63l24 21l-18 43l24 6l13 53q24 39 27.5 84.5t11.5 48.5l36 107l23 29q4 6 27 16l39 -10l8 -29l43 -6q24 -41 24 -45v-15l13 -6v-37l-17 -36l-20 -31q-4 -6 -5 -16l-3 -27l-13 -15q-9 -17 -45 -60.5t-53 -76.5l-41 -78l-39 -22z" />
    <glyph glyph-name="parenleft" unicode="(" horiz-adv-x="1110" 
d="M1123 1511q12 -7 31.5 -14t19.5 -16q0 -12 -14 -25l-51 -47l-18 -21q-11 -12 -25 -20l-37 -20q-3 -44 -18 -50t-29 -6h-8l-111 -88l-14 -14l-29 -19l-26 -41l-39 -28l-14 -32q-9 -19 -19 -28l-31 -24l-18 -88l-43 -80l10 -8v-29q-15 -33 -19 -59l13 -11l-13 -26v-58
l-10 -55l10 -22l9 -52l10 -17q4 -7 8 -52l25 -33l45 -80l28 -26l60 -113l39 -51h-6l10 -15q9 -43 18 -59l-80 -66l-26 -59q-8 -16 -33 -29.5t-51 -13.5q-20 0 -30 41.5t-87 159.5l-88 135l-41 121q0 3 4 18q-4 14 -14.5 37.5t-7.5 50.5l22 213l14 47v23l19 6l-10 12l4 15
q20 5 20 28v8l-6 -8q16 29 19 45h10q18 25 18 39v19q37 27 37 45v14q14 6 14 19q11 6 18.5 16.5t11 20.5t22.5 32v10l14 9v6q6 0 27 26h6q21 48 55 52q9 35 33 36q29 51 84 76q16 35 51 41l50 47q5 4 20 33h18l55 41l-10 -4l14 18h9q28 0 28 19v4l19 14h20z" />
    <glyph glyph-name="parenright" unicode=")" horiz-adv-x="1110" 
d="M397 1442l47 -19l70 -112l64 -92l61 -127l20 -32q13 -20 16 -34l11 -41q-2 -6 -2 -18q0 -29 21 -52l-11 -32q4 -9 11 -56q-3 -3 -3 -12q0 -8 6 -22l5 -13v-63q0 -16 6 -29q-11 -44 -43 -92h-4q-6 -39 -29 -66q-14 -25 -14 -32v-4h-4q-13 -52 -37 -76q-37 -29 -47 -45
q0 -9 6 -19q-46 -67 -72 -90l-92 -82l-33 -43l-41 -18l-28 -37l-70 -55l-22 -32q-11 -15 -33 -34l-11 -33h-10q-40 0 -54.5 19.5t-19.5 83.5h7l5 13q3 5 31 28l15 -4q8 12 8 28h14q0 33 11 33h18q10 0 12 8q15 0 21 15h4q27 6 37 14q6 0 18 -6l4 20q20 8 25 23l4 -4l4 4
l-4 8q10 8 33 14l-4 6q20 0 26 27l4 -4v14l6 -6l-2 6q0 9 9 9q4 0 16 -5v9q10 2 14 14q25 19 39 64t21 49l6 45l22 28l-4 4l23 43v33l14 8l4 15l-26 37l4 61l4 -6q4 4 4 6q0 9 -12 12l-7 47l-18 48v32l-33 103v8l-18 18l-8 43l-33 37l-25 47q-35 33 -45 84h4v4l-14 9v6
l-14 22l-4 -14q-15 20 -19 51q-18 4 -18 19q0 21 4 32l6 4l4 19q4 -4 8 -4q6 0 6 18h4l9 19q22 17 24 24q40 1 41 37l4 -4l33 18v4h6z" />
    <glyph glyph-name="asterisk" unicode="*" horiz-adv-x="1335" 
d="M535 1563l12 -25q-2 -6 -2 -20q0 -41 59 -109l45 -51q10 10 15 18l4 -4q10 24 10 37q0 15 -12 33v33l2 26l10 -4l4 14l4 -6l10 11h11l8 10q16 4 22 4q12 0 47 -47l-18 -19q4 -25 10 -32l-24 -27l4 -25l-8 -55v-10q13 -8 24 -8q14 0 16 14q5 -2 9 -2t9 8.5t11 11.5
q3 25 23 27q13 18 32 18l7 11q3 13 18 28l-10 4l41 29h10v27l14 4l4 14l11 4l4 15q10 0 18 -4l10 4v6q25 -12 45 -39l-22 -25q-10 -12 -43 -35l-51 -32l-31 -41l-33 -15l-43 -47l-41 -14v-14q0 -60 51 -60q36 0 70 29l47 -10l22 14q11 8 38 8q26 0 56 9l28 10h18v6l47 8
q4 0 24 -11.5t21 -21.5q-6 -22 -31 -45l-131 -14l-51 14l-65 -24h-41q-18 -8 -25 -27l10 -10q21 -32 47 -60l93 -98q17 -19 55 -47q19 -8 47 -33l-41 -32q-6 -5 -29 -42l-55 15l27 18l6 19l-25 51l-37 22l-22 47l-47 56l-23 6q-11 34 -48 61t-60 27q-11 0 -31 -25l-18 -157
h-7l-14 -23l6 -33q-16 -35 -18 -51h4l-23 -22l13 -43q0 -17 -22.5 -43.5t-47.5 -26.5q-27 0 -55 47q0 35 18 66h4v36q12 4 15 37h4l28 33q15 83 15 86q0 8 -6 35t-31 27q-2 0 -19 -5l-24 -32l-84 -70l-23 -4l-22 -27l-66 -55l-37 -14l-26 -70q-6 -15 -21 -24t-22 -9
q-20 0 -33.5 17t-13.5 26q0 24 32 45h13v7h6l6 4v8q15 18 23 18h16l-6 6h8q44 19 55 33v8q29 7 45 33q13 5 21 17q18 0 18 18l70 51l4 -8q3 18 18 18v4q33 36 33 66q0 9 -8 14l-39 -10l-18 19q-29 -3 -54.5 -11t-61 -10.5t-38.5 -1.5l-63 18l-33 -14l-29 43l4 8l6 -4l-6 15
l10 4l-4 4q19 16 41 18h-8q6 7 23 10q19 -6 32 -14q17 -20 27 -20l6 2h14l31 -4h15q50 0 120 -25l7 14l4 -4l22 15q12 -8 19 -15l51 15v-7q8 -2 28 29l-14 37v29q-12 12 -29.5 16.5t-25.5 24.5q-18 0 -23.5 13t-5.5 15v2q0 14 -25.5 29.5t-43.5 34.5q-3 20 -11 37.5t-8 44.5
q0 29 10 43h4v4q0 6 7 6h2z" />
    <glyph glyph-name="plus" unicode="+" horiz-adv-x="1706" 
d="M795 1221h118v-551h539v-117h-539v-553h-118v553h-541v117h541v551z" />
    <glyph glyph-name="comma" unicode="," horiz-adv-x="614" 
d="M106 -397l-4 14l-26 -8l-21 20q-14 6 -14 19q0 2 4 8.5t4 13.5v17q0 3 26.5 15.5t26.5 33.5q0 6 -2 10l19 14q33 5 55 17l10 35l21 32l26 60l15 53l-58 -25q-15 6 -49 37l-18 21q-8 10 -47 37q-23 5 -23 32q0 21 41 47l37 82q24 52 76 52l18 -7q18 -6 29 -6t33 6l11 -23
q7 -13 18 -22l30 -24v-33l23 -68l4 -20v-31l-9 -47h-6l-8 -47q-18 -2 -18 -24v-9l4 -18q-6 -15 -19 -19h4q3 0 3 -4q0 -20 -25 -47v-8l-4 4l-19 -29v-8q-23 -30 -43 -32q-11 -15 -22 -15q-1 -37 -55 -59q0 -16 -21 -29l-4 4z" />
    <glyph glyph-name="hyphen" unicode="-" horiz-adv-x="889" 
d="M422 518l29 -4l4 4q9 -9 28 -12l-4 -4l29 4h8v-8h16l25 -13h-16l57 -20l16 4l33 -12v-4h17v-4l8 4l16 -9h4q46 0 70 -16v-12h4l-25 -33l-49 -8l-16 -41q-32 -17 -41 -33l-25 -4l-28 12l-34 7q-7 1 -15 7l-21 15h-29q-31 24 -65 24h-62l-41 17h-12q-59 0 -131 -78v-4l-8 4
v-4q-41 0 -41 27q0 19 15.5 51t41.5 53q8 20 17 29l8 -4l8 24l33 8v4l28 9l-4 -4q28 0 33 8l4 -4l4 8h4l4 -4l58 16l16 -4v8q4 -10 13 -10q7 0 16 6z" />
    <glyph glyph-name="period" unicode="." horiz-adv-x="614" 
d="M217 252l117 -78l22 -39q32 -20 37.5 -28.5t5.5 -28.5l-51 -64q-9 -12 -17.5 -25.5t-29.5 -37.5l-41 -6l-43 -51h-4l-14 6l-9 12l-18 47l-33 29l-33 37q-65 23 -65 51q0 31 18 59h11v15l4 -5q9 41 41 41l10 -4l15 16q7 7 22 40l22 10l33 -4v8z" />
    <glyph glyph-name="slash" unicode="/" horiz-adv-x="987" 
d="M874 1497h15v-4l37 -6l-107 -180l-33 -33l-10 -47l-28 -23l-60 -112l-29 -60l-26 -37l-33 -98l-37 -37l-14 -55q-4 -21 -19 -33q-24 -31 -28 -43l-27 -82l-24 -43l-5 -33l-28 -55l-56 -135l-28 -51l-19 -56l-51 -124l-8 -7v-12q-25 -19 -33 -39q-57 -180 -106 -180h-6
l-19 14l-31 4l13 33v4l14 19q17 54 37 94q23 13 29 37h4l18 37l6 -4l19 51l19 30q9 13 40 84h4v7l29 73q23 58 37 70l-4 14q0 15 18 23l18 69l29 56l12 47l29 61l10 8l-6 15q3 21 25 37l4 14l4 -4l-4 26h18l15 52l4 -4l13 20q5 8 15 53q16 13 23 39l14 8l4 41l19 11
q2 9 7.5 18.5t12.5 18.5t16 31.5t17 39t18 30.5t17 30h6l4 4h-4q19 46 33 55l8 -4q10 7 10 14v15l8 12l11 -4v10q7 40 31 68.5t24 37.5h4q12 41 45 41h6z" />
    <glyph glyph-name="zero" unicode="0" horiz-adv-x="899" 
d="M608 1364l31 -8q26 -26 41.5 -49t17.5 -70l33 -45l-4 -27l41 -57l-4 -23l14 -28l-10 -37l27 -23l14 -51v-35l31 -16l-11 -64l15 -14l-4 -41l8 -31l-23 -36l9 -33l-39 -43l-2 -12l43 -41l-48 -23l-20 -35l47 -18l-57 -37l8 -12l-37 -56l-4 -14l-18 -10l-15 -49l-12 -4
l-16 -31l-18 -13q-7 -6 -34 -40l4 -5l-36 -51l-80 -80l-105 -90h-18l-25 -24q-20 -7 -49 -27l-24 14l-9 -4l-61 21q-34 24 -43 37l-19 4l-14 30l-18 -6l-6 25l-31 12l12 23l10 6l-4 6l6 14l-22 41q-4 6 -14 52h-15l4 38l-4 31l6 12l-6 2l12 80l-12 52l12 8l-4 8l4 49l-8 31
l19 31v45l20 84h-6l14 30l-10 13l14 8l-4 14l43 129l29 57l10 9l-4 37l17 12l16 41h4l6 19q2 9 19 26v22l18 4v7l57 61l9 23l24 10l4 22q34 30 37 29q20 29 51 43l72 31h51zM469 1165l-35 -22l-31 -51l-25 -26q-11 -11 -36 -52l-18 -47l-27 -49l-4 -26q-2 -13 -12 -28v-41
l-27 -22l-6 -29v-22l-25 -25v-6q-24 -53 -37 -86l7 -33l-21 -45l10 -6l-10 -35l10 -14l-16 -47l-12 -66l28 -14l-39 -23l7 -14h14l-4 -47v-47q14 -12 26 -31l-4 -16q13 -30 21 -54q22 -11 47 -43l43 11l14 -23l25 12l6 13l20 4l13 35h4l10 18h35q24 30 35 53l16 6l8 23
l33 63l29 15l4 22l33 15l-13 12v29q21 30 21 47v53l16 31l-12 34l6 25l8 6l-10 12v33l-4 31l4 8l-19 23l7 22l20 10l-2 -4h-4l-10 58q0 22 24 61l-16 33l10 35l-22 53h4l-13 14l5 15q-24 43 -27 67l-16 14v39l-7 15z" />
    <glyph glyph-name="one" unicode="1" horiz-adv-x="655" 
d="M616 1317h15q26 -14 41 -14l47 16l8 -33l-22 -26l4 -46l-23 -16q-1 -3 -4 -9t-4 -9q0 -27 -29 -47q-19 -5 -31 -58h5l-11 -43q-3 0 -10 -26l10 -11l-39 -16v-16l-16 6q-7 -21 -27 -27q-5 -39 -25.5 -56t-30 -29.5t-15.5 -29.5l-13 -36l-49 -105v-35l-20 -20l2 -19h-6
q0 -2 -19 -32v-27l-18 -23l8 -30q-10 -24 -10 -54l4 -36l-8 -72l-19 -127l19 -31l-33 -119l12 -94v-2q0 -12 -21 -21.5t-24 -9.5l-65 15q-12 -14 -27 -17l-6 -24l-25 12q-22 -17 -43 -45l-49 59l19 27q-13 21 -13 29q0 7 19 30q21 15 34 31t13 19v6l8 14q-8 17 -8 39
q0 30 18 57v58h6l23 90v14l10 10l39 121h4l6 53l39 105l6 8l60 154q35 37 35 69l10 15v20l43 123q-19 8 -37 8l-23 -2q-2 0 -14 4l-14 -28h-23l-14 -37h-6l-21 -25l-6 4l-16 -16l-29 4l-49 -23q-33 8 -33 41q0 18 19 40.5t30 29.5l58 37l12 18l59 25l29 20l10 -2l4 11h25
q16 0 45 28q22 28 41 39q21 0 25 27h6q5 12 26 18v10l22 8q7 3 16 13l24 27h4q14 0 26 12z" />
    <glyph glyph-name="two" unicode="2" horiz-adv-x="1391" 
d="M1171 1356q39 -12 52 -49h6q25 -29 35 -47q-5 -8 -29 -41t-29 -31l-6 -17h-14q-9 -42 -41 -61q-25 -47 -62 -63v-5l-4 -2l4 -10l-6 -24q-21 -9 -26 -33l-4 4q-21 -64 -84 -64l-43 -24l-50 -53h-26q-6 -4 -18.5 -23.5t-34.5 -38.5l-11 4l-24 -41l-17 4q-12 -24 -26 -32v-9
q-40 -5 -56 -23t-16 -32l2 -6l-22 -4q-7 -20 -48 -37l-10 -29l-8 2q-14 0 -26.5 -31.5t-16.5 -33.5l-55 -33l-23 -35q-31 -11 -45 -28h4l-59 -72l174 -41q31 -3 51 -16q12 -27 29 -27h6l33 -29l24 8l49 -18l2 -10l37 -10l14 -21q7 -10 25 -22l23 -9q14 -7 55 -10l-2 -8
q7 -7 10 -16l84 -21l39 4l37 55l-2 52q0 6 14 25.5t26 29t28 14.5l114 39q26 -3 43 -26l10 -9q5 -4 46 -18q14 -32 43 -70l-23 -88l-45 -4l-18 -22h-13v-9l-24 7q-14 -47 -60 -52v-4q-74 -30 -145 -30q-20 0 -51 4l-13 10l-6 -8l-43 -6l-43 12l-31 -23l-30 4l-33 -6v23
q-37 3 -59 20l-17 -10l-33 14q-25 19 -36 17l-62 -10q-13 2 -20.5 8t-16.5 45l-18 -2l-31 10l-4 -14q-42 16 -61 16h-13q-11 0 -26 16q-14 1 -74 25l-35 -10h-51q-7 -2 -11.5 -5t-39.5 -42h-15l-26 -21l-62 -12q-46 -28 -63 -45l6 -10q-20 -20 -43 -23v-10q-40 -37 -61 -37
q-36 0 -45 44l-9 44q0 22 19 41t30 20l21 33l10 -8l10 8l-12 8q37 31 37 54v4l100 84l68 28l72 50l47 49q31 2 43 57l8 -8q21 13 37 35l-4 20l24 17l-2 4q44 37 51 36l21 31l39 19l37 43l63 55l23 27h18l16 20l56 45l11 21q5 10 30 35t45.5 41t23.5 20l103 102l74 53l40 91
l-6 18l-41 -4l-32 -25l-54 -4l-14 -16q-56 -22 -68 -31l-4 4q-30 -11 -32 -57l-29 6l-8 -8l-18 -2q-7 0 -40 -23l-22 6l-23 -6q-11 -37 -14 -39l-31 11q-21 -39 -82 -70q-35 16 -53 51q23 43 35 55l61 66q32 2 43.5 23.5t22.5 35.5h24l43 39h9q31 0 41 23l43 14q44 29 49 31
l41 4q22 11 30 14.5t37 3.5l11 -2q40 22 71 23q28 31 62 31h6l18 14l35 4l21 25l10 -9z" />
    <glyph glyph-name="three" unicode="3" horiz-adv-x="993" 
d="M993 1206l-67 -32l-20 -16q-9 -7 -36 -13q-14 -16 -45 -37l-8 -21l-39 -16l-28 -16l-45 -4l-33 -23l-29 -14q-42 -51 -76 -68q-35 -28 -35 -37q0 -10 5 -16l102 14q36 0 98 -35l43 19l11 -8l38 6q38 -28 72 -47q18 -43 53 -86l-4 -37q-16 -24 -20 -33t-19 -76
q-27 -20 -49 -45l-84 -94l-39 -14l-26 -41q-41 -13 -60.5 -15.5t-29.5 -13.5q-10 -23 -16 -31.5t-19 -19.5q-57 -20 -105 -55l-16 6l-2 -6l-37 -28q-6 -5 -37 -13l-11 -16q-5 -7 -48 -31q-2 -9 -27 -15l-90 -31l-20 -30l-50 -11l-4 -4l2 -8l35 10h6q54 0 80 -49l-59 -39
q-28 -28 -37 -65h-33l-24 -31q-42 -2 -50 -37q-29 -26 -47 -28q-27 -25 -59 -25q-61 0 -61 129l22 53q37 0 37 33l22 6l2 4l-8 15l21 8v14h18l62 53l36 23l20 20q9 9 48 29l6 -4l15 18l28 11l240 133l45 28l37 13l170 145l16 66q2 11 10 30q-12 37 -73 68q-37 5 -45 8
l-41 -20l-25 18l-33 -8l-4 8l-6 -2v-10l-59 -25l-17 11l-26 -17h-31q-60 -21 -158 -84l-51 51l12 37q40 21 45 62q9 30 39 37l4 22h13q5 10 34 35l-6 22q15 6 56 39l32 41q45 35 93 78l53 49q6 13 6 21q-101 8 -127 8l-51 -12q-25 -6 -42.5 -8.5t-46 -13t-46.5 -19.5
q-21 9 -31 22t-27 33v16q0 10 24.5 32.5t39.5 39.5l18 2l21 31l22 11q10 5 33 30h6l33 18h55l12 4q19 -4 43 -4q27 0 50.5 7.5t27.5 7.5q19 0 39 -11q49 -16 66 -16l20 4l16 -3q18 -3 50 -3l10 4q34 -12 49 -12q21 0 53 20q48 21 86 21q52 0 52 -56q0 -38 -15 -45z" />
    <glyph glyph-name="four" unicode="4" horiz-adv-x="1305" 
d="M958 1274q24 -5 30.5 -15.5t6.5 -39.5v-29q-15 -6 -18 -19q2 -6 8 -18l-45 -74v-10q0 -39 -25 -55q-20 -46 -32 -150q-37 -24 -37 -59v-37l-19 -47q-4 -51 -10 -78t-22 -76l6 -22h-6q0 -16 18 -29v4h14l11 10q8 -4 14 -10h31q25 -14 43 -14l37 6h47q17 0 36 4t23 4
q18 16 18 47l-12 -4l6 15l9 -3v11l12 32l24 11v4q22 18 52 18l4 19q8 4 16 4q10 0 31 -8v8q10 20 18 28q24 -5 37 -36q-10 -41 -12 -48.5t-4.5 -24.5t-9.5 -28l-17 -30l-70 -35l-45 -45h-18l-8 -15l-6 6l-13 -14v-14l-32 -8l-19 22l-33 -22l-26 8l-25 -19l-18 7
q-15 -19 -33 -19l-23 4l-20 -10l-29 18l-37 -18l-4 -23l-6 4v-8h-8l-43 -168l29 -65q-31 -40 -38.5 -48t-17.5 -15.5t-29 -28t-38 -38t-44.5 -37.5t-47.5 -20q-23 0 -27 11q-14 6 -23.5 18.5t-9.5 20.5q0 2 2 2h2l33 39l14 36q12 12 15 23h4l33 102q11 25 22 74l10 47l19 66
q0 33 -76 33h-18v8l-31 -8v-15h-84l-14 15l-11 -15l-32 15l-50 -7l-47 19v-8h-18v-11q-21 13 -45 13q-17 0 -35 -6v-7l-51 19q-17 0 -24.5 -4t-41.5 -33q-33 12 -55 43v4q0 8 14 14l-4 19l19 28l18 9v18q9 19 23 19l10 4q4 2 41 43q7 2 29 11.5t50 15t38 14.5l51 43
q0 14 17.5 21t29.5 15l8 23l4 -4q7 16 10 18v4l56 31l61 64q9 24 33 26l12 10v9q0 7 16.5 9t26.5 5q12 39 41 57v-6l6 6q5 16 19 27l73 61q41 34 41 60v4h7l-7 6l15 14l3 9q14 37 40 45l37 10l18 29q39 34 41 41h18q23 0 43 14zM651 870q-14 -3 -26 -22t-25 -29l-4 4
q-21 -17 -50 -34t-30 -17h-4q-19 -27 -43 -51q-33 -14 -37 -19t-11 -20q-16 -37 -40 -59l-4 -19l-4 -4l37 -18h22l19 -29h43l26 -12l47 12h6q14 0 19.5 -5t25.5 -36l15 -4h14l4 18h8l21 111v37l18 33l-14 69l14 94l-6 9q-6 14 -22 14q-19 0 -19 -23z" />
    <glyph glyph-name="five" unicode="5" horiz-adv-x="915" 
d="M518 1358q44 -31 72 -31h24v-4h127l19 -4h20l25 -2l61 2l25 -8l4 8l55 4l97 23q37 0 47 -41q-6 -14 -21 -60l-80 -51q-18 -15 -41 -29.5t-24 -17.5l-25 -6l-20 6l-2 -6q-128 -3 -142 -17q-23 17 -57 17l-76 -33h-37l-18 -21q-1 -19 -37 -73q-16 -44 -16 -76q0 -27 18 -27
q15 0 49 13l6 -2q9 8 21 8q14 0 22 -15q12 5 41 5q12 0 41 -9l13 11l43 -15q24 -24 36 -33q31 -76 31 -120q0 -54 -47 -101l-22 -22l-41 -58q-41 -22 -49 -29t-17.5 -24t-13.5 -39h-21q-13 -6 -16 -14q-17 -3 -17 -12l-38 -47h-23l-25 -31v-12h-10l-8 -33l-12 16
q-11 -22 -33 -22q2 -6 -43 -56q-31 -23 -33 -26l-22 2q-15 -9 -29.5 -36t-19.5 -30l-68 -30l-21 -33l-49 -11l-4 -4l2 -8l37 10h6q50 0 78 -49l-59 -39q-24 -20 -37 -65h-33l-25 -31q-41 -3 -49 -37q-13 -11 -33 -23l-37 -21q-16 -9 -36 -9q-57 0 -57 80l4 24l-17 27l33 53
q35 0 35 31q23 7 26 10l-8 15l19 8v14h18l72 55v21h26l52 45v-4l34 29l5 -5q0 10 61 59l45 34l78 73l51 37l23 31l22 22l19 29l19 18q9 9 30 47t40 63t19 28q0 17 -41 53l-41 -4l-12 4l-51 -4l-13 -4q-6 0 -26 10l-29 -8q-55 -31 -88 -31q-24 0 -55 31t-31 76v20q29 0 29 17
v30l14 -8l6 2l-2 25l12 12l-2 8l23 29v29h8v20l6 20v9l9 48q3 12 26 54l-2 21q-14 20 -14 38l2 33v13q22 36 53 47v6l20 12l5 16l22 5l12 22z" />
    <glyph glyph-name="six" unicode="6" horiz-adv-x="948" 
d="M623 1352q18 -37 18 -62q0 -21 -16 -52q-8 -15 -13 -56h-12q-49 -14 -49 -47l12 -43q-16 -28 -26.5 -41.5t-14.5 -26.5h-4l-12 -47l6 -10q-8 -20 -45 -49l-23 -95l-18 -4l-14 -26v-7q0 -34 -27 -49l6 -16h-8q-3 -47 -39 -80l-25 -53l-14 -37l-43 -66q-12 -36 -12 -67
q0 -12 4 -27q-4 -12 -4 -18l20 4l29 26h14l23 19l47 6q15 27 45 27h6l4 4l117 28q10 17 23 17q3 0 8 -2t8 -2h4l66 2l41 14q7 0 69 -29l4 -12v-4l23 -20l22 -5l-6 -16v-6l14 -29l-14 -28l8 -41q0 -5 -32.5 -60.5t-44.5 -64.5v10l-33 -12v-9h-8q-27 -22 -57.5 -39.5t-39 -26
t-25 -16.5t-38.5 -22l-10 -35l-58 -18q-74 -49 -137 -66l-59 -8l-88 -33q-72 9 -93 49l-28 56l-31 49l10 18l-8 31v6q0 13 -10 17l8 18q2 8 8 23q19 22 19 30v29l4 33l6 -6q16 45 16 55l6 -4l4 16l5 2v6q0 17 7.5 31.5t18.5 58.5l10 11l9 32l6 -2v7l-12 10h18l22 51l9 4
l18 41q7 26 19 37v24h8l-6 27l10 -8q23 54 28 55q2 25 23 62l-12 16q4 19 4 27q0 17 -6 26q3 10 16 17l10 24q4 6 13 43q14 86 38 123q24 24 29.5 36.5t5.5 33.5q0 23 -4 35h10l23 96l16 28h9v13q15 22 38 30q38 4 46 25q27 31 73 31q37 0 37 -23q0 -19 -22 -24zM588 387
l-27 -6v-6l-29 6q-2 0 -16.5 -5.5t-21.5 -15.5l-9 11q-46 -38 -114 -41v-4l-35 4l-37 -27l-23 -7q-10 -3 -40 -30v-8q-56 -25 -56 -108q0 -35 8 -44.5t25 -9.5q37 0 62.5 9.5t31.5 9.5l21 -4h14l33 10q16 0 26 -10q33 -5 39 -5q16 0 49 23l105 70q22 35 37 75l16 5
q8 4 15 63z" />
    <glyph glyph-name="seven" unicode="7" horiz-adv-x="979" 
d="M688 1241l10 6l133 23l99 26q27 23 37 23q36 0 84 -51l-19 -33l25 -23l-8 -26l-60 -53v-23q-33 -11 -40 -22.5t-34 -32.5v-25q-15 -26 -34 -26l-29 8l-4 -8q-32 -42 -35 -52l-20 -12l-2 -35l-101 -127q-18 -18 -34 -48t-42 -44l-26 -61l-13 -13v-45l-57 -73l-57 -123
l4 -13l-16 -55q10 -46 28.5 -52.5t30.5 -6.5l-10 -60l-13 -49l-18 -18l-33 -84l-23 -20q-12 -9 -32 -40q-58 -22 -98 -47l-21 31q-2 2 -2 8l4 21q0 6 -2 10h27l-21 61q39 39 39 82l-4 29q0 13 4.5 27t8.5 20.5t12 46.5l10 4l-4 10q12 16 24 43q0 33 39 80v31l15 14l52 129
q18 45 38 45h4v13q0 54 26 78l7 34q18 9 22 23q16 11 16 27l33 55l10 6l8 28q3 9 15 21l31 31l-8 33q16 49 24 65.5t8 28.5q0 18 -34 18h-15l-4 6q-43 5 -57 3l-54 -15h-12l-16 -8q-41 6 -43 8l-23 17l-45 -15l-8 12l-20 -12l-21 17l-43 -5l-35 5l-35 -13l-6 19h-12l-35 -23
l-33 17l-32 -11l-27 64q14 21 31 33t22 12h6q10 16 21 18l6 -6v6q0 52 57 60q11 14 39 14l6 12q71 -16 91 -16q5 4 24 4q10 0 47 -8q31 -19 101 -19l67 -10l19 2z" />
    <glyph glyph-name="eight" unicode="8" horiz-adv-x="1044" 
d="M436 1247h15q43 0 43 -30q0 -14 -15 -35q-10 -8 -10 -25l29 -6l39 25l47 38l84 17l49 -8l94 20l74 -16l39 -4l20 16l35 -4l26 -1q11 -1 60 -17l22 14q42 -6 58 -29.5t16 -40.5v-6q0 -13 -4.5 -22t-11 -18t-12.5 -14t-13 -18t-16 -23.5t-21 -19.5l-49 -34l-18 -27
l-234 -174l-14 -21l-82 -45l-53 -61l-51 -19l2 -16v-4l27 -34q5 -7 10 -34l20 -22l59 -133l5 -33l12 -12l-10 -76v-35l-97 -102l-161 -109l-39 -41l-33 8l-96 -55q-8 -16 -43 -16q-27 0 -62 8l-61 14l-66 84l-24 55l16 33l-2 25l43 53l27 57q29 42 46 61t48 64q19 13 24 19
l68 69q38 36 63 58l-4 6v20l6 9l-59 96l-31 88l-10 12l4 12l-12 13l-14 67l-33 23q-3 12 -31 41q0 8 9 23l7 12l19 73l47 39l6 31l103 90l30 14zM645 1102l-57 -49l-41 -27l-19 -49l-47 2l-10 -16h-25q-8 -32 -8 -50l6 -36v-5l5 -16l32 -29l11 -41l18 -27q10 -14 14 -34
l21 -4q54 30 83 55t29 35l99 84q85 58 94 68l43 45l35 20l10 21l-57 16v4l-25 4l-20 -6l-56 20l-69 -8zM406 496v-4q0 -20 -14 -32t-15 -14l-35 -51l-59 -45l-27 -49l-29 -27l-14 -37q-2 -6 -27 -32l2 -70l5 -29q0 -5 14 -7l14 -3l72 8l94 31l21 12q12 7 22 7l29 2
q20 41 73 65q11 21 11 37l-4 25v8q-33 42 -59.5 93t-26.5 60v29l-17 37h-22z" />
    <glyph glyph-name="nine" unicode="9" horiz-adv-x="950" 
d="M694 1434l47 -29l19 -35l18 -4l25 -33v-18q0 -33 10 -45l10 4l6 -2l13 16l20 -4l12 9q5 3 50 14q10 -9 51 -13q9 31 31 31q11 0 23.5 -13t12.5 -28q0 -6 -6 -18l-28 -47l-10 -41q-5 -19 -27 -64q-28 -18 -33 -39l-18 -43l-56 -90l-33 -33l-40 -96l-66 -70l-14 -41
l-23 -30l-35 -54l-37 -14l5 -8l-15 -29h8l-20 -47q-64 -68 -64 -129v-51l-26 -113v-32h-8q-9 -17 -9 -25l5 -20v-44q0 -31 12 -34l119 55l36 -16l7 -27q0 -2 -10.5 -33t-20.5 -37l-84 -45l-33 -32l-125 -56l-65 -8l10 64l-19 28l37 205l41 201l37 12v8q0 36 21 80h8l22 39
l37 94l35 58l6 65l25 14l5 24q3 11 25 44q-5 17 -28 22l-23 -12q-38 -26 -78 -41q-26 -36 -48 -44t-81 -19.5t-82.5 -22t-53 -38t-48.5 -27.5q-20 0 -35.5 28.5t-38.5 63.5v41l-10 33l21 30l10 41q17 19 27.5 35.5t15 31t27.5 50.5l32 53l64 88l28 23l-4 4q11 27 41 47l8 33
l27 28l30 37q5 6 38 27l4 16l26 11l50 57q14 20 34 20l19 -2l61 4zM606 1032l-12 109q-9 37 -23.5 61.5t-25.5 24.5q-23 0 -31 -10l-39 -50l-22 -8l-15 -31h-6l-29 -34q-51 -85 -71 -99q-25 -10 -31.5 -17t-11.5 -52l-27 -29v-49l-18 -43q2 -18 10 -23h10q31 10 62 31l51 23
l37 10q53 27 65 26v13l26 10q15 6 23 13l23 22v-10l65 51q15 8 15 20l-2 15z" />
    <glyph glyph-name="colon" unicode=":" horiz-adv-x="614" 
d="M238 924l116 -78l23 -39q32 -21 37.5 -29t5.5 -28l-51 -64q-29 -43 -47 -63l-41 -7l-43 -51h-5l-14 6l-8 13l-18 47l-33 28l-33 37q-42 15 -54 26.5t-12 33.5q0 20 19 51h10v14l4 -4q10 41 41 41l10 -4l16 16q7 7 21 39l23 11l33 -5v9zM238 252l116 -78l23 -39
q32 -20 37.5 -28.5t5.5 -28.5l-51 -64q-13 -14 -19.5 -26.5t-27.5 -36.5l-41 -6l-43 -51h-5l-14 6l-8 12l-18 47l-33 29l-33 37q-42 15 -54 26t-12 33q0 21 19 51h10v15l4 -5q10 41 41 41l10 -4l16 16q7 7 21 40l23 10l33 -4v8z" />
    <glyph glyph-name="semicolon" unicode=";" horiz-adv-x="614" 
d="M238 924l116 -78l23 -39q32 -21 37.5 -29t5.5 -28l-51 -64q-29 -43 -47 -63l-41 -7l-43 -51h-5l-14 6l-8 13l-18 47l-33 28l-33 37q-42 15 -54 26.5t-12 33.5q0 20 19 51h10v14l4 -4q10 41 41 41l10 -4l16 16q7 7 21 39l23 11l33 -5v9zM129 -397l-4 14l-27 -8l-20 20
q-15 6 -15 19q0 3 4.5 8.5t4.5 9.5v4l-2 8q0 12 27.5 25t27.5 31q0 8 -2 12l18 14q34 5 56 17l10 35l20 32l27 60l14 53l-57 -25q-15 6 -49 37l-19 21q-8 10 -47 37q-22 8 -22 32q0 21 41 47l37 82q21 46 75 52q25 -13 47 -13q18 0 33 6l12 -23q7 -13 18 -22l30 -24v-33
l22 -68l4 -20v-31l-8 -47h-6l-8 -47q-19 -2 -19 -24v-9l4 -18q-6 -15 -18 -19h4q2 0 2 -4q0 -20 -25 -47v-8l-4 4l-18 -29v-8q-23 -30 -43 -32q-8 -11 -23 -15q-1 -38 -55 -59q0 -17 -20 -29l-4 4z" />
    <glyph glyph-name="less" unicode="&#x3c;" horiz-adv-x="1706" 
d="M1442 1145v-127l-1000 -408l1000 -405v-129l-1178 483v103z" />
    <glyph glyph-name="equal" unicode="=" horiz-adv-x="1706" 
d="M254 860h1198v-117h-1198v117zM254 477h1198v-117h-1198v117z" />
    <glyph glyph-name="greater" unicode="&#x3e;" horiz-adv-x="1706" 
d="M264 1145l1178 -483v-103l-1178 -483v129l1000 405l-1000 408v127z" />
    <glyph glyph-name="question" unicode="?" horiz-adv-x="1163" 
d="M844 1585q14 14 24 14l31 -2q14 0 14 15q5 12 39 12q21 0 50 -6l28 -6l19 4l14 -23l45 -14q38 -26 80 -45l22 -39l33 -18l4 -27l-31 -33l-24 -43l-41 -37l-33 -51l-47 -37l-45 -51l-43 -22l-55 -48l-43 -18l-103 -74l-166 -139l-106 -76l-72 -69l-8 -19q-4 -8 -41 -37
l-10 -88l-23 -55q0 -13 34 -27t81 -14q18 0 25 1t55 22q10 -10 10 -17q0 -12 -23.5 -27.5t-23.5 -39.5h-4q5 -66 -86 -134l-49 50h-37l-33 18l-24 -4l-63 10q-28 5 -51.5 30t-21.5 38l15 69l-8 7l8 26q18 19 18 62l10 4q-4 4 -4 10q0 5 13 8q30 12 32 37h11l4 10q0 23 24 23
v14h13q7 0 12.5 13t19 25t19.5 21l14 7q0 20 23 36h6q0 5 1 8.5t3 6.5l4 6t5 5t7 3.5t8.5 2.5t13.5 9l17 15l55 33l21 32l31 4l10 23l14 6l4 14q29 4 29 19v4h8q19 0 19 14v8l10 7l4 -11q15 31 43 37v4l22 15q4 -2 11 -2q13 0 16 20q29 29 39 29h8q5 9 13 14l16 8l147 99
q3 22 25 22l18 33l-18 47l4 41l-23 6q-10 8 -30.5 24t-89.5 27l-121 -57q-3 -2 -20.5 -8.5t-37.5 -28.5l-22 10l-10 -7q-4 -3 -41 -7l-33 -37l-19 -4q-8 -2 -40 -29q-14 20 -37 23v37q3 2 30 39v-6l25 14v18h23l14 4l18 25l23 -10v24l10 -6l18 19h23l-4 6q24 11 37 14l10 19
l78 30l-8 6l14 4v-4l41 9l-4 4l18 14l4 -4q25 2 25 10h-10zM342 180l18 -18q38 -3 50 -13t12 -18q0 -7 -6 -16q23 -6 28 -27l-6 -10q-7 -15 -18 -15l-12 15v-76q-21 0 -21 -18h-4l-23 -33l-79 -2q-23 -43 -27 -45.5t-25 -5.5q-8 24 -13 28t-19 8q-19 13 -19 33q0 17 66 107
l14 -4v22q15 14 23 33q10 3 18 14q11 -7 25 -10l4 29z" />
    <glyph glyph-name="at" unicode="@" horiz-adv-x="2019" 
d="M1190 336q-122 -211 -309 -211q-124 0 -200.5 92t-76.5 244q0 204 154 374.5t332 170.5q177 0 221 -195l53 180h143l-170 -610q-18 -64 -18 -109q0 -47 25.5 -74.5t68.5 -27.5q79 0 184.5 81.5t168.5 220t63 310.5q0 278 -197 449.5t-489 171.5q-390 0 -635.5 -252.5
t-245.5 -644.5q0 -344 238.5 -539.5t580.5 -195.5q328 0 613 206l30 -36q-299 -222 -655 -222q-419 0 -671.5 230t-252.5 588q0 375 281.5 645t689.5 270q346 0 553 -187.5t207 -498.5q0 -260 -147 -450.5t-332 -190.5q-195 0 -207 211zM1266 752q0 94 -48 153.5t-120 59.5
q-134 0 -241 -216.5t-107 -373.5q0 -93 41 -147t108 -54q142 0 254.5 200.5t112.5 377.5z" />
    <glyph glyph-name="A" unicode="A" horiz-adv-x="1628" 
d="M997 1511l47 -6l23 -37l-4 -45q3 -13 5.5 -22.5t8.5 -61.5l8 -24v-37l23 -23v-14l33 -260h10l14 -18h-32q19 -55 32 -113l33 -12l31 26l33 -14h14l4 -4l6 4q4 -4 41 -8l51 37l80 -5l4 15l51 -15l89 23l18 18q10 11 26 16l40 13l18 -29h33l14 -41q-19 -39 -37 -57l-10 6
l-80 -84l-41 -28h-98l-55 -15l-48 11l-96 -41l-6 4l-59 -25l14 -217h4v-10l-14 -15l14 -12l4 -47l10 -10l-10 -19l19 -26l10 -80l14 -19l14 5l5 -13l-2 -14h-13l4 -117q-18 -30 -37 -51l-36 -4l-11 -29l-26 4l4 -26l-16 -20q-7 -9 -54 -38l-35 29q-6 4 -14 22l-12 29v56
l-19 88l-8 14l8 57l-8 49l19 39l-23 82q9 19 12 51l-8 15l8 43q0 18 -12 74l18 40l-6 66l-30 18l-21 -8v8l-45 -4l4 -28l-22 6l-25 -6l-6 -4q-46 -23 -90 -23l-29 4l-59 -18l-62 -11l-4 -26l-43 18v-18h-8l-29 -29h-41l15 -41l-39 8l-60 -36l-14 -15l-33 10l-37 -28h-36v-27
l-37 -6l-15 -33l-18 -18l-25 -64l7 -6q-3 -9 -33 -37l-4 -55l-29 -22l4 -11h-14v-22l-33 -25v-8q-7 -7 -23 -37h-8l-24 -70l-9 13v-8l-24 -19l-6 -19q-2 -10 -21 -28l-37 14q-6 17 -10 19l4 14v8l6 19q-11 19 -14 76l14 -7l-10 11v14l4 4l-8 25l8 18l-10 23l6 8q-2 22 -4 61
l19 15l55 -43h33l116 145l-18 12l4 21l-37 -15l-6 -10l-8 4l-23 -12q-10 -6 -43 -10l-33 43q24 61 43 69q0 11 33 45l23 7l-4 4l37 51h4l88 18l10 -18l18 4l4 -4h11l8 18l29 -4v8l22 19l-14 24l18 27l47 18l-4 11l6 15q2 7 31 32q19 76 41 88h-8l47 59l4 -4l70 111h-4l26 39
h6l56 102h8l47 78l14 4l23 43q4 4 18 45l33 25v4l18 47l11 4l4 37h14l4 14h4l11 23l79 47zM840 1212l-33 -8v-14l-33 -33h-10l-45 -65h-4l-33 -64v-10l-12 -18q-6 -11 -17 -17l-28 -16l-13 -33q-6 -14 -10 -70l-18 4l-4 -26l-37 -29l4 -4v-23l-33 -14l-26 -73
q-7 -21 -15 -33l-24 -33l4 -6v-4l10 -5h59l25 -14l78 47l65 4l4 -14l6 25h37l66 18l18 -6l41 14v4l62 21v4l77 18v23l-26 24v78l22 51l-22 15l-29 -15l-37 52l52 4v14l-62 14l6 15l-18 22l12 19l-33 51l6 10l9 4l-15 15l-12 69z" />
    <glyph glyph-name="B" unicode="B" horiz-adv-x="1561" 
d="M233 1567l24 -3q11 -1 36 -16l37 8l18 -22h23v-10l18 10h10l4 -18l19 4l4 -15l80 -4v-8l-14 -14l14 -11l4 19h33l55 14l57 -18l-14 -4l88 -19l-10 -24l127 -41l4 -15q32 -2 70 -18l18 4l10 -18q46 -3 88 -19l23 10l37 -10l18 -29h19l6 -26l22 -19l4 -28h-14l-23 -47
l-59 -52l-33 -41h-14q-7 -10 -37 -47l-21 -5q-12 -3 -21 -11l-23 -20l-5 -15h-14q-41 -54 -70 -59l-4 -12l-14 4l-14 -29l123 -45l98 -19l119 -38l26 -19l23 -4q10 -2 47 -29v-6l47 6l37 -14l18 4q6 -17 43 -70l33 -4l8 -10h43l19 -33l-19 -18l19 -19h18l19 -12
q-13 -43 -28 -59t-34 -31l-4 -12q-51 -29 -58 -34l-16 -15q-10 -9 -32 -50l-25 5l-4 -19l-19 -4l-8 -18l-32 -7l-66 -40h-23l-14 -5l-6 -14h-12l-6 -14l-31 -19l-15 -14l-28 -8l-22 -17q-11 -8 -33 -12l-25 -29l-45 -8l-98 -47l-181 -59l-39 -19l-22 4l-33 -18l-50 -12
q-9 -2 -38 -21h-37l-61 -47l-33 -4q-24 -18 -37 -41l-33 -10l-22 4l-51 -27l-52 4l-22 23l14 47l37 33l-10 47l24 37l3 19q2 7 24 54l-14 33l14 15l-8 32l22 33l11 4v27q24 14 37 29l-7 22l21 6l-6 27l18 14v29l14 37l5 51l28 147l-10 15l10 28l-18 23l37 29l-29 8l-8 61
l14 15l-18 32q12 14 22 60l33 22l8 29l-4 14l29 37l-33 47l29 37l-25 33v18l19 29v31l18 14l6 55l-14 11v47l4 18l-19 33l-84 8l-124 -8l-9 37l-28 -11l-15 -18l-22 14l-19 41l4 15l19 -4l51 79zM627 1278l-29 -29l-8 -22l-16 -22q-9 -14 -9 -44v-22l-30 -47l8 -41l-23 -11
q-5 -56 -18 -102q25 -8 33 -18l59 43q25 10 62 30l36 21l66 22l12 19l33 4l61 39l37 12h8l29 25l4 36l-18 -4l-33 23l-19 10l-14 19l-59 30l-33 -4l-55 19zM557 711h-14v-19h-15l-22 -18l-29 4l-12 -51l22 -195l-36 -55l-11 -43l11 -19l-29 -69v-41q-14 -27 -33 -37l14 -29
h-18l4 -65l19 -15l24 7l12 8l27 2q12 2 35 16l41 -4l65 29l19 -6l43 28l74 23q34 17 36 24l52 -10l14 23l40 8q7 2 34 20h18l25 15v14h32l56 41l135 55l41 43l74 37l24 37l-29 51l-40 15l-52 36l-28 33q-44 17 -47 23l-31 -15l-47 29l-11 1l-11 1l-14 1q-7 1 -16 6l-24 14
l-45 -5l-76 19l-12 10h-15l-14 19l-37 -11l-4 -8h-28l-19 8l-14 -18l-19 14l-32 -4l-19 14l-4 -10l-43 10l-33 -6z" />
    <glyph glyph-name="C" unicode="C" horiz-adv-x="1473" 
d="M281 0l-13 23l-84 28l-47 51l-14 56l-23 18l-28 66v51l14 20l-6 23l6 26l29 56l-15 43l15 8l18 51l-6 55l33 15v37h18l10 43h5l10 14l-10 8h10l4 13v45l61 45l-6 10l43 59h4l15 29l26 8v19h10l5 24l47 55l8 5l6 10q22 22 23 26l10 7l18 32l70 64l33 40q8 11 20 18l31 18
l4 14l51 18l-4 9q23 20 41 24v4l14 23l37 14q49 43 74 51l65 23l19 -8l22 8h7l26 -8l6 -25l13 6l6 -6v-12l14 -39l8 -148h-4l4 -4l-22 -102l-6 12l-9 -51l4 -21l-18 -24h-4l-2 -16l8 -29l-10 -35v-8h-25l-18 -47v-4h-4l-51 -62l-19 -8l-10 -25l-19 11l5 -33l-9 -14h-18
l-4 10l-43 18l-19 41l4 33l7 4l65 176l45 53l10 60l-14 106l-53 15l-41 -4l-27 -15h-4l-20 -28l-74 -46l-29 5l-22 -29l4 -4v-4l-23 -6l-4 -19q-27 -21 -65 -55q-4 -8 -37 -47v-4l-23 -15v-8l-24 -10v-14h-4l-47 -70l6 -8l-58 -113l-22 -8v-10h12l-6 -47l-14 -27l-19 -84
l-20 -18q-12 -111 -15 -121l27 -19l-6 -69l14 -66q29 -44 33 -82l29 15l30 -35l52 -45q52 -12 88 -15l45 25l14 -19l88 23l25 -12l4 8l131 39h18l70 47l63 18l47 19l62 43h14l23 18l92 92l29 19l-15 51l-59 29l4 22l213 94l6 9q35 10 41 18h14l15 -37h12l-12 -55h-15
l-18 -37v8l-10 -8l-11 -35l-45 -45l-4 10q-32 -47 -39 -51v-14l-45 -29q-7 -9 -14 -14h-22l-7 -12q-20 -8 -32 -39l-64 -31l-6 -6l-4 6q-19 -9 -33 -29h-8l-14 -18l-11 4l-4 -19l-37 -4l-19 -19q-9 -9 -50 -28v-4l-15 4q-13 -2 -32 -18l-4 -23l-19 4l-18 -10v-4h-37
q-27 -28 -54.5 -39t-105.5 -26v-13l-45 4v-18l-25 4l-8 -4v-6h-28l-5 -19l-55 -6z" />
    <glyph glyph-name="D" unicode="D" horiz-adv-x="1552" 
d="M428 1530l33 -4l4 -6h45l98 -4v-19l4 4l39 -4l56 -33h14l4 -14h29l4 -8l121 -25l73 -18l4 -15l52 -18l7 -6q3 -2 44 -12q12 -19 39 -33h8v-8l10 4l4 -15h8q9 -11 29 -26l33 6l4 -16h14v-15l19 -8l14 -25l33 -4v-8l-14 -6l8 -41l61 -23l14 -18l19 4l8 -29l29 -14l10 -37
l64 -65l38 -152l-10 -20v-37l-22 -33l-19 -121l-39 -51l-4 -18l-33 -64l-14 -10l-4 -10q-43 -36 -66 -64v8l-96 -92l-28 -14l-33 -29q-37 -18 -41 -22h-10q-52 -33 -56 -37v-4l-61 -39l-37 -4l-4 -8q-23 -9 -41 -29l-6 10l-51 -25v-4h-13l-6 -10q-25 -3 -33 -12h-4l-110 -62
l-11 5l-208 -93l-5 -10l-43 -12h-22l-29 -25l-55 -18l-70 -51q-48 -44 -55 -47v-19l-33 -12l-18 -29l-76 -14h-18q-26 32 -27 37l18 28l-14 74l14 43l33 14l139 82v-8l15 -4l4 27l14 10l4 22l4 -4l48 140l4 59l18 61v187l10 14l15 180l51 256l-25 33l19 51l-4 56l-41 4v-8
h-33v-11h-19l-14 -18h-37q-3 7 -28 33l10 14q31 17 37 27l4 -9l4 15v4l14 14h4l33 23q6 4 18 28l62 27l-4 51l-25 15l-14 47l-37 18l-41 -10l-18 24l14 23l82 18l-19 62h-12l4 18zM641 1274v-4l-29 -19l-8 -47l14 -10l-24 -59l-27 -220l-14 -69l-29 -60l-8 -10l14 -41h-10
l-18 -135l-41 -121l-29 -200l-14 -27l-41 -141l-6 -5l-45 -92l4 -24l143 39l37 18l84 33l24 -10l13 22h39l-6 6l18 23l47 14h10l41 27h15l-4 6l110 55l19 4l14 15h4l18 4l19 24l10 -6l80 43v8h4v7l55 32l136 115l32 37l78 127l14 14l-4 55l-41 125l-24 33v29l-33 31l-14 32
l-78 66l-19 22l-28 7l-15 26l-55 19l-37 32l-61 39l-45 8l-25 23l-12 -8l-150 55l-25 7q-11 3 -54 28z" />
    <glyph glyph-name="E" unicode="E" horiz-adv-x="1393" 
d="M1214 1311l7 -6l-64 -82l-6 -11l-45 -22l-25 10q-24 -27 -51 -37l-18 4l-19 -28l-22 -9l-35 23l-10 29l-68 -15l-45 19l-78 -15h-76q-7 -64 -20 -92l6 -10l-12 -70l-15 -51v-39l-10 -10l6 -18l162 -13l82 17l70 -19l39 45h61l8 -18l33 -14v-29l-17 -16q-8 -7 -28 -52
l-53 -37l-35 -16q-19 -8 -51 -8l-113 14l-57 -10l-43 -14l-45 6l-25 -6h-27l-8 -4l-18 -48l-12 -41l-25 -43l-27 -151l-18 -160l-18 -41l-3 -112l19 -13l72 -10l30 -18h41l21 -13l30 9l31 -11l92 13l45 -2l9 8h47l41 14l39 -4l10 8l84 25l-15 33l11 22q21 65 41 102l51 -4
l37 23h57q23 -32 74 -70l8 -55v-18l-18 -25v-19l-23 -14v-22q-28 -34 -92 -47l-9 -17q-5 -10 -16 -17l-26 -18l-109 -4l-49 -33h-74l-18 11l-15 -11l-18 19l-88 -27h-45l-14 -14l-56 10l-69 -20l-33 6l-25 -14l-57 8l-76 -8l-29 8l-18 -41l-18 -23l-5 -14q-2 -6 -26 -33v-10
q-22 -23 -33 -45l-51 -19l-64 -43l-18 47l12 33l-2 37l35 51l35 15l20 55l-51 14l-12 -10l-25 18h-90l-14 -18l-62 4l-38 62v47h-3l-4 32l23 9l8 18l43 35h47l43 16q35 0 90 -20l45 16q34 0 78 -18l12 26l-6 25l37 198q2 19 21 76l-6 27l18 37l31 190l-35 58q13 25 51 59
l-8 47l12 4l21 47l-6 23l16 33l-23 32l13 37l-9 25v37l15 22l-19 19v51l-71 14h-19l-127 -30l-71 12l-19 -29l-39 -4l-33 59l13 25l14 4l12 23l52 43h36l19 36l14 -4q14 15 33 27h18l27 -8l61 -4l66 8l21 -14v6l12 8l37 -14l2 10l67 14l-10 4q46 26 70 29l-9 -29l15 -8
l63 16l15 -18l77 -12l19 -15l16 4l8 -22l76 22v-14l35 -4l43 14l102 -20l91 82l24 10h35l25 -16l4 -31l-37 -53h-15z" />
    <glyph glyph-name="F" unicode="F" horiz-adv-x="1202" 
d="M1249 1368l27 -6l-2 -29l31 -41l-23 8l-18 -40l-15 -3l-2 -14l-35 -20l-12 6l-29 -17l-8 -18q-29 -17 -80 -59l-12 6l-2 -8l-25 6l-12 30q-87 6 -98 17h-55l-17 -17l-12 15l-88 8l-8 -12h-15l2 26q-32 -27 -55 -37l-2 -36l2 -15l-9 -31q-3 -14 -3 -15l-1 -10l-1 -9l-1 -9
l-1 -9q0 -3 -11 -21l9 -15l-23 -86v-43l-14 -8l2 -41l22 -16l33 -2l17 -17l4 9l32 -13h56l116 -10l19 2l29 -6l14 2l29 -10l71 22l23 -41l35 -10l-3 -33l-18 -10l-8 -31l-64 -32l-6 -21l-84 -49l-10 -14l-10 10q-13 -10 -35 -21l-18 31l-23 10l-10 -6l-17 41h-32l-32 3
q-15 1 -36 12l-29 -3l-2 -14l-24 21l-80 -7l-10 -12l-19 10l-20 -16l2 -35l-13 -24l-8 -103l-32 -59l2 -37l-17 -2v-47l-59 -168l-10 -8l-25 -68l-6 -33l-55 -69l-5 -19l-36 -39l-2 -22q-9 -14 -60 -45l-43 -6l-35 -21l-75 -8l-15 53l35 25l8 31l-4 10l8 37l49 18l39 35
q28 14 60 33l4 8q47 55 61 102l19 60l12 8q29 74 29 76l-2 32q0 16 26 50l-2 22l10 19l-2 24l21 21l-2 22l-17 12l19 21l-2 16l35 25l-15 39l-20 10l-6 -18l-86 8l-19 6l-26 31l12 26l-14 43l57 58q10 -2 47 22l14 -2l31 31l4 43l17 20l-9 29l19 41l-4 10l-19 6l11 21
l-17 16l21 35l10 61l-2 15l4 12l-10 29l10 14l-43 51l-2 -24q-43 9 -72 24l-24 -17q-11 -7 -50 -18l-24 17l-17 -17l-28 -4l-2 -18l-15 -12l-32 2l-8 22q-3 6 -14 17l-28 26l9 47q27 22 63 31l10 18l54 33l8 8l63 9l2 14l19 -16l12 4q27 0 68 -10l35 -9l32 6l13 -24l22 4
l21 10l33 1q18 1 28 7l14 -8l23 6l29 -2l-5 15l19 -13l20 13l13 -5l28 2l13 -22l24 -8l-2 4l14 6l52 -4l22 12l33 -2l35 6q12 10 28 13l7 8l41 -8h41l20 -25l68 18l79 -12z" />
    <glyph glyph-name="G" unicode="G" horiz-adv-x="1268" 
d="M793 1333l24 -4l23 -8l51 4l29 -10l4 -12l4 4l10 -23h14l31 -51l-12 -25l4 -45v-47l-23 -24l13 -27l28 8l23 -4v-22l-12 -29l40 -88l-13 -13q-5 -6 -48 -24l-8 -33l4 -37l-18 -32q-44 -19 -70 -37l-8 -19l-39 13q-30 -28 -37 -52l-47 -4l-19 33l7 29l-19 41l27 65l-4 29
l8 51v51l10 82l-18 62l-11 18h-8l-28 14h-52q-65 -29 -69 -37h-9l-153 -153l-19 -43l-14 -8l-4 -25l-47 -51l-14 -70l-21 -23q-12 -14 -16 -27l-11 -38h-22v-41l-14 -10l-15 -92l-26 -23l-4 -28l8 -23l-15 -39l7 -74l-21 -18l-8 -37l14 -37l4 -47l52 -92l14 -33l51 -28h-33
v-29l41 -8l94 8l13 -4q30 14 51 33h10l23 41l75 39l19 15q8 7 51 25v11l33 8q3 15 28.5 35t45.5 20q22 42 47 62v55l84 84l30 10l76 51l27 4l33 -24l14 20l41 -20l-27 -74l-18 -4l4 -219l10 -14v-52l-14 -26l4 -47l-10 -15v-45l-49 -135l-23 -88l-14 -23v-18l-15 -29
q-31 -43 -32 -51l-5 10l-4 -14l-32 -22l-15 -29l-18 -19l-19 -41l-28 -32l-15 -29q-27 -21 -55 -55l-37 -10l4 -27q-28 -21 -45 -25l-6 -12v-18l-37 -15l-22 -33l-19 -4l-6 -20l-106 -59l-19 -19l-14 4l-37 -41l-18 4l-33 -22l-15 -43l-30 -8l-33 4l-61 -29l-27 14l-29 -37
l-22 -4l-11 9l-23 -12q-13 -7 -26 -8l-34 -3l-23 29l18 41l9 -4l14 18l10 -4q36 8 51 18l4 -6l19 10h14q7 10 46 26l38 15h19l14 15l41 14l92 47l29 27l43 18l18 15l19 10l69 59v10l60 60l24 18l8 29l62 63v25l63 98v15l21 8l35 110l-4 64l18 25q-6 84 -23 110l19 76l8 4
l-14 37l-23 14l-22 70h-19q-26 -18 -39 -43l-41 -8l-18 -23l-18 -6l-15 -19l-106 -77l-99 -52l-14 -14l-74 -29l-10 11l-63 -11l-33 19l-10 24l-23 -14l-43 37l-4 37l-22 12q-11 6 -29 31l4 26l-31 33l8 23l-18 57l33 19l-11 36l-18 9v24l29 55l-23 29l12 37l25 14l-18 27
v14l22 43l-4 37l27 64l10 14l-4 25l55 139h14l15 51l24 24q13 13 17 27l-11 23q15 13 29 37l10 4l4 -4l5 24q49 42 55 82l47 43l61 47l9 19q19 3 61 41l4 -4q57 50 70 55l59 22l10 11l23 4l29 18z" />
    <glyph glyph-name="H" unicode="H" horiz-adv-x="1677" 
d="M1309 1376q44 -16 63 -18l19 -55l-23 -43l-70 -162v-19l-28 -10l-4 -14h-15q11 -15 15 -56l-15 -4l-4 -61l-22 -27l-6 -39l-13 -4l4 -33l-10 -22v-37l-8 -10v-33l-14 -33l112 -18l8 -8l50 6q16 2 26 8l27 18l41 -6l47 25q53 14 82 29l45 -9v-73l-33 -50v-18l-29 4l-22 -8
l-29 4l-28 -14l-13 10l-20 -25l-70 -14l-41 -22h-47l-55 -15l-4 10l-33 -10l-23 -37v-143l-10 -14l15 -33l-5 -41l9 -33v-33l22 -14h47l37 -10l6 -37l-33 -27l-6 -28l-37 -52l-8 -32l-28 -23l-9 -29l-75 -45q-14 -23 -24 -31.5t-22 -17.5l-10 -8l-65 -22l4 36l24 15l9 28
l10 9l8 22l-27 25l23 106l-4 15l8 32l-8 19l22 65l-14 64l6 18l4 139l4 39l-4 9v18l-22 37v24l-43 5v-29l-60 10h-18l-57 -22v-15l-56 -10l-28 10l-4 -10l-19 6l-65 -12l-103 -39l-12 -21v-151l-14 -29l73 -28v-41l4 -19l-18 -14l-8 -41l4 -43l10 -8q-10 -27 -24 -39h-27
v-13l-13 -10q-6 -4 -26 -41h-8l-23 -24l-51 10h-29l-22 18l5 20q3 9 22 27l4 46l-9 32l9 62l-4 37l14 51l-4 47l4 4v27l14 32v19l-14 24l14 52l-24 22l-31 4l-14 -18l-15 10q-12 -11 -41 -14l-20 -19l-121 -22h-12l-15 -19l-37 19l-32 -15l-11 19l11 26l-11 11l15 65l33 15
l8 12l65 14l33 -8l10 -10l41 18l37 -4l29 4l28 -8l9 14l14 4l8 -4l19 9q5 -9 47 -15l14 25l-10 69q27 35 33 60l-13 4l19 29l-19 61l13 70l-9 73l15 19l-6 14l14 33l-8 63l-36 -2q-15 -2 -31.5 -11t-31.5 -28l-18 5l-18 -17q-11 -10 -22 -14l-30 -10l9 -41l-19 -48l-4 29
q-27 -22 -51 -47l-15 10l-36 -12l-4 -12l-33 -19v-14l-60 18l-24 27v39l18 51l47 51l37 15l25 18q12 8 49 23l10 14l41 8l10 14h23l43 33h31l10 15h41l36 19q7 3 25 28l22 2q11 2 34 16l4 19l28 4l15 18h14l27 33l51 18l47 -4q22 -30 47 -51v-47l-10 -19l-51 -8l-9 -43
l-26 -84l-21 -88v-28l-18 -19l4 -33l-14 -18l-33 -154l-19 -26l-4 -52l11 -18l36 4l45 -14l48 10l106 8h25l8 -8l65 14l11 9h36l41 -9l29 17l-8 53l24 33l-12 31l15 47l-3 45l9 32l-9 29l9 25q4 12 22 32l-20 27l24 55v33l-10 47l10 15l-10 14l29 51l8 4l6 51l14 9l9 20
l28 12l56 47h32z" />
    <glyph glyph-name="I" unicode="I" horiz-adv-x="791" 
d="M838 1391l18 -7l4 -41l43 -14v-14l-29 -19l-8 -26q-70 -25 -127 -66q-30 -36 -51 -47l-121 -59l15 -19l-29 -61q-3 -27 -18 -65l-13 -33l-39 -181l-26 -172l-15 4v-135h-10l10 -22l-4 -23l13 -158l-5 -14l19 -18l98 8l24 -9q26 -10 36 -18q-52 -75 -74 -76l-8 -18l-29 4
l-29 -41l-22 -4l-13 -17q-6 -7 -42 -30l-25 4l-51 -18l-82 -9l-154 -28l-37 -15l-28 19l-23 -8l-6 55l61 55l10 13q5 6 31 20l7 23l4 -9l45 29l61 12l23 -4l31 13q16 6 44 30v27l-14 18l8 84l-8 15l14 36l-6 56l-12 10l18 27l-6 28l11 33l-11 19q18 39 39 61l-20 27l20 51
q-3 13 -28 33l28 41l-39 20l19 31l-8 39l8 51v26l24 29q8 51 19 74l14 10l-18 51l12 33l-31 12l-61 -18l-29 -27q-14 -7 -27 -18h-18l-17 28q-8 13 -20 60l19 35q13 21 55 24v15l14 4l13 18h20q31 18 59 43l33 4q45 29 51 29h29v-6q24 -2 64 -23l36 23l136 -4l24 -4l78 65z
" />
    <glyph glyph-name="J" unicode="J" horiz-adv-x="950" 
d="M934 1329l57 -33l-6 -23q-4 -13 -12 -22l-21 -24l-18 -4v-29l-45 -8q-51 -33 -80 -47l-20 -3q-9 -1 -35 -20l-33 8l-37 -8l4 -37h-4l8 -32l-4 -43l-4 -5l8 -8l-4 -65v-33h-10l10 -33v-74l-14 -61l-4 -55l-19 -80l-43 -256l-18 -12l6 -25l-21 -27v-37h-12l-18 -51
q-10 -51 -19 -80l-20 -22l-64 -197l-24 -65l-51 -41l18 -41l-23 -33v-14l-20 -20q-8 -9 -39 -60l-20 -37l-19 -14l-17 -33q-9 -19 -16 -24l-22 -16q-14 -11 -33 -15q-11 -36 -30.5 -53t-28.5 -17h-19l-10 -18l-37 -19l-4 -29l-33 -22l-10 4q-50 -36 -65 -51h-9l-18 -27
l-18 -6l-19 -12l-17 -7q-8 -4 -34 -32l-29 -8q-20 -30 -51 -37l-4 -19l-4 4v-10l-76 -55l-27 -4l-10 22l-33 15l7 55l30 6q56 44 76 55h4l29 15l51 32l41 31l37 21l51 41l33 8q20 25 28 47l13 -4q26 35 84 65l14 33l14 8l70 74l41 62l25 47l18 18l18 45l33 57l4 23l51 117
l5 32l28 107v-29l12 43q3 8 17 23l-6 29l14 55l14 8l5 61l7 20q3 9 21 32l-10 28l6 27l-6 22l29 29l-11 29q11 45 19 59l-4 6l10 19l-18 41l18 32l-6 52l14 14l-4 45l-29 29q15 13 25 33l-14 47l-56 77v37l13 39l-31 121l-47 8l-15 -4l-36 8l-33 -4l-10 10l-39 -8
q-6 -2 -35 -24l-51 22l-23 51l23 33l24 4l45 47l25 5l59 43l33 8h84l27 -15l14 15l10 -4l74 -4q56 21 70 22l28 -14v-15l27 -18h127l26 14h37z" />
    <glyph glyph-name="K" unicode="K" horiz-adv-x="1810" 
d="M1569 1352h18l25 -23l-6 -29l32 -18h-32l-74 -55q-37 -20 -92 -51l-6 -15h-41l-23 -37l-39 -24l-8 -8q-33 -15 -47 -26t-33 -36h-18q-15 -25 -27 -31l-14 -32l-37 -15l-31 -21q-16 -11 -35 -16l-18 -36l-47 -25l-15 -33l11 -14l-51 -55l18 -27l-10 -39l6 -31
q14 -45 18 -90l-10 -4v-14l14 10l29 -55l18 -43l23 -15l4 -8l33 -22l22 -32q11 -15 39 -44l37 -19q4 -4 41 -14l6 -8l41 -14q29 -23 33 -23l135 -6l27 -4h43l-10 4h36l-4 10l43 4l4 15h48l-15 14v33l4 37l4 -5l48 56l14 -4q25 0 37 12l-11 10l11 23l32 4l15 24h12l14 -32
l-8 -29l4 -12l-10 -21l10 -12l-14 -6q-16 -24 -18 -41l-15 -15l10 -4l-10 -10l-26 -59l-7 -4v-21l-18 -18l-15 -9q-7 -4 -22 -24l-33 -4v-8l-22 -6l-19 -23l-108 -23l-53 -2l-35 9l-41 -9l-47 19l-70 -14l-88 32l-6 15l-55 -11l-41 20q-6 3 -33 32l-43 10l-9 21
q-3 10 -36 42l-25 6l-26 37v27l-29 14l-4 25l-14 8l4 10l-27 27l-6 33l-27 69l-4 17q-2 8 -20 30l-39 13l-21 -25l-5 -32q-3 -19 -12 -33l-24 -37v-45l-14 -21l10 -22l-18 -9l8 -20l-8 -49l8 -10l-8 -15l8 -26l-8 -25l-6 -78l4 -22q2 -11 20 -43l-14 -88l-10 -11v-8l-27 -14
l-29 -33q-43 -22 -55 -33l-33 19l19 37l-15 18l7 29l-29 22l14 29v22q4 37 7 52l5 29q3 14 21 46l-10 27l10 43l12 96l15 47v11l10 45l4 51l10 18q5 44 12 52l-4 14l29 125l4 51l10 10v33l9 33l-9 37l-24 14v27l33 32l4 43l-9 41l15 33v23l-15 18l-61 29
q-37 -16 -83.5 -29.5t-49.5 -13.5l-33 6l-39 -19l-96 -18l3 -22q1 -11 19 -39h29l23 -41l-41 -29v-10l-29 -27l-28 -3q-13 -1 -64 -26l-10 11l-27 -4l-20 -43l-19 22l6 29l-28 14v23l-23 10l-14 22q8 54 18 88l19 -4l28 41h8l5 15h14l13 17q5 7 44 26v12l27 6l22 23l25 4
l4 14l33 4l22 21h29l33 8l18 18l29 -4l88 15l45 18l47 8l29 10h41l65 9l41 18l10 14l33 6l-6 9l72 4l26 -45l-22 -25l-4 -22l-39 -52l6 -22q-43 -125 -43 -146l4 -14l-12 -31h-10l4 -10l-4 -22l4 -6q-6 -6 -27 -60l18 -18l-28 -76l14 -4l41 10v8l25 10l14 23l51 4v21l37 12
l59 43l29 14l28 31q5 6 27 14l11 18q4 7 41 40l106 59q11 16 25 47l73 45l23 29l84 61l14 4q27 22 37 27l19 -8z" />
    <glyph glyph-name="L" unicode="L" horiz-adv-x="1468" 
d="M795 1399q54 8 190 -37l18 -15q9 -8 29 -14l-6 -12l80 -61l27 -41l-50 -62l-90 -59l-12 -37l-6 8l-33 4l-18 -4l-17 23q-10 14 -23 22l-34 21l-19 41h-10l-8 14l-23 6q-14 4 -21 11l-21 20l-29 -15l-12 -26l-48 -62v-45l-32 -51l-33 -172l2 -25l-45 -235q-10 -50 -14 -84
l-9 -6l4 -12l-16 -19l4 -29l-4 -24l-10 -12q-4 -4 -12 -43l-11 -52l-18 -37q-8 -18 -19 -65l-38 -37l8 -26l-29 -11l8 -33l107 -8h33l32 -24l148 -8l-15 4l29 4l70 -4l32 4l23 -13l61 -10l23 15l43 -5h27l18 9l51 -9l-8 27q27 42 41 51l98 66l15 4l77 37l29 -4
q36 -35 78 -56l-14 -32q-9 -19 -19 -30l-31 -32l-43 -12q-11 -14 -40 -62l-37 -8l-11 -14h-14l-41 -29l-33 4l-18 -12l-47 8l-51 -33l-66 5l-8 -13l-19 13l-36 -9l-7 -18l-51 18h-12l-33 -18h-51l-47 -4h-51l-80 -10l-19 14l-26 -14l-47 10l-168 4l-51 8l-5 14l-18 -18
l-14 4l-19 -26h-33l-4 55l-14 4l-18 -8l-41 18l-58 -10l-41 14l-4 15h-28l-29 18l-12 66l41 4l22 55l23 7q10 3 57 36v8l61 6l31 -24q35 -4 62 -8l18 -11h10l8 -4h33l19 -4l28 31q3 25 15 76l8 8l18 76l4 88l15 4l37 153l-5 99l29 41l-18 22l18 6l14 37l-10 8l19 109
q-5 14 -15 22v23l11 6l4 96l18 33l-4 47l14 8l19 76l14 4l12 37l66 51l51 33h10l9 14l36 4l33 33l19 4l-9 11z" />
    <glyph glyph-name="M" unicode="M" horiz-adv-x="1860" 
d="M641 1354l12 -6l29 -45l23 -91l-21 9q38 -85 41 -191l23 -26l-11 -64l15 -10l10 -66l14 -14v-64l19 -28l-13 -29q7 -17 27 -45v-47l-8 -23l39 -26l18 -45l23 4q10 2 39 20h18v8l43 66h8l-4 14l74 80l18 37q9 -2 56 41l10 -4l3 13q1 5 18.5 25t22.5 26q25 31 58 38l8 33
l-12 37l4 29l19 8l-11 22q33 23 39 33l4 39l15 12l8 29h10v29l23 22q32 15 84 41q33 29 65 43l27 -47l14 10l25 -10l-11 -18l19 -80l-33 -45h-22l-15 -43l-22 -37l-6 -51l-9 -47l9 -56l-23 -26l-3 -27q-1 -12 -15 -35v-14l4 -27l-4 -18l18 -109l-8 -22l4 -47l59 -158
l113 -219l8 -45v-6l6 -23h27l18 18v-8l37 23l6 -23l23 -18l-23 -57l-47 -27l-14 -29l-74 -22l-22 -33l-47 -18l-11 4l-22 47l-10 -11l-23 5l-18 -19l-23 6l-10 13q14 19 29 47l-52 139l-18 14l-43 107l-19 76l-51 120v13l-18 61l-10 20q-4 9 -11 49l-30 187l-121 -154
l-88 -135l-10 -28l-23 -13l23 -39l-5 -36l15 -9l-23 -28q-6 -15 -39 -51v-19q-24 -28 -37 -47l-22 14l-37 -41l-23 -17q-10 -7 -24 -27.5t-18 -30.5l-29 -5q-17 28 -31 76l10 13l-10 24v74l4 33l-14 32l4 4l-14 33l-19 135l-14 33l4 37q-3 7 -5 14l-10 27q-3 7 -10.5 19
t-19.5 28l-37 -10l-14 -27v-28l-56 -181l-28 -39l-33 -110v-10l-33 -56l21 -26l-16 -31q-9 -16 -23 -27l-4 -32l-33 -19l6 -12l-10 -10l4 -37l-33 -37l6 -25q-20 -19 -24 -32l-23 -13l-22 -47l-62 -29l-37 -22l-14 -29l-59 -26l-25 8l-22 -4l-23 14l12 14l51 9l-12 61l12 4
l11 19l-15 14l4 37q66 25 70 47q48 26 90 37l13 47l14 26l8 46q2 10 9 20l20 29l-8 18l14 55l18 15q2 23 23 69l-10 19l20 33v14l8 12l-4 19l14 28l31 140l15 10l10 33l-15 8l15 37l-4 61l4 14l-4 41l18 33l-29 55l15 43l-15 27q11 41 19 55l-23 52q-31 -10 -69 -41l-11 4
l-59 -37l-33 -27l-55 -33l-43 -6l-33 76l15 4l-5 15q35 17 56 40h10q11 11 74 52v10h33l83 51h13l10 19l4 -11l10 15h33l103 61q26 23 33 28l12 9q6 4 36 8z" />
    <glyph glyph-name="N" unicode="N" horiz-adv-x="1649" 
d="M1602 1516l8 -5h24l92 -65l66 -70l-111 -80l-14 -18l-76 -18l-37 4l-32 24h-19l-84 -172l-37 -43l-4 -45l-32 -61l-15 -47l-18 -27l-8 -66l-13 -35q-2 -6 -26 -30v-23l-13 -43l9 -26q-15 -47 -27 -66l4 -37l-14 -47l10 -8v-25l18 -18l-10 -33l10 -74h-6l-4 -55
q0 -16 43 -65l-10 -15l18 -22l11 -94l-25 -23v-27l-14 -32h-13l-43 -62l-36 4l-33 -39l-60 -43l-43 78v80l-14 70l6 33l-57 83l14 23l-14 27l10 10l-37 14l-14 -10q-5 18 -37 53h-14l-23 78l-43 39l-22 45q-17 29 -19 47l-55 51l-14 29l4 23l-15 22l-14 6l-12 31h-11l-14 39
l-29 38q-6 7 -12 36l-24 -5l-27 -57v-18q-7 -41 -23 -88l-20 -11l10 -32l23 -15l-9 -45v-51l-47 -57l4 -41l-12 -29l12 -31l-8 -10l4 -29l-18 -41v-28l-18 -23l-15 -61v-19l-8 -8l-47 -145l-14 -27l-37 -18l4 -11l-74 -32l-37 10l-10 37l25 28l-11 13h-28v10l32 29l-8 37
l33 8l45 61l14 55v23l23 25v41l61 251l-4 15v41l27 41l-8 28l22 37l4 25l11 37l-5 18l15 55l-39 99q9 14 29 26l-15 52l10 32l19 4l4 29h-84l-84 -29l-18 11l-45 -93l-117 -108l-62 -27l-26 51v37l22 9l-4 20l-14 4v23l22 18v19l37 -13l10 13l-14 14q4 10 43 55l51 14l4 33
l23 -4l19 21q6 6 21 12l40 14l4 8l28 3q17 2 30 12t62 18l48 8l112 64l27 29l57 22l50 6l26 -53q-29 -51 -24 -74l30 -162l15 -38v-27h26l4 -41l43 -37l-4 -27l9 -10l79 -135l84 -166l23 -24v-13l18 -20l29 -4l4 24l14 4v15l37 121l3 29q1 12 20 63l39 28v23l22 37v28
q22 28 33 74q7 3 17 16l10 13l57 153q10 22 20 29l13 53l18 15l23 43l14 41l18 22q9 10 19 39l18 4l52 97l22 20h10q12 18 19 18z" />
    <glyph glyph-name="O" unicode="O" horiz-adv-x="1016" 
d="M618 1354l25 -6q8 -9 30.5 -36t24.5 -79l33 -43l-4 -27l41 -57l-4 -23l14 -28l-10 -37l29 -27l12 -47h43l42 -20q9 -4 18 -12l24 -23l-10 -62l14 -14l-4 -37l8 -28l-22 -37l8 -33l-30 -34q-7 -7 -11 -26l37 -36l-37 -19l-29 -47l-35 -9q-20 -5 -34 -14l-37 -24l10 -14
q-38 -58 -37 -64l-18 -10l-15 -47l-10 -4l-18 -33q-26 -21 -56 -59l4 -5l-28 -38l-19 6l11 -15l-74 -75l-103 -88h-18l-25 -27q-20 -7 -45 -25l-24 15l-8 -4l-39 12q-19 6 -45 24q-22 22 -33 23l-14 31l-19 -2l-4 18l-25 10l7 13l18 10l-10 10l6 12l-14 29l-11 16
q-4 7 -14 58h-12l4 28l-4 29l8 19l-8 4l12 73l-12 47l12 9l-4 14l4 47l-8 29l18 30v48l23 94h-4l10 22l-6 9l10 6l-4 18l39 96l2 -4v19l4 28l10 4v19l4 10l19 4l-8 4l12 11l-4 36l14 11l14 37h4l7 22q4 10 22 29v18l19 4v10l55 60l8 22l25 11l4 22q32 28 37 29q10 26 47 41
l69 28h52zM479 1176l-41 -27l-32 -51l-26 -25q-11 -12 -36 -55l-18 -47l-18 -35q-9 -16 -15 -53l-12 -15v-41l-25 -22l-8 -33v-18l-25 -25v-8l-37 -88l7 -33l-21 -47l10 -8l-10 -33l10 -14l-14 -43l-14 -74l18 -8l-31 -19l13 -28h10l-4 -37v-51q20 -15 26 -29l-4 -14
q16 -34 23 -60l17 -10q7 -4 34 -37l43 10l14 -24l37 18l4 10l23 4l10 33h4l10 19h33q30 35 37 55l18 6l9 27l32 61l29 15l4 22l43 18l-20 19v22q15 25 20 48l-40 12q-7 2 -29 24l-43 -8l22 23l39 18l18 15q22 12 29.5 24.5t11.5 30.5l15 10l-15 18v29l-4 31l4 10l-18 23
l4 14l18 10l7 13h-11l-8 47l4 24l-24 8l-4 33l10 8q-4 31 -25 76h11l-23 27l4 14q-25 46 -29 70l-14 14v37l-8 18l-10 6z" />
    <glyph glyph-name="P" unicode="P" horiz-adv-x="1493" 
d="M498 1446l20 -14l203 -19l6 -4l199 -29l14 -32l23 -15l38 21h9l18 8l19 -8h32l15 -21l10 15l45 -5l14 -14q67 -10 84 -41l78 -10l-4 -14l14 -13h19l19 -11q9 -5 46 -13l15 -19l36 -4l23 -61l-19 -39q-4 -6 -8 -43l13 -25l-41 -73q-9 -16 -23 -26t-49 -28l-27 -12
l-106 -74l-150 -80l-25 -1l-21 -2q-9 -1 -36 -15l-18 4l-14 -16q-6 -6 -51 -29l-58 -10l-45 -33l-209 -59l-10 8l-55 -23h-19l-24 -32v-52l-9 -47v-55l-28 -23l10 -10l4 -18l-8 -8l-10 -62l10 -8l-25 -29l19 -18l-15 -19l-4 -51l-18 -18l4 -25l-27 -59v-47l-51 -107l-19 -28
q-9 -13 -24 -52l-18 -8v-18l-135 -135l-78 -41h-33l-4 -11h-37l-25 19q4 35 15 51q-14 24 -33 37l18 28l62 52l27 8h36l25 -37q70 53 78 80l20 8l-6 14l19 33l10 4l4 19l14 10l4 14v41l29 19l-10 10l24 33v12l13 43l6 34q4 17 18 44l-10 10l14 10l-14 13l18 6l-8 12l23 94
v33l14 37l-18 14l18 4l19 47l-41 64l-11 47v14l11 23l51 37q9 23 12 24l-8 19l4 22l4 4v47l-27 19l9 10l-4 41l14 25l-10 12h-19l15 39l10 4l-15 8l-10 43l-18 4l14 19l-14 18v25l-15 8q7 13 11 33l-23 14l-51 -37v-14l-39 -29l-27 -27l-51 -24l-69 -66l-19 21v12l-18 14
l3 18q1 7 27 58l43 37l19 23l74 41l10 20h18q24 21 37 23l14 18q56 27 60 33v14l-16 28q-7 13 -39 46l-9 41l9 18l55 10q41 54 84 80zM772 1237l-37 -18l-51 4l-33 -4l-33 4l-22 -84l10 -19l-6 -33l6 -18l-18 -29l4 -92l-14 -55l10 -25l-6 -37l6 -18l-21 -37v-65
q55 -8 84 -23l47 19h33l19 14l98 22l297 125l15 14q7 7 40 19v6l33 13l61 51l23 43q-34 59 -74 88h-10l-98 74l-64 10l-18 18l-52 4l-38 -4l-9 19l-28 10l-56 -25l-36 15l-29 -11z" />
    <glyph glyph-name="Q" unicode="Q" horiz-adv-x="1702" 
d="M801 1413l24 -19q4 -3 9 -14l14 -32v-41q17 -39 33 -56v-55q14 -55 18 -98l33 -37l8 -90l10 -13l8 -57l-4 -25q-4 -25 -11 -39l-7 -14l-55 -37l18 -18l78 18l51 -18l10 -72l27 -12l-12 -10l-52 -144l-18 -28v-15l-39 -51l6 -8l-24 -14q-14 -21 -41 -41v-15l-33 -43
l-41 -32q-16 -26 -43 -50v-14l32 -18q19 -11 28 -23l24 -35l47 -4q15 -13 23 -37h36l19 -28l65 -27l29 8l14 -18l23 10l33 -10l18 10l19 -10v10h88l22 14h29l14 -28l27 47l24 8h33l-10 4l22 19h25l8 20l5 43q1 8 14 27l24 4l33 -4v18q21 24 23 37q16 4 47 37l26 -10l70 -115
l-8 -14l-121 -107q-36 -5 -51 -18l-19 10q-74 -60 -153 -68l-121 -12l-33 4l-22 -14l-23 -7q-10 -3 -29 -22l-37 14l-14 -4v-10l-37 -4l-24 18l-15 -22l-37 14h-26v13l-47 -5l-19 19h-28l-4 24l-56 23l13 -47h-56l-45 33h-28l-11 14l-35 10q-16 4 -57 29h-47l-51 -29l-27 13
l-76 -52l-41 -8l-22 19l-10 32l-56 47l-28 -6l10 25l-102 106l-11 19l29 14l-47 33v78l-8 10v27l12 14l-4 33l18 98q8 61 15 70l-4 22l14 23l18 43q17 31 23 51l22 14v56l15 22l4 25l14 18l15 36q9 22 36 48l47 45q9 16 19 51h10l-6 29l18 14l7 19l-15 8l66 37l-10 6l32 22
l33 29l27 45l24 15l60 51l18 28l47 19l88 51l25 -25l12 15zM629 1194l-80 -31l-12 -43l-39 -22l-92 -121l-5 -10l-51 -66l-10 -18q-4 -9 -33 -27q-10 -35 -37 -84l6 -29l-38 -73l6 -23l-19 -14l8 -15l-22 -10v-55l-25 -18l-4 -19v-37q-5 -60 -14 -80l-23 -14l15 -45l14 -10
l-24 -41l120 -131l-4 -4l29 -43l12 14l6 18l74 70h14l144 39h33l4 -14l94 18l8 23l37 14v22l29 19l51 94l14 4l27 43l47 121q-46 9 -103 12l-22 70l-62 6l-26 41v29l-10 14l10 18l-43 9l29 10l8 45l-4 29l18 14l-8 49l-10 170l-15 70l-8 12h-14z" />
    <glyph glyph-name="R" unicode="R" horiz-adv-x="1411" 
d="M670 1417l51 -4l-10 -33l37 -18l14 14l10 -14l59 -14l19 18l14 -23l33 -14h23l14 -8l14 12l23 -12l102 -18l10 -7q36 0 88 7q26 -15 74 -25l6 -23l-10 -28l19 -37l-93 -117l-32 -12l-125 -103l-43 -28l-136 -80l-18 -19l-18 11l-47 -29l-19 -37l6 -65l37 -148l117 -172
l49 -57l-12 -27l41 -24l26 -19q6 -4 15 -5l24 -3l37 -47h23l32 -8v12l25 -8h18l33 -19l41 -10l62 -51h12l10 -37l14 -8v-19l-57 -43l-45 -8l-29 8v5l-55 14l-70 33l-47 41l-31 16q-16 8 -38 31h-29l-27 32l-22 5v10l-39 14l-12 -6q-37 32 -43 43l-41 4l-6 33l-23 18l-47 4
l-23 29l-28 10v13h43q-45 9 -76 24l-12 27l-15 6l-4 31l-33 32l37 66l-14 14l-41 4l-10 37l-33 19l-4 -9l-29 -10l-4 -33l-22 -18v-27l-15 -32l23 -29l-15 -4q-7 -54 -22 -88l4 -19l-12 -14l4 -29h-10l6 -45l-15 -75v-74l-10 -15l-8 -59l-10 -47l-4 -37l-29 -51l-3 -20
q-1 -9 -20 -35l5 -7l-27 -63l-21 -14l-21 -45q-5 -11 -15 -19l-27 -24v-15l-29 -4l4 -24l-12 -37l-76 -56l-51 9l-14 14l6 10h-10l10 23l-29 22l4 43l-12 8l8 23q4 10 29 35l-6 12q23 41 65 70l56 -13h24l-4 -14l19 19v22l22 10v27l8 10l6 -4v45h15l8 25l-14 22l18 29l10 74
h8v14l15 8l-15 39l21 27l12 4l-12 57l8 -6l10 39l-6 12l12 48q3 10 21 32l-8 37h12l-8 33h4l43 204l27 19l-5 29l15 45l-4 18l4 29l18 10l-4 31l12 14l-4 37l11 29l-19 22l23 14v15l-33 18l-8 23v6l-15 8l19 25l-33 -6l-23 -26q-14 -15 -26 -23l-35 -21h-37l-10 24l-23 9
l37 69l43 29q4 15 13 27l14 6q8 12 33 37l-23 32l13 28q6 13 10 60l-8 15l12 14l14 4l8 11q2 4 54 34l4 10q45 24 102 41l23 -12l24 8l12 -8l25 27h27l6 14zM860 1219l-33 -15v-22l-36 -15l-140 4l-43 -8l-18 -24l4 -41l-45 -103l-37 -10v-18l23 -19l-11 -33l11 -4l-33 -37
v-24l-23 -45l-10 -62l37 11l10 14l14 4l15 41l21 7q9 3 28 22l33 4l6 22l45 21l24 -25l140 88l37 19l28 24l18 6q9 3 23 17l19 -4l10 26l45 25l25 27l18 13q8 7 22 30q0 11 -26 41l-178 14l-23 14v15z" />
    <glyph glyph-name="S" unicode="S" horiz-adv-x="1397" 
d="M1053 1475l24 -19l37 4l41 -47v-18l25 -23l14 -47l-6 -29h6l-14 -157l-25 -27l-41 -20l-47 -60l-41 -10l-37 -37l-51 25l-14 37l22 26l-14 33l24 47q-6 42 -14 47l-51 -6l-37 14l-61 -14l6 -23l-43 -36h-19l-194 -121l-33 -33l-25 -4l-8 -19l-51 -14l4 -10l-37 -14
l-84 -64l-14 -14l20 -13q9 -6 27 -34l23 14l14 -18l37 14l28 -14l52 4l161 -4l15 -19h43l33 -24l59 20h22l21 -14h27l18 -15h29l14 -14l16 -3q7 -1 29 -20h18q17 10 39 15l27 -25l14 -26l80 -52l78 -69l-18 -33l32 -29l-22 -69l-6 -66l-21 -34q-10 -17 -24 -58l-43 -23
l-9 -24l-172 -117l-32 6l-4 -18l-187 -62l-28 -22h-56l-14 -14h-29l-12 -15l-29 10l-80 -28l-4 4l-37 -4l-65 -15l-111 11l-51 -15l-65 15l-13 1l-13 1l-11 1q-4 1 -19.5 11t-27.5 18l-37 52l4 69l18 4l19 19l28 14q17 21 47 41h107v-33l-4 -12l14 -14l-33 -31
q-6 -6 -18 -35l8 -18l51 -23l15 23l37 8l51 -12l61 -6l37 18h33l45 10l18 10h37l25 5l86 34l28 6l22 13q9 6 56 14l15 14l14 -4l84 47l22 46l43 12l-2 26l17 23l-8 8l22 57l-4 23l12 33l-24 47l10 37l-25 55l-24 10q-14 31 -33 47l-51 -10l-16 37q-3 6 -25 25q-23 4 -51 18
l-33 -33l-14 15l-52 12l-28 29l-15 -15l-26 10l-19 -18l-43 18l-18 -28l-45 22l-6 -22h-37l-8 14l-43 8l-37 -18l-44 5q-7 1 -36 19l-23 -10l-18 10l-4 -18l-57 -6l-5 10l-22 -4l-37 33l-10 25q-4 12 -23 30q24 19 41 37h10l19 33h18l23 26l51 33l51 47l29 19l37 14l33 33
l28 14l31 27l47 28l43 47l49 27q12 12 33 19l6 14l60 43h18l25 31q31 16 51 32l4 15l22 10l4 8q46 34 76 62h8v8h15l4 14l43 14z" />
    <glyph glyph-name="T" unicode="T" horiz-adv-x="1227" 
d="M1341 1386l70 41l41 7l-4 -62l-39 -51l-66 -33l-12 -26l-65 -29l-11 -19l-53 -20l-72 -8l-32 -8l-23 18l-28 -10l10 33l-47 6l-15 -6l-26 10l-29 -10l-18 10l-29 -10q-9 -27 -29 -64l-18 -33l-8 -61l-62 -135l-4 -15l-21 -29q-12 -16 -12 -48v-48l-14 -36l-23 -37
l-18 -70l14 -29l-14 -65l-10 -19l6 -22l-14 -14l8 -9l-8 -47l4 -14l-15 -43l-2 -43l-22 -64l-13 -77l-61 -131v-15l14 -22l-28 -25q-4 -4 -37 -12v-4l-55 -43l-29 4l-8 24l-43 -6l-33 21l24 59l13 4l47 76q8 36 33 51l4 51l12 66l25 59l26 74l-16 57l10 52l19 59
q6 55 16.5 78.5t21.5 34.5l-20 22l14 23l-8 18q14 42 33 62v22l22 10l-4 33l-10 -10l14 33l-10 18l21 66l-21 18v8l21 15v24l-15 12l15 25l30 96l-30 -4l-150 -33l-51 7l-18 -19l-44 -10l7 -37l-62 -43l-33 -33l-14 6l-18 -16q-9 -8 -19 -35l-51 -14l-8 -19l-14 4l-19 33
l-55 47l-25 70l6 18h27q13 20 66 60l14 39l51 12v14l33 4l8 21l70 4l28 4l23 -8l10 18l51 -6l19 6h32l-6 4l29 15l33 -6h47l18 20l19 -6l65 6l4 12h19l18 -12h23l6 -6l51 10l59 19l15 -15l47 4l37 -8l59 -18l-4 8l37 33l70 -8q64 18 94 18l41 -6z" />
    <glyph glyph-name="U" unicode="U" horiz-adv-x="1530" 
d="M623 1212l36 -4l15 -18l33 -8l8 -52l-15 -10l-12 -28l-80 -60l-14 -22l-139 -336l-15 -19l6 -22l-14 -10v-41l-18 -52q-17 -32 -29 -75l4 -4l-14 -27l-23 -160l4 -41l-10 -61l16 -8l27 4l10 10l41 14l29 31l37 20q27 22 37 23l28 33l19 4l33 37h8l57 55l23 18l15 20
q7 9 32 23l33 66h12q18 35 37 45l10 25l37 8l37 47h14l29 80l32 -6l19 18l-6 19l10 20l37 166l14 -4l14 33l48 41l49 28l20 -4l16 20q3 3 5 4l30 17h13l6 14l26 4h15l18 -40l-28 -25l20 -23l-51 -213l-25 -38l-26 -265l4 -102l14 -47l-14 -41l37 -74l28 -18l19 26h18l19 -22
l28 -4v-43l-33 -23l-108 -117l-78 -59q-24 18 -37 41h-43l-65 143l20 33l-33 33l-14 164l4 41v55l10 29l-14 18l4 33l-4 18l-154 -176l-32 -29l-4 -14l-66 -59l-18 -6l-19 -37l-14 -4q-15 -20 -41 -37l-33 -10l-18 -19l-84 -70h-33l-14 -32q-55 -30 -84 -37l-15 -19l-22 5
l-38 -19q-17 -8 -69 -18l-18 -19l-43 -4l-12 14l4 13l-15 10l19 66l28 77l-10 25l29 88l-25 37l25 47v41l14 33l13 4l10 51l18 18v15l-14 4l-4 47l14 14v15l23 26v117l28 -33l3 34q1 17 12 36l-15 24l19 5l14 47l-29 4l11 37l22 -23v64l-14 14l-55 -8l-70 -33l-19 -14
l-43 22l-6 47l54 33l51 37l102 47l8 8l70 19l20 32l5 -4l32 19v10l52 14l-11 4l37 23z" />
    <glyph glyph-name="V" unicode="V" horiz-adv-x="1374" 
d="M1268 1380q22 -19 51 -22l12 14h43l-33 -61q3 -46 15 -103l-15 -37l-18 -14l14 -27l-88 -182l-24 -35q-4 -6 -33 -24l-55 -121q-29 -60 -99 -109l-8 -36l-21 -17q-12 -10 -17 -22l-13 -31l-16 -6q-7 -2 -35 -35h-19l-98 -121l-8 -24l-21 -14q-10 -6 -30 -38.5t-33 -58.5
l-17 -10q-8 -4 -26 -33v-37l29 -33l-41 -41l-33 -4l-19 -18l-57 -39l-8 -23l-47 -28v-13l-33 -10l-27 19l-14 32l14 88l19 25l-10 19q-23 18 -26 24l-8 13q-3 8 -7 59l12 18l-27 19v47l-10 69l25 4l4 39l-15 64v20l-14 4v88l-27 29l4 23q5 8 11 37l-21 32q7 21 10 56l-32 14
l-15 29h-18l4 30v25l-12 4l8 14l-14 37l10 33l-10 14l24 37l-24 8l6 33l-15 14h-32l-4 -47l-29 -8h-23l-14 -18l-70 -10l-43 6l-12 18l-14 4l8 19l-8 36l32 37h9l32 25l95 45l18 25l55 8l9 14l57 19l92 47l19 18l36 4q37 -29 43 -41q-4 -23 -24 -55l10 -47l-10 -23l10 -61
l-10 -19l6 -84l-25 -36l19 -23l24 -94l-10 -4l-4 -43l23 -23v-47l6 -4l-6 -37l47 -55l-11 -33l43 -74l19 -71l-4 -64l8 -24h14l29 24l4 12l23 -4l24 19l12 28l29 33q23 37 33 47l18 13l56 75l37 19l51 96l32 29l19 37l47 55v14h29l12 15l10 98l15 33q20 20 32 88h9
q6 37 10 41l-10 28l-19 3q-8 1 -47 30l-8 37l18 33l15 4l41 51l18 4l14 25l29 8z" />
    <glyph glyph-name="W" unicode="W" horiz-adv-x="2310" 
d="M639 1245q41 -19 51 -33l4 -30l43 -11q-8 -9 -61 -51l-19 -47v-26l7 -19l-33 -61l4 -66l-14 -33l-15 -92l15 -28l-5 -37l5 -9l-15 -10l47 -172l-10 -8l66 -117l28 15l3 18q1 8 10.5 20.5t42.5 38.5q0 10 28 52l4 -4l15 14l4 18l18 15l-4 32q15 2 55 23l11 22h8
q17 30 47 52l4 24q10 7 47 56l-4 4l12 10v37l15 47l-19 37l4 37l-12 22q2 8 23 29h14l27 14v27l24 14l19 -8q14 24 26 37l47 14l37 -20l25 -78l51 -33l8 -107l4 -18l-4 -25l14 -12l9 -61l24 -74l4 -25l88 -176l56 -98l39 -12l4 -51l22 -11h10l23 -22q10 -10 33 -51l28 4
l13 28l20 13l13 19q6 9 38 38l9 4l21 27q11 14 34 28l6 19l27 24q17 38 27 46.5t34 17.5l8 24l6 -4l11 42q2 7 20 32h10l15 14l8 41l33 62l14 12l-10 14l20 37v62h8l11 14h8l-8 70l-11 55h-69l-19 37l15 18l8 19l16 19q8 9 17 32l18 10v19l25 14l12 -10l6 32q50 25 64 37
l32 -14l25 18h14l19 -36l-15 -23l15 -41v-145l-15 -15l4 -22l-4 -37l-10 -4l-18 -80l-17 -26q-10 -15 -13 -26l-7 -32v-18l-37 -70l-74 -88l4 -14l-32 -56l-140 -153l-18 -11l-29 -36l-213 -238l-57 -23l-23 -18l-22 6l-37 -43l-18 8l-48 140v24l-12 10q-6 5 -20 37h-4
l-66 82v29l-43 33q-21 21 -45 41l-10 47l-23 18l15 23l-33 39l-66 176l4 8l-4 29l-41 -5l-20 -61l-41 -37l4 -8l-129 -150l-107 -157l-10 -23q-4 -10 -18.5 -24.5t-36.5 -28.5l-6 -31l-27 -24l-4 -19l-18 -8v-25l-39 -36h-56l-8 -29l-29 -18q-21 -27 -40 -41l-33 30
q-6 6 -15 29l23 47q4 19 25 70l-11 24l4 4v27l11 10l-15 51l11 29l-21 41l6 14l-14 9v28l-37 201v31l-43 65v33l29 61v5l-15 14l19 96q12 46 18 57l-26 60l-136 -27l-47 -20h-26l-33 -19l-47 -41l-62 4l-26 66l18 4l23 30q14 17 21 21t30 19h18q13 16 66 43l4 14l51 4l35 19
h22l9 -5q2 8 18 19l10 -25l78 29v4l33 -4l18 4q7 6 47 37l41 -4q4 14 29 43z" />
    <glyph glyph-name="X" unicode="X" horiz-adv-x="1321" 
d="M1153 1427l37 -14h37l33 -47v-27l-23 -51l8 -18l-18 -43l-33 -19v-26l-92 -121l-27 -43q-6 -8 -28 -23l-25 4l-14 -22l10 -10q-15 -14 -40 -47l-20 -27l-127 -121l-18 -29l-16 -5q-6 -3 -39 -36l8 -61l113 -115l28 -43l152 -135l43 -96l28 -14l3 -20q2 -9 16 -28l-47 -51
v-18l-80 -60l-64 -38l-71 108l-37 45l-4 57l-19 27l-92 74l-20 28l-21 23q-10 10 -24 39l-33 18l-14 37l-41 15l-76 -70l-19 -6q-24 -27 -32 -51h-37l-4 -41l-29 -23l-166 -211l-6 -45l14 -33l-41 -37l-32 -14l-113 -98l-37 43v45l-4 10l41 60l25 28q28 53 69 66h-10
q9 12 16.5 23.5t14.5 24t23 28.5t23 29l21 34l51 14l15 45l33 19l4 28l41 11v26l36 47l15 5l10 28l14 8l23 48l22 14l33 55l-8 47l-43 45q-17 39 -27 43l4 19l-18 33l4 40q-19 36 -33 52v43l-14 8l6 18l-14 58h-25v8l-8 -14h-33l-18 14l-4 -8l-6 12l-37 -37h-33
q-48 -17 -74 -22l-18 -33l-29 -10l-33 20l-8 41l23 14l24 29q4 4 13 31l51 24v8l23 3q10 2 46 22v8l29 -4l-4 8h18l19 11l8 -11l10 15l41 10q29 27 70 59l33 15h24l-10 28l14 19l19 -10l4 -9h18l19 13h39l26 -60l6 -61l9 -19l-5 -18l15 -59l-6 -15l43 -153l-6 -41l13 -29
q7 -14 30 -37l22 4l10 23l9 -4l6 18l26 10l6 33q15 9 23 18l47 56l41 33l-4 8l22 33l50 45q14 29 20 30l14 60v28l23 23l-4 33l-4 4l-15 -4l-32 14l-15 -10l-55 47v29l47 40l23 11q55 36 92 51l-4 -10l17 13q7 5 58 15l9 -6l4 10h10z" />
    <glyph glyph-name="Y" unicode="Y" horiz-adv-x="1501" 
d="M584 1362l25 -12q16 -7 22 -15l18 -24l-14 -8l-14 -58l-33 -55l10 -8l-29 -29v-18l-14 -19v-33l-27 -36l-28 -117l-19 -19v-47l-14 -8l-33 -117l-6 -10l-12 -102l14 -9l-4 -36l14 -15l27 15l65 59l11 18l41 19l80 84l24 19q12 10 27 32q27 5 51 18l18 52l19 6l12 12
q6 6 29 14l4 19l43 51l27 14v5l17 10q7 4 30 41l24 -8l19 22l4 37q6 2 26 33l9 -23v66l16 37l4 -11l19 41q4 11 28 43l-4 4l74 47l67 29q11 4 58 8l37 -43l-27 -30l18 -80l41 -23l-37 -22l5 -15l-34 -30q-7 -7 -11 -16.5t-11 -28.5l4 -82l-18 -66q-5 -28 -8 -61l18 -37
l-4 -139l-57 -132l6 -30h18l-32 -25q32 -47 32 -69l-10 -56l-18 -18v-29q-30 -41 -47 -153l18 -23l-18 -22l6 -52l-15 -18l4 -29l-8 -14v-47l-33 -64h5l-5 -51l-24 -25l-41 -120l-29 -125l-18 -8v-25l-27 -47l-28 -27l-15 -43l-88 -96l-37 -14l-14 -37l-29 -19l-45 -18
l-65 -57l-33 -5v-14l-23 -14l-65 -60l-107 -47l-24 29l13 20q5 9 11 54l88 47l70 51l27 29l14 4v4l18 4l62 43q4 9 22 23v10q30 28 56 45l14 37l47 51v14q20 10 55 51l-14 33l43 51l14 37v25l13 18q16 14 32 33q-7 20 -22 31l18 43l-8 33q0 11 10.5 38.5t26.5 38.5l8 47
l-4 15l23 33l-19 14l29 45l-4 43l8 14l10 74l-10 66h14v55l19 4l-15 74l-14 10l10 33l-14 47l18 37l-4 18l4 8l-8 15v18l4 10l-4 15l-14 139l-19 4v47l-6 64q-8 21 -8 28l4 29h-22l-135 -150l-41 -18l-95 -102l-4 -11l-116 -106l-23 -15l-66 -63l-104 -70l-53 -39l-88 -26
l-43 -33l-16 20q-7 9 -17 46q25 36 42 86t23 53v51l-8 14q23 42 23 52v36l-4 33q20 37 26 41l25 121v37l18 29l-4 22l19 47l-15 41l9 10l-9 37h-28l-15 -14l-32 -4l-13 -33l-24 -4l-23 -37l-55 -18l-43 69l10 41q19 13 33 37l41 14l18 33l238 107l33 18h22z" />
    <glyph glyph-name="Z" unicode="Z" horiz-adv-x="1415" 
d="M1305 1493l22 -10l19 10l18 -25v-88l-12 -37q-27 -12 -66 -36h-24l-13 -29l-219 -256l-10 -4l-31 -47l-131 -133l-18 -11l-62 -84l-59 -36l-62 -84l-32 -23l-26 -31q-5 -6 -30 -16q-6 -34 -26 -59v-33l-25 -19v-28l-14 -29l-60 -27l-22 -25q-10 -11 -51 -40l4 -19l28 -18
l5 -18h22l23 -15q29 -34 32 -33l7 -36l22 8l66 -4v-33l45 -8l10 -19l37 -6l10 10l106 -10l23 -12l29 18l22 -10l80 14l31 12q16 7 24 17h23l33 26q6 5 32 11l19 65l24 31h13l14 15l25 6q12 4 26 18l25 6q12 2 37 21l8 -4l33 18l37 -61l-9 -13v-37q-37 -22 -43 -32l-45 -15
l-18 -28l-33 -15l-18 -26l-242 -121l-29 -19l-69 -18h-19l-43 -14l-45 14l-14 -10l-74 -10l-29 14l-36 -4l-33 14l-66 4l-14 10l-55 5l-29 22l-51 6l-172 88l-13 23l-14 -4l-10 26h-19l-41 29l-4 23l-57 10l-15 25q-7 12 -18 59l11 22l65 51h45l14 15q7 8 15 13l20 12
q13 8 28 9l44 3l29 -41l65 30l19 39l8 23l43 70l14 4l60 43l43 41l32 4q4 13 13 32l47 15v28l32 9l23 -4l18 4l-18 37l25 -5l12 52l29 28l22 27l33 24l18 37l51 37l48 74l32 33l23 18l47 51l-4 47q13 14 33 62q-28 19 -33 37l-37 -19q-23 25 -25 33l-92 4l-37 19
q-17 -3 -43 -19l-26 15l-62 -7l-51 -18l-22 -51l8 -45l-19 -39v-45l-22 -51l-43 -19l-8 -24h-29l-59 -41l-25 18h-18l-27 41l27 39l-5 22l-4 70l15 4l8 47l-14 4l10 37l-15 33l19 29v18l17 22q7 11 38 29l10 -4v12l19 -4l18 19l33 6l37 25l61 6l19 -13l18 13l74 14l4 -18
l10 4l144 6l14 -6h47q31 12 47 14l23 -8l73 4l66 10h10l8 -24l15 -9l-4 9l92 36z" />
    <glyph glyph-name="bracketleft" unicode="[" horiz-adv-x="1110" 
d="M922 1489l34 -28q7 -5 17 -29l-10 -13l24 -24l-33 -9v-4l-43 -14q-6 -10 -10 -10q-6 0 -12 18q-6 4 -33 15l-14 -15v6q-25 -28 -31 -51q4 -4 4 -10q0 -9 -10 -14l10 -4l-18 -5v-10q-13 -3 -13 -12q0 -4 2 -6q-26 -37 -34 -62l6 -14l-15 -12l-10 -60l-33 -57l-14 -70h-10
q-8 0 -8 -20q0 -31 -19 -55l8 -13q-19 -16 -22 -39q10 -10 14 -18l-14 -19l-19 -4l5 -47l-9 -18q-16 -33 -16 -68q0 -17 2 -24h-4l-10 -47l-11 -5l7 -32l-11 4q18 -36 15 -51l-33 -129l-19 -88l-14 -43l-5 -40q-3 -20 -17 -53l8 -28l-25 -68l8 -29l-22 11v-33l-4 -14h-10
l-17 -9v-24l21 4v-19l51 -8q18 0 55 19q14 11 70 14v-6l33 -23v-22q-24 -47 -70 -47h-111l-37 -4q-21 -6 -26 -6q-4 0 -25 20l-24 -6l-23 6q-5 -10 -14 -10q-8 0 -19 10q0 -18 -18 -20l-8 6q-32 -6 -43 -6q-13 0 -27 23.5t-14 27.5v20l22 23q3 21 15 51q7 -3 32 51
q25 0 29 8l35 74q27 16 27 47l6 -6q24 6 24 20q0 12 -8 23.5t-8 22.5q14 2 14 22q0 17 -4 25v-11q8 17 8 35q0 19 -4 27l19 14v27h6v24l8 -6q14 17 14 37q0 14 -10 33l14 10l-4 14q13 25 13 37v33q12 2 20 33l23 84l18 125l14 18l15 135q-21 65 -21 88q0 38 10 60l9 20
q5 9 12.5 26.5t18.5 50t16 40.5l-6 4v4l10 19v51q8 0 8 4q0 6 -4 10q21 43 45 43q10 0 16 -2l5 6q49 18 77 51l62 9h98l12 10h11z" />
    <glyph glyph-name="backslash" unicode="\" horiz-adv-x="987" 
d="M805 -88l-8 29h-6q-32 0 -41 41h-5l-2 14q-43 43 -43 92v10l-12 -2l-6 10l2 15q0 9 -8 14l-8 -4l-11 10q-4 4 -18 45h4l-4 4h-6l-6 19q-19 23 -30 61t-19.5 48.5t-18.5 39.5l-16 11l-2 41l-13 8l-6 24l-14 15q-5 48 -21 73l-6 -4l-8 52h-18l6 26l-4 -4l-4 14
q-21 24 -21 35v2q4 9 6 15l-8 8l-24 61l-9 47l-22 56l-13 69q-16 10 -16 23l4 14q-13 13 -31 70l-22 73l2 7h-4l-27 73l-15 29q-7 12 -22 64l-6 -5l-16 37h-4q-2 22 -25 37q-5 11 -9.5 24.5t-9 29.5t-7 28t-17.5 31l2 4l-10 33l21 2q10 2 30 16h6q22 -8 29 -16t25.5 -45
t28 -80.5t15 -53.5t21.5 -24v-12l8 -6l54 -181l24 -51l43 -135l25 -55v-33l20 -43l21 -82q6 -15 21 -37.5t17 -26t11 -67.5l35 -37l24 -98l23 -37l22 -60l52 -112l26 -23l6 -47l29 -33l92 -180l-39 -6v-4h-14z" />
    <glyph glyph-name="bracketright" unicode="]" horiz-adv-x="1110" 
d="M487 1440l35 2l-8 -4l37 -17v-6l43 2l-2 -6l18 6l4 -8l7 10q12 4 16 4l12 -2q10 -6 29 -6v-4l22 2v4l15 -2l8 10q39 -6 47 -18v4l14 -2l-4 4q19 0 27 8q12 3 16 11q39 -5 39 -37v-15l-12 -4l2 -43q-14 -5 -21 -12q-12 -3 -12 -25q0 -14 6 -39l-6 11l-6 -16q-2 -7 -27 -29
l2 -9q-7 -19 -12 -48t-18 -29h-2q-3 -26 -13 -27q-8 -27 -8 -49l2 -12q0 -7 -6 -7h-2v-6h-6l4 -18l-6 -8l4 -11q-37 -15 -37 -55h-6l-8 -43l10 -4l-10 -4l-2 -19h-4l-2 -10h4v-10h-8l4 -4h-4l2 -8l-7 2q-4 0 -4 -4q0 -6 6 -15l-6 4l-4 -4l8 -14l-10 -10l-26 -119l-3 -41
q-10 -20 -10 -33q0 -6 2 -10h-4l-31 -188l-6 -15l-18 -149l-23 -123l7 4l-3 -8h-8l8 -49q11 -17 13 -29q-6 -6 -19 -6l-26 -31l12 -35l-2 -28q-24 12 -39 14q-10 -10 -22 -12l-5 -4l-63 2l-4 -7l-8 7l-7 -11l-14 7q-6 -29 -29 -31q-13 11 -34 40t-39 29l-43 -8l-4 -4
q-19 3 -56 62q28 28 82 28h13q60 -5 65 -6v6l10 4v4l41 33q20 8 23 23.5t4 17.5l29 98l6 -4l2 23q20 16 20 22q0 21 -8 37h4l-4 37l10 12q7 29 19 52h-4l6 37l4 4l-2 26q0 2 6 58q20 19 23 49l8 10l7 20q3 9 23 33q-13 21 -18 53l4 3l-2 10q2 2 14 18q-6 19 -6 27v18h4
q8 20 19 31v51q31 17 39 31q0 6 -13 18l13 15q-7 3 -19 14.5t-12 24.5q0 23 41 34h-10l6 7h-10v4l12 8l-10 6h10l-6 12l8 6l-10 4h10l-4 19l12 27l-29 47v2q6 7 25 22l2 13q0 6 -4 14h-8l-8 26l4 3q29 5 41 26l-9 12v7l-10 2l-2 14q16 10 21 20l-9 15l9 4q-11 41 -47 41h-13
l-10 2v-8l-14 10h-9q-34 0 -52.5 16.5t-18.5 22.5q0 15 8 29l8 -9v15h10v4z" />
    <glyph glyph-name="asciicircum" unicode="^" horiz-adv-x="2048" 
d="M934 1462h178l520 -565h-92l-518 436l-520 -436h-90z" />
    <glyph glyph-name="underscore" unicode="_" 
d="M0 -272h1024v-136h-1024v136z" />
    <glyph glyph-name="grave" unicode="`" 
d="M596 1122l-84 -30l-55 32l-45 78v8q0 24 -35 76.5t-51 67.5l-4 37q-48 65 -48 73v37l15 6v15q2 5 30 45l46 6l8 29l30 10l17 -7q4 -2 9.5 -7t16.5 -18l11 -13l55 -107q4 -2 6 -7t5.5 -18t6.5 -22.5t9 -22.5t16 -28.5t25 -30.5q4 -4 20 -57l27 -6l-21 -43l27 -21l8 -37
l-20 -26z" />
    <glyph glyph-name="a" unicode="a" horiz-adv-x="1300" 
d="M797 981q7 2 39 -2t41 -14l34 8l19 -2l14 -27l-2 -20q-20 -16 -27 -35h-10l-11 -12q-5 -5 -42 -17l-2 -186l16 -96l2 -99l15 -121l63 -172q17 -19 23 -30q50 28 63 28q41 47 53 49v11l113 96l2 18q11 2 43 39l37 -8l20 -45l-8 -39l-20 8l-10 -22h-19q-11 -30 -33 -49v-11
l-55 -51l-10 -26q-19 -13 -64 -35l-8 -15l-2 5l-12 -21l-27 -8l-4 -14h-14l6 -15l-16 -31l-15 -4q2 -16 -33 -59l-47 -2l-10 -29l-29 -8q-33 9 -53 41l-67 109l-64 143l6 53l-14 47l10 2q-29 58 -29 88l5 37l-31 19l-21 -13v5l-10 -5l-27 -69l-14 6l-4 -14l-10 4v-9h-4
q-1 -6 -29 -51l-8 4l-6 -43l-21 -11q-21 -11 -27 -26l-8 -20l9 -12l-23 -8l-10 -41l-17 -9l5 -8q-24 -18 -39 -24l-9 -15l-8 11l-14 -35h-12l-17 -58l-18 -6l-2 -30h-29l-29 -66l-14 -10h-12l-4 -19l-64 -24l-67 -2l-29 190l12 25l3 20q1 8 24 60l-4 14q18 41 24 49l-8 4
l19 49l1 19q1 8 15 37q-8 48 -16 55l8 14l26 -4q23 31 29 33l6 18h4l-14 21l12 53l8 -4q12 31 15 31l-4 26l28 52v14l-6 12l41 88l47 64q24 21 41 47l35 14l47 49l45 27h27l22 6h31l14 23l29 -2h29v8q12 -1 26 -10l31 12l23 -6l6 8l24 -8zM539 823l-25 -4l-31 2l-10 -18v-15
q-16 -8 -35 -14l-18 -45q-14 -60 -17 -61h-10l-14 -33l-7 -28q-3 -13 -20 -21l-10 -35l-16 -30q-9 -17 -9 -36v-8l-10 8v-16h-6l2 -10l-8 -17l-12 -53l-21 -43l-4 -61l-6 -9h-4l-4 -18l8 -8l-10 -37h-4l4 -12h-15l2 -74l9 -35h4l22 21l58 82l104 137l31 33l69 112l72 96
l6 21l-14 18l26 45l6 34q1 5 17 26l2 80l-27 2h-22l-29 20l-6 -10z" />
    <glyph glyph-name="b" unicode="b" horiz-adv-x="1006" 
d="M492 1804l32 -10l4 -18v-15l9 -22l-9 -10l4 -27l-18 -25v-26l-18 -4l4 -39l-27 -31l-51 -131l-33 -131l-14 -41l-4 10l-11 -61l-4 4l9 -88l-19 -27v-20l10 -23l-10 -4l-8 8l4 -26l-4 -15l-10 -20q-4 -8 -15 -68l-4 -4l29 -29l-4 -22q-21 -8 -39 -33h18v-6h21l37 -12
q41 22 69 22l41 -4l29 4l4 -10l33 6l4 -10l37 14l28 -10l-4 -4h15l45 28l18 -6v11h58l88 -23l18 -25l4 7q41 -9 84 -29l4 -10l29 -23l-29 -80l-8 -12h-14l-4 -14v-43l-7 10l-4 -19l-28 -14l-9 -41l-28 -24l6 -9h-10l4 -4l-15 -10l-4 -18q-28 -10 -59 -80l-10 6l4 -10l-19 -4
l-4 -19l-10 4l-4 -18l-27 -23v-10l-10 -18l-14 4l6 -8l-29 -7v-12l-37 -29l4 -10l-10 -12h-12l-6 8l-8 -14h-11l6 -13l-14 -6l-10 -26l-8 -6v-9h-19l-10 -18l-8 4q-14 -35 -33 -47v-8h-10l4 -15l-12 9l-6 -13h-15l-8 -32l-14 4l-9 -19q-37 -20 -43 -28l5 -13h-9v-10h-14
q-20 -16 -29 -18l-4 4l-18 -19q-26 -17 -41 -33l-25 5l-63 -50v-10h-15q-39 -41 -61 -51l-4 -10l-10 -4l-9 -23l-10 8l-22 -18l-4 6l-11 -33l-18 27l-37 6l-18 -6l-15 14l19 33l22 10l21 -6l30 37v29l15 14l10 37l23 23q14 14 19 24l13 33l19 12l-15 10l19 19l-4 28
q0 43 18 78l-4 10l33 33v33l-10 27l10 28l14 103q-16 24 -18 36l18 23l-6 25l6 22l-6 19l-4 65l4 117q16 18 19 41h14v22l10 11l-10 4l10 10l-4 8v29l-6 8q13 29 33 57l-15 19l6 14l13 8l6 -4l8 19l-22 14l4 45l14 18l-10 29q15 53 24 66l-6 32l21 56l-7 28v23l7 10l-15 19
l4 40q12 21 23 62l-8 18l-25 13l-4 28l-41 -4l-18 -24q-15 -27 -31.5 -44t-30.5 -38h-8l-33 -15l-51 9l-18 -9l-20 13q-9 6 -38 47l25 -4l4 41l121 98q26 6 33 10l61 41l18 4q21 20 23 33l29 18l36 48l66 69l31 4l6 19h18q32 17 45 18zM602 688l-8 -4l-25 4l-14 -4l6 -6
l-14 -4l-4 -8l-6 12l-5 -8l-22 8l-37 -12q-9 8 -29 12q-36 -21 -47 -23q-3 -19 -22 -28l-4 6l-11 -15l-4 9l-4 -4l-18 18h-10l-5 10h-18q-9 -37 -29 -69l23 -43l-23 -93l15 -29q8 -16 8 -55l-4 -40l4 -25l-25 -18v-129h-8l10 -66l-4 -14l4 -19l23 10l33 41l43 29l69 82l9 14
l18 6q21 30 25 41l14 9l45 51l4 20h39l-6 27l22 16l11 31l36 18l43 74l9 10v9l14 43l-18 59q-64 20 -78 43z" />
    <glyph glyph-name="c" unicode="c" horiz-adv-x="899" 
d="M829 129l-32 -41l-26 -15q-13 -7 -26 -26q-22 -6 -28 -14h-23l-24 -4l-117 -58l-18 6l-9 -10l-32 -8l-11 -14l-18 -6l-23 -13l-22 -4q-10 -2 -39 -20h-23l-22 -19l-6 11l-4 -19l-33 4l-27 -18h-14l-51 -15l-41 19l-21 29l-78 92l-4 51l4 18h-14l-6 133l10 54l-4 14v27
l14 24l-4 47l27 125v19l10 -15l-6 33l29 84v14l37 60q7 33 18 47v22l33 37l37 25l51 55l76 47l57 19h45l41 18l4 -4h33l37 12h24l19 -8v-14q13 -11 33 -15v-8l32 -14v-25l-10 -18q-11 -9 -29 -41q-23 -10 -41 -23l-18 5l-14 -29h-19l-18 -8v-37h-23l-33 -6h-14l-33 -23
l-14 4l-8 19v18l-10 10l-37 -4l-15 -24l-4 -15l-41 -49l-14 -47l-16 -37l-9 -45l-16 -43l-10 -135l18 -127v-12l15 -19v-47l41 -74l8 5l14 -15h29l33 23v-8l18 8l55 10l33 14h14l4 4l33 -4q27 19 70 33l-4 8l14 -4q21 7 51 23l19 -4l4 12l43 8l26 10h31l21 -24z" />
    <glyph glyph-name="d" unicode="d" horiz-adv-x="1008" 
d="M946 1505l29 -4l4 -14l14 -4l-4 -41v-15l-14 -14l-3 -32q-3 -29 -20 -48l13 -8l-23 -10v-23l-22 -22v-37l-7 4l-12 -25l-5 -41q-1 -8 -15 -28l6 -23l-9 -25q-6 -16 -13 -23l-21 -21v-37l10 -4l-10 -58l6 -12l-25 -43v-37l-18 -18v-47l-23 -33v-19l9 -8l-5 -28l11 -15
q-15 -31 -43 -41l-4 -28l14 -9l-29 -18l4 -21l-4 -26q53 4 62 8l18 -8l-84 -103l-28 -112l-19 -12l4 -33l-8 -10l4 -15l-4 -8v-43l4 -27h-8l-6 -24l-15 -12h-8v-52l19 -10l-23 -33h8l-4 -18l15 -19v-18l14 -14l-6 -33l10 -19v-73l-14 -4l14 -33v-29l18 -69l60 -129h-4
l32 -29q29 -47 48 -74q31 -17 36 -29h9v-10l20 -12h12l19 -14q41 10 57 45q21 3 51 28l19 -32l-15 -5v-18l-18 -10l4 -23v-18l14 4v-33l-28 -14l6 -8l-14 -4l-7 -11l7 -8h-15l4 -10q-25 -6 -59 -29q-10 5 -47 47l-41 -14l-21 25l-8 18l-6 5q-4 3 -7.5 10.5t-8.5 17.5v18
l-15 23v10l-18 12l-102 127l-62 111l6 14l-24 37l18 10l-8 19l-6 51l-8 18l-11 41l-18 27q-4 6 -7 31l-7 55v41h-5l11 43l-6 22l-27 4l8 19l10 -8l-14 59l-18 -22l18 59h-14v-4l-15 4l-45 -45l-4 4l-28 -14v-19l-23 -18v-10h-14l-17 -13q-8 -6 -35 -10l5 -22l-23 -15
q-10 -40 -25 -55v-14l-18 -15v-22l-18 4l-27 -55l-39 -15l-8 -18l-19 -4v-7l-28 -12h-4q-10 34 -23 45v-8q-22 30 -33 37l-6 51l6 23v14q-7 17 -14 23l8 14v14l6 29l-18 18l18 13q-14 29 -14 61v14l4 23l-8 24l18 31l-10 62h10l9 32v15h10v92l14 10l4 45v19h33l8 51l33 -8
l23 59v18l6 -8q13 22 32 78l13 10v15l6 -15l4 29l18 4l11 23v10l14 4q6 14 55 55l4 -8l15 18l18 -6l8 6v9l11 -4l14 41l45 -13l-4 4h29l-7 4l15 5l49 -7l59 -34h-20l39 -11v-8l26 -29q12 -43 19 -45l14 5l10 28l19 8v47l4 15l14 4l-4 33l8 14l23 12l-8 19l4 6l-19 8v186
l15 15q4 20 8 26l-4 7v55l-23 -14l-18 4q-4 -4 -25 -9l-4 -18l-29 -14h-12l-24 18l-13 37l-10 6l10 12l-10 29l10 14l19 4l4 15l18 4l19 33h10l4 10l74 55l4 8h33v11l10 -11h14l4 15q19 3 33 14zM444 743l-8 -26l-65 -33l-29 -61l-14 -9h-4l-9 -14l-6 4l-8 -22l8 -11
q-8 -50 -18 -59v-18q-17 -13 -27 -48h-10v-22l-14 -43l10 -23q-20 -56 -33 -75l8 -13v-37l11 -10l-15 -22l4 -29l19 -22v8l14 -8l29 12l8 -4l51 61l14 4v4l29 29l33 14l22 27l15 6l47 41l63 47l13 39q2 6 26 31q8 39 23 59l-29 33l-4 74l-4 24v8q-11 15 -14 29h-15l-4 -22
l-24 4v22l-9 -4l-4 14l-28 -10l-29 10l-4 23z" />
    <glyph glyph-name="e" unicode="e" horiz-adv-x="877" 
d="M477 911l25 -4h4l-4 -10h8l14 -14l47 -4h47l27 -15h10l15 -51l-21 -18v-19l33 -33l-4 -92h-14l-5 -18h-4v-29l19 -4l8 -10l-12 -19v-14l-25 -12l-18 -15l-52 -28q-21 -22 -36 -33l-15 -41l-88 -35l-88 2l4 -22h-18l-4 -6l-43 -9l-4 15l-15 -6v-9l-37 -14l-14 -41l19 -51
v-25l10 -22q-20 -59 -29 -62l6 -18l-10 -4l23 -10v-31l20 -14q50 15 61 22l15 -14l4 4q41 4 65 10l7 12h24l19 2l24 -12l-6 8h20l25 21l29 2h-6l28 12l8 -6l15 14h20l19 19q22 1 71 26v11l29 8l31 45l33 -4q17 -16 40 -19l15 -14l-23 -43l4 -27l-32 -18l-4 -10l-48 -6
l-26 -27l-29 -2l-8 -23l-39 4l-12 -28l-31 4l-12 -14q-34 -13 -35 -15l-14 8l-23 -22h-33l-20 -10h-12l-15 -13q-26 -7 -53 -22l-14 10h-29l-12 -10l-11 4l-14 -4l-4 4l-10 -23h-27l-22 -12q-11 -6 -48 -10l-10 -10h-18l-27 -4l-20 -25l-27 10l-14 -18l-11 3q-4 1 -40 38
l4 24l-4 13l4 24l-15 37l6 29l-10 45l10 37l-14 57l-4 4l4 29l33 12v20l-14 5l4 26l-9 15l5 24l14 8l-4 23l4 39l8 4l14 47l33 59l29 11l4 32l-4 9l4 18l18 10l11 33h-25v12l10 15l-4 14l4 14h4v33l33 4l14 29l70 78h14q12 19 31 32l14 -4q14 5 33 33h10l19 12h8l14 21z
M453 741l-35 -12l-27 12q-24 -20 -39 -28q-3 -26 -20.5 -44t-24.5 -18h-18l12 -22q-11 -20 -29 -62l-16 4l-6 -26l6 -37l20 -11q9 -5 50 -12l32 21l66 6l35 51l47 39l6 74l-16 24l-2 35h-23z" />
    <glyph glyph-name="f" unicode="f" horiz-adv-x="815" 
d="M-184 -946l45 76l8 -7l6 29l37 62l18 8l4 18l25 25q15 36 18 37v8q5 4 27 51q12 34 19 37q11 58 32 98l15 55v15l14 22l29 142v18q9 9 12 31l18 127l25 33l-6 26l6 19l14 84l8 18l-4 29l4 8l19 80l4 33l10 28l-4 37l4 8l23 -4l18 66v26l10 62l15 4v33l8 14v47l29 78l4 18
l-8 19l22 43v18l6 21q-32 22 -43 22h-20l-13 -8l-28 12h-15l-14 33l-41 8l-14 15h-15l-18 32v25l-37 49l21 29h26q2 3 19 12l4 14h10q8 14 35 29h20q30 -18 52 -80h47l8 -18l10 10l14 -14l19 -4h22l23 69l2 27l4 -4l-4 18l12 14l-4 23l10 10q10 27 19 41l-10 6l18 41l6 -4
l4 13h4v20l15 12l8 43l-8 19l22 51l15 8v14l40 48q11 8 39 41h9v6q15 12 51 22l14 33l29 8l4 25l37 -6l4 14l121 61l28 -14q62 13 70 10l76 -30l12 -82l14 -56l-86 -71l-45 26l-32 -4l-54 12v41l-28 -8l-33 8l-10 23l-15 -8l-4 -10l-14 14l-4 -37l-23 -18q-15 -47 -37 -70
v-10l-24 -23l-4 -33l-23 -14v-14h-10q-4 -19 -10 -37l-13 6l-10 -20v-13h-4l4 -14q-33 -49 -41 -103l-10 -4l-8 -18v-25l-10 4l-5 -26l-20 -38q-12 -21 -12 -36l8 -24l17 -11q9 -6 21 -6l29 -2l23 -24h12l8 4l11 -4l18 4l10 -13l19 6h16v15l15 8l8 -6l18 6l10 -23l11 21
l20 -25l12 15l21 -4v8l33 -4q7 4 20 8l14 -6h27l23 -45l-7 -25l-20 -10q-17 -5 -33 -12l-10 -15l-27 4l-16 -12l-18 14l-7 -22h-22l-14 8h-21l-14 6l-23 -14l-16 4l-15 -14l-18 12l-10 -18h-19l-4 10l-20 -10l-37 10l-49 -15l-19 19l-28 -37l-19 -4l-4 -47l-4 4v-23l-22 -43
l8 -12l-8 -29v-51l-11 4v-26l-10 -43q-23 -49 -23 -74l5 -29q-21 -36 -23 -45l10 -20l-14 -13v-18l14 -14l-6 -19l6 -14l-28 -33l8 -22l-12 -25l-7 -78l-8 -14l4 -14l-18 -23l4 -37v-14l-14 -15l-27 -120q-22 -44 -23 -47l5 -15v-12q-19 -42 -19 -62v-22l-10 -10l4 -27
l-8 -6l4 -19l-4 -4v11l-10 -33q-9 -43 -17 -66.5t-35 -50.5l-4 -18h-8l-6 -15l6 -4l-14 -10l4 -8l-23 -43l-4 -16q-2 -7 -33 -44v-18l-6 8q-24 -30 -37 -33v-36l-36 -66l-15 6q-10 -26 -37 -69l-20 -23q-7 -7 -25 -47l-37 -16v-11l-8 -12l-10 8l-29 -51l-24 14l-27 -28v6
l-10 -15h-8l-6 -10l-9 -4l-6 -14l-8 4l-14 -19h-19l-10 -18h-22l-19 2l-13 11q-5 5 -16 34l21 33l31 14l14 23l37 4l10 24l29 5l21 22q9 10 57 37z" />
    <glyph glyph-name="g" unicode="g" horiz-adv-x="987" 
d="M614 -551v-27l-10 -6l4 -26l-22 -4l-4 -25l8 -18l-8 -23l4 -18l-33 -95l-4 7q-21 -54 -23 -62l-61 -59l-14 -25v-18h-9l-10 -23l-4 4l-14 -32l-23 -9l-24 -40q-5 -7 -37 -25l-13 -33l-36 -19q-7 -3 -27 -30l-23 -4l-28 4l-13 -19q-22 -13 -40.5 -27.5t-24.5 -37.5
q-32 -11 -43 -19l-12 9l4 6l-29 18l-4 23q7 18 37 65l37 4q9 23 24 43q56 13 94 25l21 37q64 46 88 69l12 -12l-4 25q32 48 49 59l-4 12q6 14 43 33l-10 19l10 43l27 32q4 10 18 19l25 139q5 0 29 57l6 48l16 36v23l4 18l-8 19v18l-10 11l4 22l-4 14l14 4l-10 39l6 23l12 8
l-8 33l14 6l-14 37q-5 39 -10 41l10 18l-29 146l7 32l-19 158l-24 14l-23 -10l-4 4l-10 -14h-19v-23l-28 -8q-22 -12 -45 -14l-11 -14l-73 -117l-76 -107l-23 -18l-8 4v-18l-20 -23h-13l-18 -6v-19l-39 -8v-4l-12 4l-15 -10l-10 18l10 29l-18 15l14 14l-10 8l4 18l-18 5
l4 10l-4 18v29l10 14q-11 52 -14 56l8 8l-4 14l4 23v28l-13 4l9 15l-9 28h5l-5 15q9 7 13 22l10 4v25q17 44 18 51h-14l6 12h8l23 84l16 38q9 18 13 46l18 23q12 69 37 94l65 66l29 8q8 22 52 56l55 43q11 8 28 13l4 13h27l25 24q38 17 41 23l47 4l32 6h19l4 4l14 -10v6
l23 -6l6 10l27 -10l18 6l6 -18l12 4l11 -4l-4 -7l18 7l8 -19l-4 -14l23 -14q11 -40 14 -62l4 -4l33 10l6 23l27 10h18l29 -29l-51 -80l-29 -4l-27 -37h-14l8 -51l-4 -28l-14 -209l-9 -47v-19l-28 -37l10 -65l-6 -27l-8 -4l14 -20h-14l-11 -56l11 -26l-15 -11
q-16 -54 -18 -84l-10 -8v-14l-13 -4l9 -29q0 -55 -15 -74q10 -44 25 -79l-25 -5l-8 -24h-10l14 -19l-8 -18h-6l10 -18l8 -52l-4 -18l10 -37l-10 -18h-14zM526 688l-18 -14l-19 4l-10 -8h-33l-12 8l-14 -12h-14q-21 -19 -37 -19h-19l-47 -61q-22 -39 -29 -41l7 -25l-15 -33
v-4l-28 -4v-65q-13 -28 -13 -70q0 -44 19 -84l-11 -55l15 -19h18l15 23q53 44 55 51q17 5 70 47l14 -10q32 49 78 51l24 29l-18 59q21 28 22 33l33 18l19 33l10 10l4 15l18 18v19q-22 48 -28 55v14z" />
    <glyph glyph-name="h" unicode="h" horiz-adv-x="1298" 
d="M657 1636l15 11l22 -15l19 4l14 -18l29 8q21 0 32 -22l37 -70q0 -55 -32 -55h-11l-45 -52l4 -10l-10 6q-10 -22 -41 -24v-8q-22 28 -112 65l-13 -10l-6 10q-14 -17 -27 -51q-10 -8 -10 -16q0 -5 4 -13q-13 -13 -22 -28v-33q-6 -28 -19 -55h-4q-14 -35 -14 -70
q-12 -4 -12 -23q0 -10 2 -14q-4 -24 -13 -41h-6q-18 -36 -18 -39l-4 6v-10q-22 -44 -29 -78l-12 -61v-47l4 -9q-4 -8 -14 -18l-5 4l-10 -22v-43l-18 -33v-55l-8 -37v-43l-25 -107l-4 -74q-8 0 -8 -6q0 -5 8 -8l-4 -33q11 -22 33 -22l4 14l37 51h4v9q15 16 36 51t39 37l19 28
l8 -4q11 13 14 23l4 -4l7 22l8 -4l8 20q2 7 13 16l26 23l59 29l-4 4l88 62l43 22q12 10 27 15l33 -19l32 -4l11 -6q4 -2 8 -12t4 -11v-22l25 -51l-7 -43l21 -41l4 -52l14 -65l-32 -37l4 -18q55 -31 55 -88l-8 -33l18 -47l-4 -47l8 -64q-4 -5 -10.5 -12t-7.5 -8
q20 -18 47 -31q11 15 23 22t32 29h19l6 10l10 4v11l27 20q12 6 29 19l34 26q12 1 26 15t21 18l29 2l4 14l53 -16l-4 -18l4 -37q-31 -23 -37 -52l-4 5l-10 -19l-18 -10l-4 -12q-26 -7 -60 -11v-8q-33 -16 -47 -16l-6 -31l-21 -12q-23 -21 -53 -21q-22 -40 -45 -41l-29 -32
l-36 -5v-8q-11 0 -60 -18l-4 -10l-10 4q-6 -23 -47 -23q-17 0 -36.5 30t-19.5 36v8q-8 68 -8 94l2 10l-8 27v51l-26 37l4 33l-11 117l21 73l-43 51q-23 26 -23 74h-4q8 14 8 21q0 26 -36 30l-29 -14h-19l-4 -18l-4 6q-3 -46 -39 -51v-7q-30 -18 -30 -36l2 -13q0 -6 -2 -10
l-15 -4l-14 -33l-14 -10q-2 -31 -37 -55q-6 -30 -33 -47q-15 -41 -41 -66l-14 -55l28 -23l-32 -33h-7l-12 -36v-33l-10 -15l-8 -22q-2 -6 -14 -17l-29 -26l-11 6l-8 -25h-10q-10 -22 -37 -22l-4 -33h-18l-19 -22l-28 4q-7 -11 -19 -23l-18 27q14 11 14 26q0 9 -10 25
q7 3 8.5 11t9.5 40h-4q8 14 8 27q0 12 -4 24h6q4 57 19 84q-6 13 -6 21l6 31v14l14 45h4v10l15 66l4 -6l-4 32l8 21l18 12l-18 29l18 69v19q10 6 10 14l-4 19v4h9l-5 55v14l5 11h-5l5 36q11 17 16.5 40.5t5.5 25.5v27l18 24q13 3 13 13q0 15 -17 51l19 43v37l14 41l4 -5
l6 37l7 21l-3 8q0 12 15 33h-6q0 8 6 14l-6 4q14 21 14 29v8h6q4 25 12 33l15 4v24q8 33 8 54v33q0 12 6 24l10 4v39l11 31q16 19 16 49v12l18 51q0 13 11 23h4l22 66q22 34 29 40q54 7 74 62q17 0 28 14l37 8l29 -4l18 11z" />
    <glyph glyph-name="i" unicode="i" horiz-adv-x="727" 
d="M618 1382h-6l-37 -79l-4 4q0 -11 -10 -19v-4q-22 -35 -55 -51l-8 4v-8q-39 5 -60.5 16.5t-32 38t-20.5 55.5q15 21 25 25l8 27l33 18l18 39l33 18v-6l18 -8q7 4 9.5 6.5t7 6t23.5 8t29 10.5l11 6h8l15 -23v-32l4 -29zM473 797h-4l-8 -52l8 -6l-14 -37l-4 7v-15
q0 -44 -37 -84h8v-18h-4l4 -117l-8 -14l4 -19l-15 -73h5q0 -20 -10 -57l-9 -27l-12 -133q-4 -20 -4 -23q0 -18 16 -18q19 0 42 15l65 44q27 33 39 33h6q17 8 32 27t23 22q15 27 27 27q1 0 8 -2t37 -7l8 -28q0 -23 -16 -52.5t-25.5 -49t-42.5 -31.5v-7l-14 4v-14h-9
q-3 -27 -28 -31v-6h-27v-4h-10l-27 -18h-8l-14 -19l-41 -6q-6 -12 -19 -12l-51 -37v-8l-25 4l7 -10l-33 -8v-5h-14v-14l-15 -10h-4v-4q-13 -37 -37 -37l-14 4q-12 37 -41 74q8 32 8 47l-8 41v22q0 31 6 64l6 26v5h-2q-2 0 -2 2t9.5 32t9.5 78q0 12 -9 14l13 27v121l16 35
q8 16 16 63q13 8 15 15l-8 12l8 20q-16 31 -37 31h-47q-8 -8 -8 -18h-7q-5 -27 -26 -33q-5 -26 -29 -31l-18 -29h-4q-7 -22 -25 -22q-20 0 -32.5 29t-12.5 32q0 4 4 9q10 44 62 73v8q22 22 45 33h-9q43 9 50.5 44.5t52.5 35.5l12 -4l25 12h-15l23 15l6 -4l18 22l5 -4
q12 29 55 29q10 0 10 8v10h8l-4 4l33 23q16 28 51 28q22 0 38.5 -12t16.5 -24q0 -13 -14 -37z" />
    <glyph glyph-name="j" unicode="j" horiz-adv-x="803" 
d="M578 1526l-5 4h19q34 0 47 -14.5t18 -47.5l23 -18h14q0 -22 6 -37h-6v-8h-8l4 -6l-22 -19h8v-26h4q-3 -26 -23 -33v-10l-14 -8l-4 4l-4 -11h-6l-8 -8l-5 8q-8 -8 -20 -8q-10 0 -18 8q-31 -2 -31 -22q-19 0 -19 -10l-32 -13l-15 23q-14 14 -14 29q0 17 29 55l8 -4l10 22
h-6v33q20 4 20 37q13 12 13 29l-13 36q0 14 9 19t14 4zM559 725v-28q-3 -36 -7.5 -62t-4.5 -35v-4l4 -29l-14 -41h-9l9 -51l-9 -57l13 -41q-19 -22 -19 -33l6 -29h-6v-4h6v-4l-10 -4q4 -4 4 -8t-4 -15.5t-4 -19.5q0 -12 8 -22q-14 0 -14 -19h6v-8q0 -11 -6 -21q8 -7 8 -16
q0 -6 -12 -12l10 -12q-20 -27 -20 -48q0 -12 2 -18q-19 -3 -19 -23v-6q4 -14 4 -39q0 -15 -10 -39q-20 -20 -20 -57q0 -21 2 -31l-15 -32h-4v-19q0 -45 -22 -94l-66 -143q-18 -19 -18 -37h-4q8 -11 8 -27q0 -9 -15 -37t-22 -35q-39 -53 -41 -92q-1 -3 -13 -19t-16 -38l-4 6
v-10q-16 -29 -24.5 -42.5t-18.5 -49.5l-14 -11v-14l-37 -45l-4 -14l-66 -84l-22 -15l-4 5l-35 -60q-24 -9 -27 -33q-42 -2 -65 -41q-20 0 -29 -14l-27 -4l-6 -18q-61 -20 -88 -43l-4 6l-4 -6l-6 6l-8 -6l-6 6q-6 -1 -19.5 -17t-36.5 -16l-14 4l-31 -20l-6 16q-37 23 -45 41
l-29 -4l19 18l4 37q17 14 29 19l18 -9l29 4l-6 -10l32 15l70 10l47 18h4q65 16 88 51q90 38 90 82q43 6 43 33v4q2 -2 8 -2q10 0 23 17q-6 14 -18 14q9 2 24 18l-10 -4q19 25 37 33l10 33l33 22l-4 23l22 18q10 46 41 80l-8 23l23 28l10 56l12 18l10 25q4 12 29 36l-10 23
l4 25q21 28 33 59q0 24 14 47v27l18 18l-4 33q8 14 15 43l-7 4q22 12 25 37h-10l3 30q1 13 21 64l-20 31l24 51l-10 29l19 51q-13 21 -13 43q0 6 13 55l-23 19v32h-4q-10 51 -43 84h10v8l19 37q-4 16 -4 23q0 8 4 20l-19 33l19 60l-4 36l6 19q6 20 12 28h-6l-4 19
q-19 -12 -45 -12q-15 0 -21 2l-30 -9l-33 15l-29 -10l-10 -15q0 8 -4 8q-5 0 -8 -16l-7 4l-18 -14q-3 -27 -18 -27h-5q-6 -23 -18 -24l-10 6v-6q-6 -7 -15 -7q-8 0 -12 3q-8 -5 -14 -5q-18 0 -43 41l6 11h-10v18h4q0 15 10 23q0 19 14 24l4 8l37 19l15 18l29 17q14 8 55 45
v-6q36 25 65 32v-8l15 8v-8l18 19v-5h22v-6q31 0 60 15l14 4h15l22 -19l2 13l37 20v6l18 4q19 3 19 15h4q22 30 61 30q43 0 43 -30l-6 -39l4 -41z" />
    <glyph glyph-name="k" unicode="k" horiz-adv-x="1432" 
d="M424 819q-2 -12 -2 -35q0 -51 31 -51q8 0 14 2v17l72 36l34 39l7 -6q12 41 49 43l-2 8q34 26 57 46q25 0 53 22l11 -8l53 22l88 25q39 33 82 33h6l-4 6q26 19 73 30l46 11q45 0 45 -64q0 -14 -19 -14h-4v-10l-12 -6l12 -2l-49 -82l-12 -11l6 -6l-8 2q-15 0 -15 -10
q0 -6 6 -12q-43 -53 -43 -72l-2 4l-36 -14q-62 -86 -74 -97.5t-21 -11.5h-2l-3 -9q-1 -5 -18 -23.5t-57 -48.5t-88 -64l-8 -59l23 -25l4 -33l12 -14l10 -66l43 -49l25 -61q13 -22 57 -56l6 -16l7 4q0 -6 2 -6h4q13 -7 25 -9.5t46 -19.5l11 -20l12 -6l37 -4q15 -7 51 -9
l-2 -6l33 -2l32 -8l27 4l16 -4l-2 -4l56 -6q22 22 22 39l-8 39q0 32 43 45l2 -4l2 10l6 -4l4 24l9 -2l2 8q8 9 18 9h4q21 -6 33 -25t12 -37l-6 -33l10 -20l-2 -29l7 -28q8 -29 8 -45q0 -22 -13 -43l-10 2l-25 -25l-12 2l4 -12q-17 -13 -43 -13h-39l-34 35q-10 -1 -29 -8.5
t-31 -7.5q-14 0 -37 13t-45 18l-22 -9q-36 15 -62 15h-10q-6 -6 -12 -6q-12 0 -15 24l-24 -6q-12 6 -25 18l-47 11q-4 -2 -10 -2q-7 0 -19 8l-8 -4l-6 16q-23 8 -45 23l-6 -2q-5 0 -11 3t-14 9l-16 13q-9 6 -17.5 12t-21.5 14.5t-20.5 19.5t-18 23.5t-20.5 21.5h-6
q-8 0 -13 4l-6 35l-18 6l-2 7q-12 8 -32 42.5t-38 47.5q22 7 31 16q-10 18 -23 18q-8 0 -8 -16l-23 76h5q-7 22 -21 24l-33 52l-24 -13l4 -51l-8 -51l4 -33h-10q-11 -34 -22.5 -95.5t-29.5 -80.5l-8 -33l-21 -24q-9 -11 -16 -82q-9 -12 -18 -19l-6 4l-15 -28l-12 -4l4 -8
h-12q-3 -15 -19 -15h-6q-11 -14 -18 -14q-11 0 -14 4l8 -8h-13q-24 -6 -24 -29h-27l-18 51l-43 11q15 30 47 30l7 34q1 5 20 28v28q6 2 8 21.5t12 60.5l12 11v14l11 26l6 -4v15l-6 -4l6 2q-4 2 -4 6t7 19t23 65l15 10q1 53 16.5 72t15.5 20q0 2 -10 23l4 24l-16 27
q2 31 4 45.5t31 62.5q16 17 16 64q0 10 -16 33h6v32h4q10 0 10 11q0 2 -4 14h-6q0 21 8 27l6 51l-6 14q9 18 20 34.5t11 31.5q0 6 -6 17.5t-6 19.5q0 18 14 47h10q-14 16 -14 63l4 6l-14 9q-9 20 -9 28q0 15 9 23v18h6l12 43h-4l4 23l-27 18v74l-22 -8q-12 4 -19 4
q-19 0 -39 -15v-4l-8 4l-14 -22l-33 4q-14 0 -14 -6q0 -7 6 -17l-51 15v-10l-33 -5l-4 -14l-47 -33l-23 11v-7h-14l-6 15l-12 -8l-11 41h-4l-10 14l47 33q9 24 22 35t44 20l73 22l74 7l98 45l4 14l29 14h33l-6 23v14l14 10q8 0 19 -10v10l6 5l4 10l92 69l4 -6h23
q28 0 38.5 -10t10.5 -37v-16h4q-29 -64 -29 -76q0 -6 4 -23l-12 -4l6 -6l-16 -4l4 -33l-23 -59l-4 -57l-18 -45v-19l-25 -39v-55l-18 -37l-15 -65h13v-7q0 -23 -8.5 -46t-8.5 -29l4 -33v-33zM846 860v-4q-4 -2 -12.5 -3t-8.5 -5l-18 -2v-4l-33 -6q-11 -9 -33 -15
q-30 -13 -50.5 -26.5t-34.5 -32.5t-29 -41v6q-22 -33 -88 -78q-26 -5 -35.5 -19t-11.5 -16l-5 2l-10 -2q-29 -26 -39 -57q4 -4 4 -12l-2 -13q13 0 13 -10q2 2 6 2q8 0 14 -6l12 2l64 25l14 28l23 -10l26 2l4 23q21 0 21 20q18 13 51 23l10 16l56 27l2 16l4 -4q54 16 94 123
l23 14l8 25v6q0 12 -11 12h-4z" />
    <glyph glyph-name="l" unicode="l" horiz-adv-x="803" 
d="M680 258q-8 0 -8 -33q-14 -16 -26.5 -32t-24.5 -23l-15 4q-15 -12 -18 -29q-2 -4 -10 -4q-6 0 -9 11q-12 -25 -32 -25v-10h-9l-10 6q-18 -13 -18 -29h-15l4 6h-8v-10l-14 -18h-18v-4h-11v-7l-18 -4v-4l-8 4l-4 -8l-7 8l-41 -22l5 -4h-9q-4 -19 -24 -19q-6 -14 -19 -14
l-4 -6q-23 0 -41.5 -24t-31.5 -27l-7 10l-4 -10l11 -4h-15v-5q-18 -4 -47 -32q-22 6 -29 18l-59 117q8 5 8 16q0 15 -8 31h4l-18 51h10l-10 12l4 7q6 0 6 6v6l8 -4v10l4 14l21 9l-6 4q13 21 16 58t8 44l-10 18v25l10 33l4 -6q8 12 15 37q-2 3 -2 12q0 10 1 12l19 19l-6 22
l14 18v7l6 -7v19l-6 6h6l13 37v4l6 -4l8 59h4l21 62l-7 -4l33 88h-4l33 45v24l8 23q-8 2 -18 18l28 47v48l-18 12q0 5 8 18q-5 17 -8 21l-47 69l-8 4q-16 0 -29 -10h-6q-25 0 -37 25l10 33l-4 12l27 18l-4 6q32 7 45.5 30t23.5 36q13 0 22.5 4t14.5 11.5t10 15.5h15l18 28
v11l14 12q13 0 19 18l-6 11l10 -5l14 9q5 15 19.5 21.5t40.5 21.5q3 12 24 18v4l23 4v6l73 41v4q9 15 25 15q27 0 27 -53v-21h-4v-14q0 -47 -37 -66q-2 -14 -13.5 -23t-33.5 -36h4q-16 -10 -19.5 -43t-13.5 -60l-4 5l4 -19h-4l-4 -4l8 -8q-11 -10 -12 -22.5t-4 -12.5h-3
l-18 -23q18 -12 18 -26q0 -8 -12 -10v-11l-6 4v-51h-18l-9 -30l5 -29l-11 -23v-6h-8l4 -22l-8 4l-14 -88l-29 -92l-8 -37q-15 -18 -15 -29q0 -9 5 -29q-34 -73 -41 -143l-11 -4l-4 -6q-3 -20 -10 -31l-4 -90l10 -31l-6 -61l29 -60q-18 0 -23 -14h-6l18 -18l-4 -15h11l18 -18
l18 18l23 10q10 5 29 23h22v8l4 -4q30 31 62 33l-4 4l32 10v8q29 6 45 29q36 6 48 27h8l28 20z" />
    <glyph glyph-name="m" unicode="m" horiz-adv-x="1788" 
d="M1733 231l-21 -12l-6 8v-18l-4 4q-10 -29 -15.5 -33t-13.5 -4h-8v-4q0 -10 -14 -10l4 -4l-4 -4l-4 4v-8q-8 0 -13.5 -6.5t-5.5 -8.5v-14l-14 4l4 -8l-23 -11l-61 -69l-4 4q0 -16 -14 -18q-13 -74 -41 -74l-49 9q-19 3 -27 4t-45 28q-11 -2 -31 -15q-14 9 -31 29h4v14
l11 5l-11 18l31 22l-41 29l-4 19q16 9 16 14q0 1 -34 55q-32 29 -41 47h4l-4 19l14 28v19h2q2 0 2 2t-14 39h4l-12 14q12 16 12 35q0 30 -41 90l-12 33q-4 83 -25 98q-37 -28 -37 -49l2 -8q0 -17 -26 -17h-9q-15 -29 -36 -55l4 -18l-19 -15q-1 -15 -8 -28.5t-16 -22.5
t-23 -37l-4 4v-12l-10 -6l-8 -18q-19 -10 -19 -21q0 -4 4 -12h-4v-8h-6l-12 -33l-21 -10l6 -23q-13 -35 -51 -80v-22q-7 -66 -20 -84h-4q1 -14 -19.5 -34.5t-32.5 -29t-34 -8.5h-9q-2 2 -8 2q-5 0 -35 -25l-7 -13q-3 -6 -5.5 -6.5t-7.5 -0.5q-11 0 -12 2l-23 33l-29 4
l-10 24q7 27 25 56l-4 14q8 3 8 8q0 4 -4 6l8 31v6l-6 8l4 11l6 -6q3 23 23 28l10 19l8 4q11 27 18 33l-4 36q0 18 11 43h6v5l-6 4l24 90l14 26v37l-24 15l-8 24q-11 14 -11 23l5 37q0 42 -19 47q-12 -9 -22 -11v-4l-15 -18h-22l-4 -14h-11q-14 -17 -29 -51.5t-22 -47.5
q-30 -24 -47 -45v-10q-28 0 -37 -33l-4 6v-10h-14q-5 -23 -18.5 -40t-28.5 -34q0 -11 -13 -14q-4 -20 -28 -37l-10 -13q-5 -5 -9 -30l-14 -8v-6q-14 -3 -14 -12h-9q0 -23 -10 -25q-24 -14 -37.5 -34.5t-13.5 -24.5v-11q-23 -30 -23 -78h-4l4 -10l-14 -41q29 13 37 13
q14 0 14 -19l-10 -8v-4l-12 -25q-34 -26 -47 -45v-6l-11 -4q-16 -40 -30 -66l-43 -22l-13 28q-6 13 -34 46q12 8 14 14q-5 8 -23 18h-14q-23 0 -31 5.5t-10 27.5l4 4q-6 6 -6 13q0 4 2 6v18l4 -4v14q23 8 23 29q7 5 14 23l-8 14q31 12 31 41q28 17 28 63v11l15 10l-11 14
l11 15l-11 4v14l19 37h-8v8l-19 10v19l23 84l-8 22q1 1 8 25h2q11 0 13.5 9t3.5 37t3 46l-12 10l12 23v28l6 19q-20 8 -20 30l2 15l-25 24l-59 4l-4 37l27 11l-5 -11l9 4q0 19 18 25q7 27 36.5 31.5t29.5 38.5h6l18 51h8v14h4q9 34 43 59t62 33q39 5 63 41l29 -22l-6 -4
q45 -12 102 -15v-4q-12 -3 -23.5 -7.5t-23 -11.5t-14.5 -16l-8 -22l-23 -4v-27h4q-3 -12 -8 -14l-10 -29q-23 -26 -23 -47l4 -20q0 -7 -4 -7h-10v-6h-4l4 -18q-12 -3 -12 -19l2 -6q0 -13 -23 -39q0 -18 -18 -18l-23 -21l11 -22l-7 -37v-29q-6 -4 -18 -8l-4 -24
q0 -16 -14 -27l4 -29l-13 -32l-18 -134q3 -20 18 -20q9 6 18 15t19 21t16.5 21t28.5 23l15 29h18q6 12 6 22q12 12 12 29q40 9 52 45h6q10 36 41 51q13 0 19 9.5t28 33.5v14h4v13q46 37 51 36v11l4 14h11q-5 7 -5 10q0 12 19 27h26q3 40 62 74l4 -4v10l4 12l6 -4
q7 30 14.5 33.5t12.5 3.5q3 0 10 -4q2 26 17 26q8 0 24 -12h8q36 0 43 -37q44 -2 57 -26t13 -35q0 -16 -14 -27l-5 -14q0 -16 13 -33l2 -25h-4q-4 -22 -25 -45l10 -14l-4 -37l8 -18q0 -33 19 -33q15 0 18 18l11 19q38 38 51 61l22 4l15 33l18 12q20 10 23 31q23 5 45 38
t39 34l6 6q9 22 12 23l6 -2q4 0 4 6l19 10q28 0 37 33q24 3 32 14l11 4l12 -4q35 0 47 -33l22 4l29 -43v-22q22 -65 29 -103h8q-2 -33 -18 -59l14 -18l-14 -33q10 -37 10 -64q0 -32 -10 -43l4 -61h6l-8 -25l-11 -4v-12q0 -42 19 -70q6 -102 39 -102q11 0 57 55l25 4l8 23
l18 14l-4 6l51 45l29 37h8l23 39q6 -6 12 -6q16 0 31 33h4q4 0 4 2v2l41 -43z" />
    <glyph glyph-name="n" unicode="n" horiz-adv-x="1352" 
d="M399 920l39 -5l56 7v-70q-17 -13 -17 -27q-28 -16 -28 -43q0 -12 2 -18l-7 -39l-75 -135l-11 -66l-18 -24l2 -51l-29 -136q-4 -4 -4 -8q0 -8 10 -14l46 57l26 14l21 48l39 28l47 72q19 29 82 53q0 17 30 49q4 1 25 18t39 29l-4 7q72 39 71 53q51 22 66 51q72 66 104 70
q8 1 26.5 9.5t31.5 10.5q21 27 55 27q20 0 20 -29l3 -65l-13 -37l-2 -47l-22 -56l-23 -141q-4 -12 -14 -14l12 -45l-14 -25l24 -14l-8 -13q-6 -6 -20 -32q10 -10 16 -19l-6 -80h4q10 -105 23 -106l43 16q25 41 77 70q18 3 27 12q16 0 20 10q18 11 32 14.5t59 26.5l34 -8
q12 -11 15 -22q-27 -33 -58.5 -79t-44.5 -46h-28l-21 -31l-51 -10l-45 -58l-37 -10l-141 -98l-43 -43l-6 37l-37 -2l-13 61l-20 16l-2 70l-10 43q0 54 20 57v5l12 47l-2 65l23 45l-16 19l32 37l2 77l17 37l-29 39l8 2v29l19 10v6l-2 17v4q-9 10 -45 16l-48 -39l-67 -31
l-98 -110l-15 -23q-44 -44 -43 -49l-20 -14q-4 -20 -4 -27l-39 -45l-41 -59l-70 -111h-4l-12 -28l-19 -66q-42 -35 -75 -70l-33 -8l-21 -35l-14 -2l-27 6q-22 0 -47 -10l21 41l8 37q39 95 59 172h4v29l21 59l8 51h4l-10 33l10 62l7 22q3 10 28 43l-6 27l12 18q-18 48 -18 88
l6 33l-4 6v12q-28 19 -62 19q-11 0 -23.5 -6t-37.5 -54q-65 -22 -76 -28l-18 39q0 17 10.5 26t17.5 9h17l16 22l31 8l-12 8v11l38 -6l41 45l58 34l10 13h6l-10 14q8 -4 12 -4q8 0 8 18q35 42 74 47q12 31 45 33v10z" />
    <glyph glyph-name="o" unicode="o" horiz-adv-x="864" 
d="M586 922h51l33 -15q12 -53 39 -53q10 0 10 20q31 23 57 23q16 0 27 -11t12 -22l8 -114l-6 -23q-7 -23 -10 -49t-9.5 -41t-9.5 -19l-81 -86l10 -59l-21 -35l-10 -32l-63 -72l-31 -78q-28 -31 -80 -49l-14 -57l-58 -37l-51 -62l-92 -69l-27 -7l-104 -84l-29 27
q-34 26 -47.5 44.5t-13.5 33.5q0 8 6 14l10 86l-43 70q-6 9 -6 16q0 12 12 27v4l17 16l-19 50l6 104v27l15 8q-11 20 -11 47q0 15 13 31h18l-16 14l12 22l21 54l30 37l9 28l30 41q4 14 8 25v-2q0 16 7.5 26t23.5 37l49 25l4 14q50 40 99 49l67 13l45 26l33 -2zM524 743
l-4 -8q-18 0 -26 -0.5t-23 -13.5l-29 12l-110 -61q-41 -23 -70 -75.5t-29 -86.5q0 -21 9 -37h4q0 -23 12 -84l-25 -39l19 -28l-10 -35q0 -7 8 -24.5t7.5 -26t16.5 -35.5l-2 -21q0 -55 27 -55q22 0 59 31q9 26 35 28l10 31q17 2 17 16v7q5 3 11 6t7 4q12 39 47 88l7 -4l-3 8
l31 35l39 129l6 12l13 4l1 23v18q1 6 15 37l-62 49l48 19l-7 55l9 20l-13 -6z" />
    <glyph glyph-name="p" unicode="p" horiz-adv-x="1104" 
d="M524 641q26 36 74 55v6l47 33l4 -6v10l8 4l7 -4l69 52l4 -5l23 23l28 4l5 10l36 15h58l26 8q52 -33 52 -70l4 -4l10 -65h-4q-9 -19 -13.5 -32.5t-23.5 -51.5q11 -19 18 -27l-18 -10l18 -29l-10 -92v-41l-18 -43v-33l-23 -55q4 -4 4 -8q0 -9 -14 -29h4l-41 -102l-65 -70
l-9 -23l-32 -10q-9 -12 -19 -23t-25.5 -24.5t-28.5 -15.5l-34 -6l-51 -56l-47 -15q-10 -3 -21 -14l-26 -28l-88 -12l-84 -66h-52l-22 -74l-14 -61l-4 -47q-29 -71 -33 -84l-19 -64l-14 -32l-4 -47q-21 -33 -33 -69t-24.5 -64.5t-12.5 -43.5l-28 -36l-19 -66l-43 -59
l-37 -107l-37 -37l-12 -59q0 -1 -12 -20t-24.5 -27t-30.5 -8l-17 2l-45 55q26 7 47 61q22 16 25 37q9 29 22 29h4q15 11 15 18v4l-8 11q20 37 24 39l4 20q2 8 33 45q7 66 26.5 93t28.5 61h8l15 51q24 21 24 41v29l9 -5l-9 41q0 13 9 29l10 4q17 63 22 107l23 24l-4 27
q0 1 5.5 17.5t8.5 62.5h8q15 39 15 59q0 26 2 32t26 38l9 76l14 65l10 203l14 28l-24 48v45l-4 39l8 55l-23 102v41l-22 6q-3 1 -55 -47l-29 4l-37 -51q-6 -4 -14 -4q-15 0 -17.5 20.5t-11.5 53.5q15 6 18 18l11 -4q9 41 47 66l78 51l4 14h24l23 27q22 0 29 22l4 -4v33
q28 19 28 51h4l47 47h9q32 0 43 23l22 4q37 0 41 -8q22 -34 39 -51l-14 -29l14 -33l-51 -158q14 -14 18 -14q9 0 9 10l37 49q20 25 36 25h2zM737 399q-2 13 -11 44.5t-9 50.5l6 36v45q6 19 6 35l-2 17q0 24 -22 24l-9 -4l-28 -39q-7 -3 -14 -9.5t-42.5 -25t-58.5 -36
t-39 -39.5l-81 -118q-11 -18 -23 -26l-35 -24l-4 -23h-6q0 -21 10 -37l-23 -47l-10 -106l-41 -29q-2 -10 -2 -27q0 -25 10 -43q-8 -17 -8 -36q0 -23 18 -23q23 0 64 51q20 -14 37 -14q11 0 18.5 7.5t38.5 25.5l-4 4h12l-4 4l33 10v4h10l19 15v4h8v4l29 6q9 37 55 55
q5 8 18 15l19 36q21 65 43 103l-6 33l18 32l-4 27z" />
    <glyph glyph-name="q" unicode="q" horiz-adv-x="1133" 
d="M586 842q15 6 26 18q13 -3 19 -14q30 10 43 10h4l47 -18h27l6 8l30 -19v4l19 -4l14 -14h25q6 -8 6 -20q0 -24 -53 -91l-99 -24l-8 -19l-18 -8v-4h-29l-29 23l-30 4l-18 10q-7 4 -62 12v11l-55 -37q-37 -13 -58 -33l-12 -29l-33 -37q-20 -44 -43 -73l-8 -80l-29 -37h11
v-19q0 -23 -25 -83l10 -23l-14 -10l-4 -56l-29 -14l19 -18l6 -47l12 -9l51 33l57 66l31 18l29 41l65 66l56 73l84 95l58 47q10 7 25 25l34 39q18 22 36 54l27 15l15 14q9 8 21 11l29 8l15 22q13 -8 22 -8l66 18l4 -32l29 -23l-23 -10v-19l-10 -18v-10l-27 -27v-33l-10 -22
q-7 -43 -29 -76h11l-29 -45l-4 -51q-10 -28 -15 -66q-14 -11 -26 -47h-25l-8 -18h-6l10 -9l-22 -65l4 -25l-23 -45v-69l-18 -33l-10 -37q-43 -62 -48 -109l-8 -83l-14 -23l8 -37l-4 -10h4l-41 -125l-10 -18q14 -9 20 -19q-5 -12 -22 -31t-17 -30v-9q0 -25 -6 -34l-16 -21
l-8 -28q-21 -39 -21 -52q0 -24 45 -24l21 2v4l10 4v-4l8 4v6l10 -6v6l15 -6q22 -30 53 -24l61 16l62 -15l80 5l92 -17l98 12l41 -4q11 0 19 15l10 -6v6l37 -11l73 5l23 6q22 -13 45 -13l14 2h7l47 11v8h22l62 14h-15q49 22 49 51q0 13 -2 21t-2 29q0 31 35 43v4q0 10 12 10
q3 0 19 -4q22 51 33 59l32 -4l43 10q8 -25 23 -43l-18 -18l-5 -29l-28 -26l4 -95q-26 -29 -74 -77l-41 -19l-30 -26q-9 -7 -23 -11l-31 -10l-102 -4l-70 -6l4 6l-65 -6l-172 6l-97 -6v6q-23 4 -24 4h-8q-17 -4 -27 -4h-10q-16 -7 -37 -9l-43 -5l-47 8l-15 -8l-8 14v-10h-61
q0 -11 -8 -19l-33 11q-21 0 -51 -11l-19 4l-22 -8l-21 15l-59 -15h-23l-18 -22l-29 4l-22 -4v4q-17 -13 -25 -15q-12 8 -14 15q-8 -15 -19 -15q-7 0 -14 11q-29 -18 -49 -21q-21 10 -29 15l-14 -15h-33l-84 -37q-37 13 -41 19l8 18l-4 29l29 14v4q28 27 54.5 30t41.5 13
l10 -6l-4 19l15 6l-6 -6l10 -5q5 5 8 19l6 -4q5 2 8 14q37 0 47 33h9l-5 -6h11l4 6h8q6 0 29 18l10 -6v6q19 6 45 70l14 4l-4 33l15 41l8 -12h-2q26 8 26 30l19 19l-10 10l4 33l18 14l-4 37q20 40 31 59t13.5 32t4.5 35t6 50l6 -8l9 18l-5 33v4q0 34 33 37l4 4l4 -4l7 29
l-7 22l15 23v18l18 14l-8 48l8 28v37l25 14l-15 19l15 20q4 6 6 23l6 39l19 21q10 12 14 30l-23 61l4 37l-5 16q-3 7 -13 58l-14 6l-27 -37l-61 -71q-39 -54 -52 -60q-21 -72 -69 -106l-45 -33l-62 -66q-51 -3 -71 -21.5t-36.5 -35t-54.5 -49.5l-10 4q-9 -9 -21.5 -14.5
t-37.5 -26.5v-10h-15l-18 -8l-10 18q-23 11 -23 37v8q-35 20 -35 45q0 13 10.5 43.5t10.5 57.5l4 -5l-4 19h4l14 51l19 111l14 32q0 1 3 6t5 9l-4 8v10q4 3 20.5 36t16.5 38l-18 22l14 7v14q8 12 18 22l5 37l6 -4v8l-6 15l24 4l-4 39v6q0 17 18 20q10 -6 19 -18l4 18
q0 11 -8 11h-2l6 32q14 8 27 23q19 24 40.5 42.5t22.5 19.5q5 8 19 16t43 22q6 2 32 35l-4 -10l73 48q17 10 48 18t55 28z" />
    <glyph glyph-name="r" unicode="r" horiz-adv-x="807" 
d="M446 920q24 -11 27 -33q-27 -29 -27 -84v-15q-10 -10 -10 -20q0 -11 4 -16h6l-6 -29l-18 -4l-8 -33h-6q3 -17 14 -22q25 2 80 63l4 -4l102 76l19 4l47 26l37 11q35 30 110 32q34 -20 45 -20q13 0 13 -8q0 -7 -9 -41l-43 -25l-24 -30l-70 -33l-26 12h-19v-4
q-72 -28 -131 -41q-28 -55 -103 -144t-77 -135l-6 -145l-39 -65l4 -91q-4 -16 -13.5 -33.5t-13.5 -30.5t-28 -50l-18 -5q-7 -1 -54 -38h-51l-23 -8l-33 32q0 29 21 72t24 63q14 99 52 117l10 29l-4 18l8 15l-27 45v14l-6 88q14 10 19 10q8 0 18 -10l39 51l-6 37l10 43
l-24 19v102l-37 -29h-23l-33 -22l-32 8l-33 -4q-27 0 -27 18q0 30 30 71t91 75v4l27 4q16 29 37 29q12 5 27 19.5t67 39.5l26 -14l21 10l31 8z" />
    <glyph glyph-name="s" unicode="s" horiz-adv-x="668" 
d="M485 1026l33 -8l19 -29l18 -8l-14 -51l-45 -27l-183 -88l-28 -49l6 -55l63 -95l13 -43l36 5l39 -37v-37l19 -8l69 -131l21 -31q-8 -37 -8 -51l4 -15l-19 -28l-32 -68q-59 -51 -72 -80l-27 -4l-4 -14l-127 -99q-52 -52 -78 -59l-120 -33q-18 -24 -43 -37l-19 37v23l-14 18
l39 29q12 22 17 26l10 9q5 4 48 14q23 23 37 23h15q29 24 41 36h14l4 11l14 4l9 30h8l18 29l29 12l8 25l10 8l19 62l-15 32l-41 121l-96 68q-24 33 -43 55l-8 33q-4 16 -23 43l-10 4l-14 39v14q-7 37 -14 49l26 66l10 -4v29l23 18v12q36 26 51 43h19v-14l18 37v-8q1 6 39 22
q3 15 22 19q31 41 33 47l19 4l14 -4l8 8h33v6l57 17q9 1 41 20z" />
    <glyph glyph-name="t" unicode="t" horiz-adv-x="926" 
d="M647 1174q0 -21 -33 -74v-19l-22 -51v-33l-29 -69v-10q0 -23 15 -23l32 10q31 -18 52 -18h45q62 16 94 16q37 0 80 -6v-6l37 -4l34 -41l-32 -41l-58 -8l-57 -31l-22 -4q-11 -2 -33 -17l-62 7q-6 -9 -55 -11l-103 -4q-45 -31 -59 -47l4 -51l-14 -23l-8 -73l-25 -33l-4 -88
l-25 -14l-4 -25l15 -51l-19 -185l41 -159l47 20q13 27 51 27h19q49 16 74 55l47 14l-6 5l14 18q19 14 24 25l29 10l8 18q15 0 15 15q18 31 88 51q14 -7 14 -19q0 -18 -18 -68t-47 -71l-56 -39l-17 -23q-9 -14 -23 -20l-36 -16l-28 -8l-60 -54l-36 -4l-46 -37l-19 -19
q-5 -5 -21 -11l-127 -50l-29 -4l-23 -18l-47 31l-14 61l-15 32q-6 15 -40 214q2 7 18 35v35l25 10l30 84l-10 28q42 8 45.5 12t3.5 9q0 4 -10 24l33 99l10 88l45 121q-4 22 -29 43.5t-49 25.5l-39 -24h-12q-29 0 -41.5 7t-13.5 7q-9 0 -23 -10q-9 -21 -24 -21h-4
q-5 -2 -17 -2q-11 0 -39 4q-20 56 -20 68t14.5 45t30.5 33l14 -2l29 8q28 8 39 8h6q4 -2 12 -2q10 0 17.5 4t17.5 4q13 0 18 -4l37 19h11q15 0 27 4t30 41l22 -4q3 20 25 59q18 1 18 29v12l-6 -8q15 39 25 59l-6 39l43 82q18 27 47 33q20 30 67 59t62 29q35 0 43 -31
l-29 -57v-51z" />
    <glyph glyph-name="u" unicode="u" horiz-adv-x="1421" 
d="M528 948l31 -37q-24 -44 -37 -80l-37 -22l-8 -23l8 -6v-18l4 -8l-8 -11v-22l-14 -33l-14 -10q-16 -43 -23 -74l-22 -18l-7 -33l7 -4l-25 -29v-22l-8 -11l12 -55l-12 -47l8 -55l10 -41v-37l8 -47l-8 -19v-55q29 12 41 27l19 -4v14l47 45l22 14v11l37 32l10 33q24 12 37 27
l4 -8v18l21 18v-10l8 14h14v11l4 8h19l4 14l-4 23l69 57q11 8 14 17l11 24q19 11 37 14l4 15l10 8h13v18l6 -14v18q9 17 18 21l4 12l47 51h19l18 19l19 39q48 53 55 69l29 5l26 47l-8 -25l37 29l22 -15l29 19h37l18 -15l7 -36l-17 -16q-8 -7 -22 -40l6 -18l-10 -33v-14
l-15 -15v-26l-18 -6v-52l-4 -22l4 -23l-19 -18l11 -25l-11 -18l11 -45l-11 -25v-176l11 -37l18 -14l37 4l18 -18l-4 -23l-24 -10l-9 -23l-18 -4l-14 -24h-15l-8 -23l-43 -14l-14 -27l-56 -10l-22 -23l-47 -10l-23 15l-18 59l18 25l-10 18l14 18l19 4l22 140v18l-12 25l19 8
l-7 18l7 25l-19 8l-10 14l18 15v22l11 25q-27 21 -37 22l-6 48h-19l-14 8l-19 -33l-102 -111l-19 -14l-4 -14l-79 -92l-9 -19l-84 -98l-102 -111l-31 -17q-6 -3 -20 -26q-43 -16 -47 -18v-10l-13 6v-29l-28 -18l-37 4l-37 -27l-6 14l-23 13l-4 24q-15 11 -24 33l-23 8l-8 23
l-14 160l14 59h8v43l23 18l-4 19l14 33h18l4 12l-4 28l15 5l4 32l4 4l-12 15l12 28v33l6 70h8v33l19 22l-15 19l15 24l-5 12l19 37l-29 33l-18 -4l-4 -18l-27 -5l-10 -24h-33l-14 18l-111 -37l-29 48l37 36q29 12 37 37l33 6v9h29l37 4l24 43l37 -11l41 11q3 8 14 16h33
l-4 6l8 4h23l6 11q22 8 45 32h18l15 19l14 4l14 -4l19 10l10 -10l8 18h10z" />
    <glyph glyph-name="v" unicode="v" horiz-adv-x="1282" 
d="M1233 1206l14 -22l-4 -10l29 -15l22 6l9 -24l-5 -23l-18 -14q-9 -41 -14 -53l6 -21l-21 -4l-12 -43l-18 -8v-19l-25 -14l4 -43v-18l-12 -9q-6 -27 -29 -79l-51 -117l-41 -70l-25 -8v-31l-96 -151l-26 -66l-72 -94l-29 -23v-14l-31 -10h-10l-33 -51l-18 4l-31 -43
q-38 -22 -55 -39h-20l-19 -25q-56 -43 -61 -55l14 -18l-29 -11q-8 -8 -37 -26v-25l-14 -8h-12l-16 -21q-9 -12 -18 -17l-28 -13l-14 4l-18 -8l-27 32q-7 27 -14 31v66l-33 135l18 33l-51 84l14 36q-2 19 -18 37l14 23l-14 28h8l-4 23l4 25l10 4v32l-36 29h14l4 8l-4 29
l-21 4l-8 23l8 6v55l7 8l-15 6l-10 37l-12 8l-6 -4l-15 11l-18 -11h-19l-14 -22l-18 4l-19 -23l-18 4l6 -14l-25 -14l-26 24l-11 41l41 52l21 -5l55 52l27 14q35 23 39 23h8v-19h10l-6 14l61 23l15 -4l-6 4h18l10 4l-14 6h10l15 19l26 8l10 12h27v10h10l9 15h28l19 -19
q17 -5 18 -8l-8 -33l8 -32l-27 -56l5 -61l-5 -23l13 -51v-102l12 -89l1 -18q1 -6 11 -33l41 -102l10 -10v-33l9 -27l-19 -32l15 -23l120 107l56 45l20 61l31 8l-4 10l14 13l10 -4l9 47q30 35 73 88l19 29l14 16l3 13q1 5 24.5 35t37 49.5t35.5 72.5l25 10l10 39l15 18
q13 26 41 56v22l14 19l3 19q1 9 9 23l17 25q8 13 22 23l14 37l-24 37l-23 -11l-14 6l-23 -38h-24l-23 -31h-22l-10 8l-23 -18l-29 -4l-14 14l25 22v19q16 20 18 28l23 13l28 47l8 4l19 20q16 10 33 31h18l18 33l11 -8l28 8l23 -4l18 4z" />
    <glyph glyph-name="w" unicode="w" horiz-adv-x="1663" 
d="M1577 1149l45 -10v-9l14 5l26 -23q7 -6 15 -25l29 11l4 -19l19 -28l6 -66q-26 -35 -43 -51h18l6 -19l-14 -18l14 -8q-28 -32 -28 -39l-23 -4v-23l-18 -37h-15q-13 -14 -33 -28l-4 -33l-14 -18l-14 4l-4 -27l-25 -29v4q-41 -46 -51 -51l6 -12l-18 -10l-10 -16
q-5 -7 -33 -25l-16 -33q-6 -12 -32 -33v-18l-165 -168l-56 -74q-29 -21 -39 -47q-4 0 -41 -41l-18 -35q-4 -8 -24 -23l-42 -32q-4 -40 -8 -59h-14l-6 -11l-19 11l-55 -29h-14l-9 -27l-18 8v11l-18 4l4 -10l-33 -13l-29 64l-18 10l6 33l-20 37l6 28l8 8v19l10 43
q-24 29 -24 70l6 51l-43 41l-37 51l-8 37v6l-19 27h-10l-19 -52v-55l-149 -135l-12 -25q-6 -12 -29 -34l-4 4l-10 -23l-11 -6l15 -19l-15 -8l-8 -61l-41 -8l-47 -58l-24 -22h-19l-8 -23q-25 12 -43 64q-30 6 -37 14q8 25 33 47l-4 19l18 32l4 93h-14l20 10q-22 54 -28 88
q7 3 18 55q-28 54 -61 88l-8 43l8 15v18l14 23l-8 36l-27 31q-6 6 -10 17l-10 28l-29 -10l-4 -10h-27l-10 32l29 33l37 66l18 10l-4 4h12v4l25 4l41 43h33q10 5 28 27v-8l27 14l33 -6h37v-27l10 -37l-10 -28l6 -10l-11 -5l-4 -36l4 -37l-18 -29l4 -27v-18l-14 -6l-8 -19
l4 -59l-4 -25v-59l-4 -4l-7 -47l15 -33v-37l10 -10l8 -45l25 -10q20 39 30 41v20l15 -14l10 18v15l14 4l9 18l18 10l-4 13q23 5 41 18l10 25v14l4 12l10 -4l-10 23h19l18 20l57 78q22 12 33 14v15h8v18l4 -4v18l29 13l60 84l6 -4l4 14l18 4l10 14l5 -4l8 33l51 41h18v-10
l21 -27h8l14 8v6l33 -14l-10 -29l-23 -14h-22l-10 -22l61 -15l-14 -18l-19 -4l-28 -29l4 -51v-19l6 -22l-10 -29l28 -88l-6 -29l25 -30l26 -90l6 -41l-6 -29l15 -18l24 6q35 51 37 55h12l7 4h14l4 14l4 -18v41l47 29l41 55l67 77q9 11 36 25v15l32 28l4 13l7 -4l4 14
q26 15 41 33l61 73l37 37v4l10 15l23 24q22 32 32 37l9 27l14 14l37 55v43l10 29l-55 31l-29 -4l-10 10l-4 -10l-26 2q-11 2 -52 22l-14 -10l-15 4l-10 -14h-12l-39 -31l-19 8l-26 -28h-25l-8 20l33 12l18 58l8 4l33 59l76 33l78 14l14 10h19l32 19h29z" />
    <glyph glyph-name="x" unicode="x" horiz-adv-x="1075" 
d="M852 995h37l22 -4l7 -10l55 -33l10 -13q4 -5 37 -24l12 -28l-8 -4l4 -23h29l18 -25l-24 -26q-32 -12 -45 -25q-15 -50 -29 -63l-19 4l-116 -88q-17 -17 -27 -19l-18 -28l-19 4l-28 -27q-27 -17 -33 -24l-19 6l-4 -15h-6v-10q-20 -19 -59 -33l-11 -26l-18 -15l-8 -32
l-19 -11l-6 -26l11 -47l22 -19l14 -51l-8 -4l12 -23l25 -14l20 -22q3 -2 9 -5l41 -20h8l10 -14h4q19 -30 37 -37l10 -23l37 -6l8 -69h-18l-4 10q-13 -20 -37 -29l-4 -14l-14 -8l4 -29l-15 -27q-28 -13 -41 -32h-10l-33 -25l-8 14v11q-31 37 -47 40v29l-27 37l5 33l8 4
l-45 61l-37 41l-6 47l-9 15q-28 72 -55 73l-51 -57l-35 -51l-41 -19l-22 -34l-43 -45l-27 -19l-14 -37h-15l11 -24l-25 28h-8l-14 -14l-5 -18l13 -19l-23 -10l-14 14l-19 -4l7 -47l-39 6l-41 -61l-23 4l-6 18l14 11l11 36l-11 11l15 55l22 22l25 15q18 28 45 55l13 4
q5 2 24 21h6l4 18l18 14l14 6q5 3 38 37l16 37l49 43l14 4q16 22 52 48l4 26l14 6v31l-18 25l-7 20q-4 12 -11 19l-19 20l4 131h-10l-4 14q-33 8 -70 64l-55 14l-15 -22l-116 -103l-15 -22h-31l-6 12l11 18q22 25 45 58l7 18q2 7 19.5 25.5t26 29.5t23 17t51.5 39l8 -4l6 18
h8l23 23l14 6q17 21 33 33h28l19 12h4v6q57 25 70 33v8l47 -4q18 -29 27.5 -63.5t9.5 -38.5l-5 -23q19 -24 19 -39l-4 -18q7 -19 22 -37l-4 -33l8 -55l-4 -29l15 -8l4 -19l22 -14l15 10l7 13q3 6 22 19t32 13h8l29 47l14 5l111 98v8l-19 6v13l-18 6v14l-29 31l-41 -4l-28 32
l10 52l47 41l18 4q9 2 33 20h23l4 8z" />
    <glyph glyph-name="y" unicode="y" horiz-adv-x="1329" 
d="M754 -582l10 -43q-27 -40 -35.5 -71.5t-21.5 -61.5t-13 -43l-28 -37l-19 -65l-43 -60l-37 -106l-37 -37l-12 -59q0 -1 -12 -20t-24.5 -27.5t-30.5 -8.5l-17 2l-45 56q34 25 47 61q22 16 25 37q9 29 22 29h4q15 10 15 18v4l-8 10q20 38 24 39l4 21q2 8 33 45q6 63 26 90
t29 64h8l15 51q24 21 24 41v28l9 -4q0 17 4 32.5t4 18.5v3l33 110l47 125l12 43l14 14q22 44 29 45l4 66l10 4v25l8 8v10q22 49 29 59l-10 27q15 48 24 62h9l-4 32l4 25l-9 31l31 32v131l-4 60l4 33l-37 127l-4 -15l-14 4l-41 -41h-14l-11 -18h-8v-10l-18 -4l-15 -37
q-32 -29 -36.5 -34t-10.5 -36l-26 -10l-13 -16q-6 -7 -30 -21l-4 -18l-23 -11l-10 -22l-29 -10l-19 -36q-3 -5 -32 -24l-12 -24q-30 -18 -52 -41l-10 4l-8 -23h-10l-8 -14h-29l-4 -19q-28 -15 -33 -22l-6 4l-12 -14q-20 -3 -33 -15l-10 11l-15 -15l-22 -4l-29 19h-18l-13 14
l4 115l-4 163v23q26 19 31 37l-4 24q0 16 14 33l-4 60l19 32l-4 52q0 18 12 36l-8 70l8 6l-4 31l-33 24q-18 -14 -37 -55l-40 -17q-7 -3 -25 -26q-20 -3 -33 -14l-37 51l4 33l6 -15l15 15h-11l19 14q11 21 24 32t56 19l4 15v-33l10 47l106 74l88 69l41 15l62 37h22l16 -8
q7 -3 32 -35l-37 -46l4 -14l-10 -18l-5 -66l-18 -84l4 -4l-8 -18l-10 -4l6 -19l-10 -65l-23 -29l-6 -199l6 -39l-10 -18l18 -84h15l41 47l6 14l18 5l23 28l14 4l22 23l25 20l27 8l51 66l51 37l51 65h11l96 93l18 24l6 -10v74l4 32l11 11h-6l3 20q3 12 9 19l16 20h15l25 26
q7 7 18.5 11.5t25.5 9.5h27l14 8l10 -26q29 16 41 18l11 19l18 10v12l18 -12l9 -21q-26 -54 -27 -73q14 -9 33 -15v-12l-19 -10q-15 -37 -24 -47l4 -45l-8 -19l4 -20l-8 -41l-15 -4l-10 -33l10 -29q-47 -78 -47 -96v-14l-8 -11q-12 -53 -18 -55v-14l4 -4l-25 -19l-4 -69
l10 -27l-10 -49l-14 -27v-18l-23 -56l-10 5l-8 -19l-3 -17q-1 -7 -16 -30l8 -18l-8 -23l-10 2l14 -16l-4 -19v-18l-22 -6l4 -8q-20 -31 -29 -76l-8 -8l-6 -37q-27 -27 -27 -43l4 -41l-10 -11h-12l4 -45l-23 -18l4 -18q-28 -39 -28 -62v-10l-8 -19v-18l-25 -27z" />
    <glyph glyph-name="z" unicode="z" horiz-adv-x="1110" 
d="M582 971h22l10 -4l-6 -9l15 9h14l65 -15l13 -8l-4 8l37 6l47 -10l32 10h4l17 -4l29 4l2 -10q39 11 59 19q22 -8 33 -23l39 8q7 -40 20 -55l-8 -23l-33 -14l-41 -29l-22 -40l-62 -48l-18 -4l-8 -22l-25 -6q-11 -38 -37 -52v-12l-33 -39l-77 -55l-33 -47h-25l-4 -12
q-27 -30 -29 -43l-40 -19l-19 -29l-18 -8l-56 -73q-32 -25 -39.5 -34t-11.5 -24q-36 -35 -51 -37q-26 -35 -43 -51l-8 6v-20l-70 -45l4 -56l27 5l43 -15l18 4l37 -18l19 10q19 -13 28 -37h19l28 13l27 -9h37l29 -14l22 14h18l33 -10h15l4 -14h28v10l19 4l28 -8l9 8v10
l43 -10l22 6h-18q14 7 28 23v-10l9 28v37q27 24 65 37l19 25l73 36l6 -14v-4h13q26 26 39 27l22 -41l-7 -11q-3 -4 -11 -55l-19 -14q-21 -27 -37 -33l5 -8q-32 -14 -43 -33q-17 -2 -46 -18l-10 -29l-14 10l-19 -24l-18 10l-22 -23l-13 -4q-6 -2 -30 -24h-23l-18 -9l-19 9
l-43 -23l-27 8l-24 -4l-12 10l-43 -10l-4 4l-33 -8h-29l-12 -6l-47 10h-135q-22 -5 -41 -18l-25 18h-45q-34 5 -47 15l-29 -5l-22 13h-52l-36 -23h-15l-14 -10l-41 39l-4 18q4 9 8 41q18 19 18 37v10l11 -4l4 41l33 33l88 37l55 33l-8 -11l26 11l11 14l8 -6v6l39 27l55 61
l23 14l4 19l6 -10l18 32l19 11l4 12l22 14l6 14h4q11 17 52 48l8 -7l14 15q20 47 58 65l12 29l33 8l18 19l-4 36l53 39q8 4 21 23h10l14 22v11l51 51l13 18l6 19l8 14v19l-22 -5l-15 41q-20 -8 -26 -14l-7 14l-14 -8h-125l-8 -14l-76 4l-8 4h-25l-12 -4h-6l-18 -18h-9
l-6 -11h-12l-18 -4v-8h-21l14 -20l-4 -13l11 -33l-11 -18l-14 -6l-14 -23l-4 11q-24 -25 -41 -52l-58 -18l-22 12l14 29l-4 37l4 33l14 10l19 -6l14 18l-24 57q9 47 32 64l99 70h18v10l59 28h76l27 -6l-8 11h45z" />
    <glyph glyph-name="braceleft" unicode="{" horiz-adv-x="1110" 
d="M631 795q-18 -21 -26 -26.5t-18.5 -9t-19 -3.5t-35.5 -15q13 -30 41 -36l25 -41l-6 -39l10 -31l-18 -21l8 -22l-4 -21l-8 -2q2 -9 2 -26q0 -20 -13 -29q0 -21 -12 -37l8 -14l-6 -16q-24 -29 -24 -64l2 -16q-25 -28 -25 -47l2 -9l-6 4l8 -51h6l-6 -18h4l4 -47l-8 -2l4 -2
l-8 -11l-4 4l2 -20v-43l22 -27v-28l5 4l-15 -25l6 2l21 -33l6 -2l-2 -12l18 -6q5 -17 27 -20l45 -7q25 -14 49 -14l17 2l2 -8h14l6 6q29 -20 29 -43v-18q-18 -4 -25 -13q-58 -18 -88 -18q-12 0 -20 4l-56 29l-63 18l-49 41l-37 6l-35 29l-29 78l-6 84q-8 7 -8 14l8 27l-4 30
l19 52l-2 20q0 36 16 63l14 25l15 45q32 33 32 70q0 10 -2 16l-6 31q0 3 23 63l-11 31l19 6l-16 43q-15 15 -15 29l2 12l-22 21l-19 -6l-14 26q-17 -14 -31 -14q-12 0 -20 8h-27l-20 16q10 74 67 63q16 -3 29 -3q23 0 39 18l4 -16l29 14q12 -4 20 -4q20 0 36.5 19t16.5 61
v22l15 17v35q20 35 20 61v19q0 7 8 18l11 43l8 47q19 45 32 88q27 22 70 84v2q0 3 17 27t65 59l-8 6l29 13l14 34l106 23l97 27q18 6 28 6q7 0 25 -9t18 -24l-2 -12l-1 -24l-1 -19q0 -6 -16 -39l-41 10l-10 16l-33 -12l-31 4l-24 -6q-26 -23 -64 -53q-1 -19 -31 -44.5
t-30 -35.5l2 -21l-25 -24l-16 -2l4 -10q-7 -9 -8 -60l-21 -26l2 -23q-61 -119 -61 -149v-7q-19 -67 -24 -76.5t-5 -29.5v-17q-16 -15 -16 -24t4 -12z" />
    <glyph glyph-name="bar" unicode="|" 
d="M449 1565h126v-2048h-126v2048z" />
    <glyph glyph-name="braceright" unicode="}" horiz-adv-x="1110" 
d="M502 551q26 39 73 39l25 14q-12 31 -39 37l-26 43l6 39l-11 31l21 20l-10 21l6 22l8 2q-4 23 -4 29q0 15 12 24q0 21 15 39l-11 13l8 18q23 26 23 62l-2 18q25 28 25 47l-3 8l9 -4l-11 51l-6 -2l8 21h-4l-6 47l10 2l-6 2l9 10l6 -4l-4 19l2 45l-25 26l2 29l-6 -4l14 22
h-4q-22 33 -26 35l2 12l-21 5q-4 19 -24 22l-48 6q-25 15 -49 15l-14 -2l-2 6l-14 2l-7 -8q-30 21 -30 43v18q17 8 46 12t62 12.5t54 8.5q10 0 18 -4l55 -29l64 -18l51 -41l2 6l20 -41l31 -78l4 -84q8 -3 8 -14q0 -13 -8 -29l4 -29l-16 -51v-84l-29 -24v-46q-32 -33 -32 -69
q0 -11 2 -17q-15 -19 -41 -94l20 -30l-20 -7l4 -43q12 -9 12 -26q0 -11 -2 -17l37 -18l20 4l15 -25q17 15 30 15t21 -8h24l21 -19q-10 -70 -64 -60q-18 3 -30 3q-24 0 -39 -19l-6 17l-29 -15q-16 7 -29 7q-45 0 -45 -82v-25l-12 -14v-35q-23 -39 -23 -62l2 -18
q0 -3 -5 -13.5t-9 -30t-14 -64.5q-19 -45 -33 -91q-25 -19 -70 -84v-2q0 -5 -21.5 -31.5t-57.5 -52.5l8 -8l-29 -12l-14 -33l-43 -12l-17 -12l-96 -25q-18 -6 -29 -6q-12 0 -26 10q-35 3 -35 27q0 8 2 12l-23 23l3 36l47 11l20 -19l27 13l30 -7q19 0 32 12.5t54 47.5
q2 19 33 44t31 36l-2 20l22 25l17 2l-4 10q6 8 8 59l20 27l-2 25q62 119 62 149v6q19 67 23.5 76.5t4.5 28.5v16q17 16 17 25q0 8 -4 12z" />
    <glyph glyph-name="asciitilde" unicode="~" horiz-adv-x="1706" 
d="M1530 758v-131q-201 -144 -387 -144q-57 0 -112 13t-178 57t-183 56t-107 12q-160 0 -385 -160v133q211 145 387 145q75 0 143 -18t207.5 -68.5t229.5 -50.5q165 0 385 156z" />
    <glyph glyph-name="Adieresis" unicode="&#xc4;" horiz-adv-x="1628" 
d="M997 1511l47 -6l23 -37l-4 -45q3 -13 5.5 -22.5t8.5 -61.5l8 -24v-37l23 -23v-14l33 -260h10l14 -18h-32q19 -55 32 -113l33 -12l31 26l33 -14h14l4 -4l6 4q4 -4 41 -8l51 37l80 -5l4 15l51 -15l89 23l18 18q10 11 26 16l40 13l18 -29h33l14 -41q-19 -39 -37 -57l-10 6
l-80 -84l-41 -28h-98l-55 -15l-48 11l-96 -41l-6 4l-59 -25l14 -217h4v-10l-14 -15l14 -12l4 -47l10 -10l-10 -19l19 -26l10 -80l14 -19l14 5l5 -13l-2 -14h-13l4 -117q-18 -30 -37 -51l-36 -4l-11 -29l-26 4l4 -26l-16 -20q-7 -9 -54 -38l-35 29q-6 4 -14 22l-12 29v56
l-19 88l-8 14l8 57l-8 49l19 39l-23 82q9 19 12 51l-8 15l8 43q0 18 -12 74l18 40l-6 66l-30 18l-21 -8v8l-45 -4l4 -28l-22 6l-25 -6l-6 -4q-46 -23 -90 -23l-29 4l-59 -18l-62 -11l-4 -26l-43 18v-18h-8l-29 -29h-41l15 -41l-39 8l-60 -36l-14 -15l-33 10l-37 -28h-36v-27
l-37 -6l-15 -33l-18 -18l-25 -64l7 -6q-3 -9 -33 -37l-4 -55l-29 -22l4 -11h-14v-22l-33 -25v-8q-7 -7 -23 -37h-8l-24 -70l-9 13v-8l-24 -19l-6 -19q-2 -10 -21 -28l-37 14q-6 17 -10 19l4 14v8l6 19q-11 19 -14 76l14 -7l-10 11v14l4 4l-8 25l8 18l-10 23l6 8q-2 22 -4 61
l19 15l55 -43h33l116 145l-18 12l4 21l-37 -15l-6 -10l-8 4l-23 -12q-10 -6 -43 -10l-33 43q24 61 43 69q0 11 33 45l23 7l-4 4l37 51h4l88 18l10 -18l18 4l4 -4h11l8 18l29 -4v8l22 19l-14 24l18 27l47 18l-4 11l6 15q2 7 31 32q19 76 41 88h-8l47 59l4 -4l70 111h-4l26 39
h6l56 102h8l47 78l14 4l23 43q4 4 18 45l33 25v4l18 47l11 4l4 37h14l4 14h4l11 23l79 47zM840 1212l-33 -8v-14l-33 -33h-10l-45 -65h-4l-33 -64v-10l-12 -18q-6 -11 -17 -17l-28 -16l-13 -33q-6 -14 -10 -70l-18 4l-4 -26l-37 -29l4 -4v-23l-33 -14l-26 -73
q-7 -21 -15 -33l-24 -33l4 -6v-4l10 -5h59l25 -14l78 47l65 4l4 -14l6 25h37l66 18l18 -6l41 14v4l62 21v4l77 18v23l-26 24v78l22 51l-22 15l-29 -15l-37 52l52 4v14l-62 14l6 15l-18 22l12 19l-33 51l6 10l9 4l-15 15l-12 69zM1302 1900l84 -41l19 -43l43 -63l-49 -37
l-8 -20l-46 -27l-6 4v-14q-26 -36 -88 -45l-14 -25l-41 66l-66 55l5 51q23 33 41 37l20 29l4 -4q5 9 33 22l4 -4q3 27 22 37zM739 1859q3 15 19 15q24 0 47 -51h33l41 -29l38 -70l-75 -59l-103 -103l-14 -10q-20 8 -37 51l-18 5l-47 112l-19 8l12 28q7 15 17 24l13 4
q5 2 38 32q13 0 19 9.5t32 38.5v-5h4z" />
    <glyph glyph-name="Aring" unicode="&#xc5;" horiz-adv-x="1628" 
d="M997 1511l47 -6l23 -37l-4 -45q3 -13 5.5 -22.5t8.5 -61.5l8 -24v-37l23 -23v-14l33 -260h10l14 -18h-32q19 -55 32 -113l33 -12l31 26l33 -14h14l4 -4l6 4q4 -4 41 -8l51 37l80 -5l4 15l51 -15l89 23l18 18q10 11 26 16l40 13l18 -29h33l14 -41q-19 -39 -37 -57l-10 6
l-80 -84l-41 -28h-98l-55 -15l-48 11l-96 -41l-6 4l-59 -25l14 -217h4v-10l-14 -15l14 -12l4 -47l10 -10l-10 -19l19 -26l10 -80l14 -19l14 5l5 -13l-2 -14h-13l4 -117q-18 -30 -37 -51l-36 -4l-11 -29l-26 4l4 -26l-16 -20q-7 -9 -54 -38l-35 29q-6 4 -14 22l-12 29v56
l-19 88l-8 14l8 57l-8 49l19 39l-23 82q9 19 12 51l-8 15l8 43q0 18 -12 74l18 40l-6 66l-30 18l-21 -8v8l-45 -4l4 -28l-22 6l-25 -6l-6 -4q-46 -23 -90 -23l-29 4l-59 -18l-62 -11l-4 -26l-43 18v-18h-8l-29 -29h-41l15 -41l-39 8l-60 -36l-14 -15l-33 10l-37 -28h-36v-27
l-37 -6l-15 -33l-18 -18l-25 -64l7 -6q-3 -9 -33 -37l-4 -55l-29 -22l4 -11h-14v-22l-33 -25v-8q-7 -7 -23 -37h-8l-24 -70l-9 13v-8l-24 -19l-6 -19q-2 -10 -21 -28l-37 14q-6 17 -10 19l4 14v8l6 19q-11 19 -14 76l14 -7l-10 11v14l4 4l-8 25l8 18l-10 23l6 8q-2 22 -4 61
l19 15l55 -43h33l116 145l-18 12l4 21l-37 -15l-6 -10l-8 4l-23 -12q-10 -6 -43 -10l-33 43q24 61 43 69q0 11 33 45l23 7l-4 4l37 51h4l88 18l10 -18l18 4l4 -4h11l8 18l29 -4v8l22 19l-14 24l18 27l47 18l-4 11l6 15q2 7 31 32q19 76 41 88h-8l47 59l4 -4l70 111h-4l26 39
h6l56 102h8l47 78l14 4l23 43q4 4 18 45l33 25v4l18 47l11 4l4 37h14l4 14h4l11 23l79 47zM840 1212l-33 -8v-14l-33 -33h-10l-45 -65h-4l-33 -64v-10l-12 -18q-6 -11 -17 -17l-28 -16l-13 -33q-6 -14 -10 -70l-18 4l-4 -26l-37 -29l4 -4v-23l-33 -14l-26 -73
q-7 -21 -15 -33l-24 -33l4 -6v-4l10 -5h59l25 -14l78 47l65 4l4 -14l6 25h37l66 18l18 -6l41 14v4l62 21v4l77 18v23l-26 24v78l22 51l-22 15l-29 -15l-37 52l52 4v14l-62 14l6 15l-18 22l12 19l-33 51l6 10l9 4l-15 15l-12 69zM1092 1922h14q15 -6 32.5 -20t38.5 -36
t58.5 -66.5t41.5 -59.5l9 -37q-20 -15 -20 -35l-27 -33h6l-47 -59l-45 -33l-47 -45q-47 -10 -82 -25l-51 9l-49 -9l-21 21l-37 8q-26 54 -36 72t-20 43t-15 102l12 -6l4 31l4 -4q6 29 31 32l-6 13l6 4h10v16l10 -4q6 23 17 23q2 0 8 -5l6 17q12 3 14 10l6 -10l7 4v10
q0 15 20 15l8 -5v5h17l4 16l6 -4q12 8 14 20l10 -4l17 4q12 -6 22 -6t23 10zM1061 1807l-68 -35q-71 -35 -71 -112q0 -58 49 -64v-4l32 -4v4h11l28 6q12 28 41 33q0 10 9 19v6l2 -4l22 28v6q21 12 21 29q0 21 -28 47z" />
    <glyph glyph-name="Ccedilla" unicode="&#xc7;" horiz-adv-x="1473" 
d="M559 39l-4 -19v-32l-6 6q-1 -56 -10 -64l4 -61l-15 -23l25 -36l18 8l41 -8l15 -15l28 4l23 -37l20 -20q13 -12 16 -24l11 -33l-10 4l-15 -19v15l-14 -19h-12q-27 -28 -39 -28l-4 -15l-19 -8l-4 -29l-14 23l-8 -27v-14h-29l-4 -14l-18 -5l8 -24h-19l-4 -19l-43 -22l-4 -19
l-18 9l10 -19l-25 -4v-4q-25 -26 -32 -29l-23 7l-4 -25h-25l-32 37q16 24 18 51q15 13 76 51l18 10l20 22q9 11 36 26l6 18l14 12q23 15 38 32t36 58l-19 19l-18 -8l4 12l-23 -4l-18 4v-8l-20 14l-5 -10l-22 4l-76 49q18 17 37 57l-8 19l28 51l15 74l-49 37l-131 22l-13 23
l-84 28l-47 52l-14 55l-23 18l-28 66v51l14 20l-6 23l6 27l29 55l-15 43l15 8l18 51l-6 56l33 14v37h18l10 43h5l10 14l-10 8h10l4 13v45l61 45l-6 10l43 59h4l15 29l26 8v19h10l5 24l47 56l8 4l6 10q22 22 23 27l10 6l18 32l70 64l33 40q8 11 20 18l31 18l4 14l51 18l-4 9
q23 20 41 24v4l14 23l37 14q49 43 74 51l65 23l19 -8l22 8h7l26 -8l6 -25l13 6l6 -6v-12l14 -39l8 -147h-4l4 -5l-22 -102l-6 12l-9 -51l4 -20l-18 -25h-4l-2 -16l8 -29l-10 -35v-8h-25l-18 -47v-4h-4l-51 -62l-19 -8l-10 -24l-19 10l5 -33l-9 -14h-18l-4 10l-43 18l-19 41
l4 33l7 4l65 176l45 54l10 59l-14 106l-53 15l-41 -4l-27 -15h-4l-20 -28l-74 -45l-29 4l-22 -29l4 -4v-4l-23 -6l-4 -19q-27 -21 -65 -55q-4 -8 -37 -47v-4l-23 -15v-8l-24 -10v-14h-4l-47 -70l6 -8l-58 -113l-22 -8v-10h12l-6 -47l-14 -27l-19 -84l-20 -18
q-12 -111 -15 -121l27 -19l-6 -69l14 -66q29 -44 33 -82l29 15l30 -35l52 -45q52 -12 88 -15l45 25l14 -18l88 22l25 -12l4 8l131 39h18l70 47l63 18l47 19l62 43h14l23 18l92 93l29 18l-15 51l-59 29l4 22l213 95l6 8q35 11 41 18h14l15 -37h12l-12 -55h-15l-18 -37v8
l-10 -8l-11 -35l-45 -45l-4 11q-32 -48 -39 -52v-14l-45 -29q-7 -9 -14 -14h-22l-7 -12q-20 -8 -32 -39l-64 -31l-6 -6l-4 6q-19 -9 -33 -29h-8l-14 -18l-11 4l-4 -18l-37 -4l-19 -20q-9 -9 -50 -28v-4l-15 4q-13 -2 -32 -18l-4 -23l-19 5l-18 -11v-4h-37q-27 -27 -54.5 -38
t-105.5 -27v-13l-45 4v-18l-25 4l-8 -4v-6h-6z" />
    <glyph glyph-name="Eacute" unicode="&#xc9;" horiz-adv-x="1393" 
d="M1214 1311l7 -6l-64 -82l-6 -11l-45 -22l-25 10q-24 -27 -51 -37l-18 4l-19 -28l-22 -9l-35 23l-10 29l-68 -15l-45 19l-78 -15h-76q-7 -64 -20 -92l6 -10l-12 -70l-15 -51v-39l-10 -10l6 -18l162 -13l82 17l70 -19l39 45h61l8 -18l33 -14v-29l-17 -16q-8 -7 -28 -52
l-53 -37l-35 -16q-19 -8 -51 -8l-113 14l-57 -10l-43 -14l-45 6l-25 -6h-27l-8 -4l-18 -48l-12 -41l-25 -43l-27 -151l-18 -160l-18 -41l-3 -112l19 -13l72 -10l30 -18h41l21 -13l30 9l31 -11l92 13l45 -2l9 8h47l41 14l39 -4l10 8l84 25l-15 33l11 22q21 65 41 102l51 -4
l37 23h57q23 -32 74 -70l8 -55v-18l-18 -25v-19l-23 -14v-22q-28 -34 -92 -47l-9 -17q-5 -10 -16 -17l-26 -18l-109 -4l-49 -33h-74l-18 11l-15 -11l-18 19l-88 -27h-45l-14 -14l-56 10l-69 -20l-33 6l-25 -14l-57 8l-76 -8l-29 8l-18 -41l-18 -23l-5 -14q-2 -6 -26 -33v-10
q-22 -23 -33 -45l-51 -19l-64 -43l-18 47l12 33l-2 37l35 51l35 15l20 55l-51 14l-12 -10l-25 18h-90l-14 -18l-62 4l-38 62v47h-3l-4 32l23 9l8 18l43 35h47l43 16q35 0 90 -20l45 16q34 0 78 -18l12 26l-6 25l37 198q2 19 21 76l-6 27l18 37l31 190l-35 58q13 25 51 59
l-8 47l12 4l21 47l-6 23l16 33l-23 32l13 37l-9 25v37l15 22l-19 19v51l-71 14h-19l-127 -30l-71 12l-19 -29l-39 -4l-33 59l13 25l14 4l12 23l52 43h36l19 36l14 -4q14 15 33 27h18l27 -8l61 -4l66 8l21 -14v6l12 8l37 -14l2 10l67 14l-10 4q46 26 70 29l-9 -29l15 -8
l63 16l15 -18l77 -12l19 -15l16 4l8 -22l76 22v-14l35 -4l43 14l102 -20l91 82l24 10h35l25 -16l4 -31l-37 -53h-15zM1026 1939l-33 -77l-41 -37l-33 -19l-14 -20l-62 -35l-81 -39l2 -10l-136 -96v-17q-11 -3 -41 -43l-36 6l-25 45l6 39l23 -6l8 23h18l7 21q4 9 24 30l-2 10
q23 12 46.5 26.5t37.5 53.5l35 10l24 29l2 33l25 10l4 14h14l-6 15l15 30l14 6v15l4 10l43 14l6 41l35 -8l25 33q43 -17 55 -39z" />
    <glyph glyph-name="Ntilde" unicode="&#xd1;" horiz-adv-x="1649" 
d="M1602 1516l8 -5h24l92 -65l66 -70l-111 -80l-14 -18l-76 -18l-37 4l-32 24h-19l-84 -172l-37 -43l-4 -45l-32 -61l-15 -47l-18 -27l-8 -66l-13 -35q-2 -6 -26 -30v-23l-13 -43l9 -26q-15 -47 -27 -66l4 -37l-14 -47l10 -8v-25l18 -18l-10 -33l10 -74h-6l-4 -55
q0 -16 43 -65l-10 -15l18 -22l11 -94l-25 -23v-27l-14 -32h-13l-43 -62l-36 4l-33 -39l-60 -43l-43 78v80l-14 70l6 33l-57 83l14 23l-14 27l10 10l-37 14l-14 -10q-5 18 -37 53h-14l-23 78l-43 39l-22 45q-17 29 -19 47l-55 51l-14 29l4 23l-15 22l-14 6l-12 31h-11l-14 39
l-29 38q-6 7 -12 36l-24 -5l-27 -57v-18q-7 -41 -23 -88l-20 -11l10 -32l23 -15l-9 -45v-51l-47 -57l4 -41l-12 -29l12 -31l-8 -10l4 -29l-18 -41v-28l-18 -23l-15 -61v-19l-8 -8l-47 -145l-14 -27l-37 -18l4 -11l-74 -32l-37 10l-10 37l25 28l-11 13h-28v10l32 29l-8 37
l33 8l45 61l14 55v23l23 25v41l61 251l-4 15v41l27 41l-8 28l22 37l4 25l11 37l-5 18l15 55l-39 99q9 14 29 26l-15 52l10 32l19 4l4 29h-84l-84 -29l-18 11l-45 -93l-117 -108l-62 -27l-26 51v37l22 9l-4 20l-14 4v23l22 18v19l37 -13l10 13l-14 14q4 10 43 55l51 14l4 33
l23 -4l19 21q6 6 21 12l40 14l4 8l28 3q17 2 30 12t62 18l48 8l112 64l27 29l57 22l50 6l26 -53q-29 -51 -24 -74l30 -162l15 -38v-27h26l4 -41l43 -37l-4 -27l9 -10l79 -135l84 -166l23 -24v-13l18 -20l29 -4l4 24l14 4v15l37 121l3 29q1 12 20 63l39 28v23l22 37v28
q22 28 33 74q7 3 17 16l10 13l57 153q10 22 20 29l13 53l18 15l23 43l14 41l18 22q9 10 19 39l18 4l52 97l22 20h10q12 18 19 18zM936 1903l16 -26l27 -12l12 -31l70 -66l38 -24l5 8q20 -21 45 -21l22 5h17l-9 8q23 25 54 28l-5 7q34 2 39 28q24 0 29 21l23 19q6 5 49 18
q5 8 12 8q4 0 4 -4v12q37 16 55 16l17 -4l16 -16q-76 -98 -136.5 -150.5t-80.5 -52.5q-4 0 -4 2l-43 -37l-88 -55l-23 -25l-22 4q-49 -42 -64 -45q-10 4 -16 19q-8 -4 -12 -4q-12 0 -21 14q-17 2 -32 10t-29 21t-33.5 37.5t-30 31t-20 19.5t-14 26t-9.5 13l-14 -2
q-9 0 -12 16q-20 -22 -52 -22l-18 2l-33 -39l-39 -21l-65 -71q-40 12 -43 65l8 6l-2 8l10 21l10 -4l19 16h-6q33 32 32 39l5 -4l4 10l12 6l4 -6v15l4 -4l25 20h-8l20 12v4h10v9l33 26q14 21 23 21q3 0 8 -4q10 10 22 10q7 10 17 10l22 16l19 3q8 2 32 18q27 25 35 25
q9 0 10 -3l21 7z" />
    <glyph glyph-name="Odieresis" unicode="&#xd6;" horiz-adv-x="1016" 
d="M618 1354l25 -6q8 -9 30.5 -36t24.5 -79l33 -43l-4 -27l41 -57l-4 -23l14 -28l-10 -37l29 -27l12 -47h43l42 -20q9 -4 18 -12l24 -23l-10 -62l14 -14l-4 -37l8 -28l-22 -37l8 -33l-30 -34q-7 -7 -11 -26l37 -36l-37 -19l-29 -47l-35 -9q-20 -5 -34 -14l-37 -24l10 -14
q-38 -58 -37 -64l-18 -10l-15 -47l-10 -4l-18 -33q-26 -21 -56 -59l4 -5l-28 -38l-19 6l11 -15l-74 -75l-103 -88h-18l-25 -27q-20 -7 -45 -25l-24 15l-8 -4l-39 12q-19 6 -45 24q-22 22 -33 23l-14 31l-19 -2l-4 18l-25 10l7 13l18 10l-10 10l6 12l-14 29l-11 16
q-4 7 -14 58h-12l4 28l-4 29l8 19l-8 4l12 73l-12 47l12 9l-4 14l4 47l-8 29l18 30v48l23 94h-4l10 22l-6 9l10 6l-4 18l39 96l2 -4v19l4 28l10 4v19l4 10l19 4l-8 4l12 11l-4 36l14 11l14 37h4l7 22q4 10 22 29v18l19 4v10l55 60l8 22l25 11l4 22q32 28 37 29q10 26 47 41
l69 28h52zM479 1176l-41 -27l-32 -51l-26 -25q-11 -12 -36 -55l-18 -47l-18 -35q-9 -16 -15 -53l-12 -15v-41l-25 -22l-8 -33v-18l-25 -25v-8l-37 -88l7 -33l-21 -47l10 -8l-10 -33l10 -14l-14 -43l-14 -74l18 -8l-31 -19l13 -28h10l-4 -37v-51q20 -15 26 -29l-4 -14
q16 -34 23 -60l17 -10q7 -4 34 -37l43 10l14 -24l37 18l4 10l23 4l10 33h4l10 19h33q30 35 37 55l18 6l9 27l32 61l29 15l4 22l43 18l-20 19v22q15 25 20 48l-40 12q-7 2 -29 24l-43 -8l22 23l39 18l18 15q22 12 29.5 24.5t11.5 30.5l15 10l-15 18v29l-4 31l4 10l-18 23
l4 14l18 10l7 13h-11l-8 47l4 24l-24 8l-4 33l10 8q-4 31 -25 76h11l-23 27l4 14q-25 46 -29 70l-14 14v37l-8 18l-10 6zM874 1900l84 -41l19 -43l43 -63l-49 -37l-8 -20l-46 -27l-6 4v-14q-26 -36 -88 -45l-14 -25l-41 66l-66 55l5 51q23 33 41 37l20 29l4 -4q5 9 33 22
l4 -4q3 27 22 37zM311 1859q3 15 19 15q24 0 47 -51h33l41 -29l38 -70l-75 -59l-103 -103l-14 -10q-20 8 -37 51l-18 5l-47 112l-19 8l12 28q7 15 17 24l13 4q5 2 38 32q13 0 19 9.5t32 38.5v-5h4z" />
    <glyph glyph-name="Udieresis" unicode="&#xdc;" horiz-adv-x="1530" 
d="M623 1212l36 -4l15 -18l33 -8l8 -52l-15 -10l-12 -28l-80 -60l-14 -22l-139 -336l-15 -19l6 -22l-14 -10v-41l-18 -52q-17 -32 -29 -75l4 -4l-14 -27l-23 -160l4 -41l-10 -61l16 -8l27 4l10 10l41 14l29 31l37 20q27 22 37 23l28 33l19 4l33 37h8l57 55l23 18l15 20
q7 9 32 23l33 66h12q18 35 37 45l10 25l37 8l37 47h14l29 80l32 -6l19 18l-6 19l10 20l37 166l14 -4l14 33l48 41l49 28l20 -4l16 20q3 3 5 4l30 17h13l6 14l26 4h15l18 -40l-28 -25l20 -23l-51 -213l-25 -38l-26 -265l4 -102l14 -47l-14 -41l37 -74l28 -18l19 26h18l19 -22
l28 -4v-43l-33 -23l-108 -117l-78 -59q-24 18 -37 41h-43l-65 143l20 33l-33 33l-14 164l4 41v55l10 29l-14 18l4 33l-4 18l-154 -176l-32 -29l-4 -14l-66 -59l-18 -6l-19 -37l-14 -4q-15 -20 -41 -37l-33 -10l-18 -19l-84 -70h-33l-14 -32q-55 -30 -84 -37l-15 -19l-22 5
l-38 -19q-17 -8 -69 -18l-18 -19l-43 -4l-12 14l4 13l-15 10l19 66l28 77l-10 25l29 88l-25 37l25 47v41l14 33l13 4l10 51l18 18v15l-14 4l-4 47l14 14v15l23 26v117l28 -33l3 34q1 17 12 36l-15 24l19 5l14 47l-29 4l11 37l22 -23v64l-14 14l-55 -8l-70 -33l-19 -14
l-43 22l-6 47l54 33l51 37l102 47l8 8l70 19l20 32l5 -4l32 19v10l52 14l-11 4l37 23zM1212 1900l84 -41l19 -43l43 -63l-49 -37l-8 -20l-46 -27l-6 4v-14q-26 -36 -88 -45l-14 -25l-41 66l-66 55l5 51q23 33 41 37l20 29l4 -4q5 9 33 22l4 -4q3 27 22 37zM649 1859
q3 15 19 15q24 0 47 -51h33l41 -29l38 -70l-75 -59l-103 -103l-14 -10q-20 8 -37 51l-18 5l-47 112l-19 8l12 28q7 15 17 24l13 4q5 2 38 32q13 0 19 9.5t32 38.5v-5h4z" />
    <glyph glyph-name="aacute" unicode="&#xe1;" horiz-adv-x="1300" 
d="M797 981q7 2 39 -2t41 -14l34 8l19 -2l14 -27l-2 -20q-20 -16 -27 -35h-10l-11 -12q-5 -5 -42 -17l-2 -186l16 -96l2 -99l15 -121l63 -172q17 -19 23 -30q50 28 63 28q41 47 53 49v11l113 96l2 18q11 2 43 39l37 -8l20 -45l-8 -39l-20 8l-10 -22h-19q-11 -30 -33 -49v-11
l-55 -51l-10 -26q-19 -13 -64 -35l-8 -15l-2 5l-12 -21l-27 -8l-4 -14h-14l6 -15l-16 -31l-15 -4q2 -16 -33 -59l-47 -2l-10 -29l-29 -8q-33 9 -53 41l-67 109l-64 143l6 53l-14 47l10 2q-29 58 -29 88l5 37l-31 19l-21 -13v5l-10 -5l-27 -69l-14 6l-4 -14l-10 4v-9h-4
q-1 -6 -29 -51l-8 4l-6 -43l-21 -11q-21 -11 -27 -26l-8 -20l9 -12l-23 -8l-10 -41l-17 -9l5 -8q-24 -18 -39 -24l-9 -15l-8 11l-14 -35h-12l-17 -58l-18 -6l-2 -30h-29l-29 -66l-14 -10h-12l-4 -19l-64 -24l-67 -2l-29 190l12 25l3 20q1 8 24 60l-4 14q18 41 24 49l-8 4
l19 49l1 19q1 8 15 37q-8 48 -16 55l8 14l26 -4q23 31 29 33l6 18h4l-14 21l12 53l8 -4q12 31 15 31l-4 26l28 52v14l-6 12l41 88l47 64q24 21 41 47l35 14l47 49l45 27h27l22 6h31l14 23l29 -2h29v8q12 -1 26 -10l31 12l23 -6l6 8l24 -8zM539 823l-25 -4l-31 2l-10 -18v-15
q-16 -8 -35 -14l-18 -45q-14 -60 -17 -61h-10l-14 -33l-7 -28q-3 -13 -20 -21l-10 -35l-16 -30q-9 -17 -9 -36v-8l-10 8v-16h-6l2 -10l-8 -17l-12 -53l-21 -43l-4 -61l-6 -9h-4l-4 -18l8 -8l-10 -37h-4l4 -12h-15l2 -74l9 -35h4l22 21l58 82l104 137l31 33l69 112l72 96
l6 21l-14 18l26 45l6 34q1 5 17 26l2 80l-27 2h-22l-29 20l-6 -10zM1014 1507l-33 -77l-41 -37l-33 -19l-14 -20l-62 -35l-81 -39l2 -10l-136 -96v-17q-11 -3 -41 -43l-36 6l-25 45l6 39l23 -6l8 23h18l7 21q4 9 24 30l-2 10q23 12 46.5 26.5t37.5 53.5l35 10l24 29l2 33
l25 10l4 14h14l-6 15l15 30l14 6v15l4 10l43 14l6 41l35 -8l25 33q43 -17 55 -39z" />
    <glyph glyph-name="agrave" unicode="&#xe0;" horiz-adv-x="1300" 
d="M797 981q7 2 39 -2t41 -14l34 8l19 -2l14 -27l-2 -20q-20 -16 -27 -35h-10l-11 -12q-5 -5 -42 -17l-2 -186l16 -96l2 -99l15 -121l63 -172q17 -19 23 -30q50 28 63 28q41 47 53 49v11l113 96l2 18q11 2 43 39l37 -8l20 -45l-8 -39l-20 8l-10 -22h-19q-11 -30 -33 -49v-11
l-55 -51l-10 -26q-19 -13 -64 -35l-8 -15l-2 5l-12 -21l-27 -8l-4 -14h-14l6 -15l-16 -31l-15 -4q2 -16 -33 -59l-47 -2l-10 -29l-29 -8q-33 9 -53 41l-67 109l-64 143l6 53l-14 47l10 2q-29 58 -29 88l5 37l-31 19l-21 -13v5l-10 -5l-27 -69l-14 6l-4 -14l-10 4v-9h-4
q-1 -6 -29 -51l-8 4l-6 -43l-21 -11q-21 -11 -27 -26l-8 -20l9 -12l-23 -8l-10 -41l-17 -9l5 -8q-24 -18 -39 -24l-9 -15l-8 11l-14 -35h-12l-17 -58l-18 -6l-2 -30h-29l-29 -66l-14 -10h-12l-4 -19l-64 -24l-67 -2l-29 190l12 25l3 20q1 8 24 60l-4 14q18 41 24 49l-8 4
l19 49l1 19q1 8 15 37q-8 48 -16 55l8 14l26 -4q23 31 29 33l6 18h4l-14 21l12 53l8 -4q12 31 15 31l-4 26l28 52v14l-6 12l41 88l47 64q24 21 41 47l35 14l47 49l45 27h27l22 6h31l14 23l29 -2h29v8q12 -1 26 -10l31 12l23 -6l6 8l24 -8zM539 823l-25 -4l-31 2l-10 -18v-15
q-16 -8 -35 -14l-18 -45q-14 -60 -17 -61h-10l-14 -33l-7 -28q-3 -13 -20 -21l-10 -35l-16 -30q-9 -17 -9 -36v-8l-10 8v-16h-6l2 -10l-8 -17l-12 -53l-21 -43l-4 -61l-6 -9h-4l-4 -18l8 -8l-10 -37h-4l4 -12h-15l2 -74l9 -35h4l22 21l58 82l104 137l31 33l69 112l72 96
l6 21l-14 18l26 45l6 34q1 5 17 26l2 80l-27 2h-22l-29 20l-6 -10zM768 1122l-84 -30l-55 32l-45 78v8q0 24 -35 76.5t-51 67.5l-4 37q-48 65 -48 73v37l15 6v15q2 5 30 45l46 6l8 29l30 10l17 -7q4 -2 9.5 -7t16.5 -18l11 -13l55 -107q4 -2 6 -7t5.5 -18t6.5 -22.5t9 -22.5
t16 -28.5t25 -30.5q4 -4 20 -57l27 -6l-21 -43l27 -21l8 -37l-20 -26z" />
    <glyph glyph-name="acircumflex" unicode="&#xe2;" horiz-adv-x="1300" 
d="M797 981q7 2 39 -2t41 -14l34 8l19 -2l14 -27l-2 -20q-20 -16 -27 -35h-10l-11 -12q-5 -5 -42 -17l-2 -186l16 -96l2 -99l15 -121l63 -172q17 -19 23 -30q50 28 63 28q41 47 53 49v11l113 96l2 18q11 2 43 39l37 -8l20 -45l-8 -39l-20 8l-10 -22h-19q-11 -30 -33 -49v-11
l-55 -51l-10 -26q-19 -13 -64 -35l-8 -15l-2 5l-12 -21l-27 -8l-4 -14h-14l6 -15l-16 -31l-15 -4q2 -16 -33 -59l-47 -2l-10 -29l-29 -8q-33 9 -53 41l-67 109l-64 143l6 53l-14 47l10 2q-29 58 -29 88l5 37l-31 19l-21 -13v5l-10 -5l-27 -69l-14 6l-4 -14l-10 4v-9h-4
q-1 -6 -29 -51l-8 4l-6 -43l-21 -11q-21 -11 -27 -26l-8 -20l9 -12l-23 -8l-10 -41l-17 -9l5 -8q-24 -18 -39 -24l-9 -15l-8 11l-14 -35h-12l-17 -58l-18 -6l-2 -30h-29l-29 -66l-14 -10h-12l-4 -19l-64 -24l-67 -2l-29 190l12 25l3 20q1 8 24 60l-4 14q18 41 24 49l-8 4
l19 49l1 19q1 8 15 37q-8 48 -16 55l8 14l26 -4q23 31 29 33l6 18h4l-14 21l12 53l8 -4q12 31 15 31l-4 26l28 52v14l-6 12l41 88l47 64q24 21 41 47l35 14l47 49l45 27h27l22 6h31l14 23l29 -2h29v8q12 -1 26 -10l31 12l23 -6l6 8l24 -8zM539 823l-25 -4l-31 2l-10 -18v-15
q-16 -8 -35 -14l-18 -45q-14 -60 -17 -61h-10l-14 -33l-7 -28q-3 -13 -20 -21l-10 -35l-16 -30q-9 -17 -9 -36v-8l-10 8v-16h-6l2 -10l-8 -17l-12 -53l-21 -43l-4 -61l-6 -9h-4l-4 -18l8 -8l-10 -37h-4l4 -12h-15l2 -74l9 -35h4l22 21l58 82l104 137l31 33l69 112l72 96
l6 21l-14 18l26 45l6 34q1 5 17 26l2 80l-27 2h-22l-29 20l-6 -10zM950 1122l-86 -30l-53 32l-45 78l-72 137q-17 17 -24 29q-48 -31 -62 -31q-38 -49 -51 -53l2 -10l-108 -103v-18l-15 -6l-26 -35l-37 6l-25 45l6 39l23 -6l8 23h18l7 20q4 10 24 31l-2 10l53 53l9 27l59 38
q7 4 25 34l24 10l4 14h15l-7 14l15 31l14 6v15q4 10 29 45l47 6l8 29l29 10l24 -9q2 -1 12.5 -11.5l18.5 -18.5l127 -246l14 -53l27 -6l-21 -43l29 -21l8 -37l-20 -26z" />
    <glyph glyph-name="adieresis" unicode="&#xe4;" horiz-adv-x="1300" 
d="M797 981q7 2 39 -2t41 -14l34 8l19 -2l14 -27l-2 -20q-20 -16 -27 -35h-10l-11 -12q-5 -5 -42 -17l-2 -186l16 -96l2 -99l15 -121l63 -172q17 -19 23 -30q50 28 63 28q41 47 53 49v11l113 96l2 18q11 2 43 39l37 -8l20 -45l-8 -39l-20 8l-10 -22h-19q-11 -30 -33 -49v-11
l-55 -51l-10 -26q-19 -13 -64 -35l-8 -15l-2 5l-12 -21l-27 -8l-4 -14h-14l6 -15l-16 -31l-15 -4q2 -16 -33 -59l-47 -2l-10 -29l-29 -8q-33 9 -53 41l-67 109l-64 143l6 53l-14 47l10 2q-29 58 -29 88l5 37l-31 19l-21 -13v5l-10 -5l-27 -69l-14 6l-4 -14l-10 4v-9h-4
q-1 -6 -29 -51l-8 4l-6 -43l-21 -11q-21 -11 -27 -26l-8 -20l9 -12l-23 -8l-10 -41l-17 -9l5 -8q-24 -18 -39 -24l-9 -15l-8 11l-14 -35h-12l-17 -58l-18 -6l-2 -30h-29l-29 -66l-14 -10h-12l-4 -19l-64 -24l-67 -2l-29 190l12 25l3 20q1 8 24 60l-4 14q18 41 24 49l-8 4
l19 49l1 19q1 8 15 37q-8 48 -16 55l8 14l26 -4q23 31 29 33l6 18h4l-14 21l12 53l8 -4q12 31 15 31l-4 26l28 52v14l-6 12l41 88l47 64q24 21 41 47l35 14l47 49l45 27h27l22 6h31l14 23l29 -2h29v8q12 -1 26 -10l31 12l23 -6l6 8l24 -8zM539 823l-25 -4l-31 2l-10 -18v-15
q-16 -8 -35 -14l-18 -45q-14 -60 -17 -61h-10l-14 -33l-7 -28q-3 -13 -20 -21l-10 -35l-16 -30q-9 -17 -9 -36v-8l-10 8v-16h-6l2 -10l-8 -17l-12 -53l-21 -43l-4 -61l-6 -9h-4l-4 -18l8 -8l-10 -37h-4l4 -12h-15l2 -74l9 -35h4l22 21l58 82l104 137l31 33l69 112l72 96
l6 21l-14 18l26 45l6 34q1 5 17 26l2 80l-27 2h-22l-29 20l-6 -10zM960 1468l84 -41l19 -43l43 -63l-49 -37l-8 -20l-46 -27l-6 4v-14q-26 -36 -88 -45l-14 -25l-41 66l-66 55l5 51q23 33 41 37l20 29l4 -4q5 9 33 22l4 -4q3 27 22 37zM397 1427q3 15 19 15q24 0 47 -51h33
l41 -29l38 -70l-75 -59l-103 -103l-14 -10q-20 8 -37 51l-18 5l-47 112l-19 8l12 28q7 15 17 24l13 4q5 2 38 32q13 0 19 9.5t32 38.5v-5h4z" />
    <glyph glyph-name="atilde" unicode="&#xe3;" horiz-adv-x="1300" 
d="M797 981q7 2 39 -2t41 -14l34 8l19 -2l14 -27l-2 -20q-20 -16 -27 -35h-10l-11 -12q-5 -5 -42 -17l-2 -186l16 -96l2 -99l15 -121l63 -172q17 -19 23 -30q50 28 63 28q41 47 53 49v11l113 96l2 18q11 2 43 39l37 -8l20 -45l-8 -39l-20 8l-10 -22h-19q-11 -30 -33 -49v-11
l-55 -51l-10 -26q-19 -13 -64 -35l-8 -15l-2 5l-12 -21l-27 -8l-4 -14h-14l6 -15l-16 -31l-15 -4q2 -16 -33 -59l-47 -2l-10 -29l-29 -8q-33 9 -53 41l-67 109l-64 143l6 53l-14 47l10 2q-29 58 -29 88l5 37l-31 19l-21 -13v5l-10 -5l-27 -69l-14 6l-4 -14l-10 4v-9h-4
q-1 -6 -29 -51l-8 4l-6 -43l-21 -11q-21 -11 -27 -26l-8 -20l9 -12l-23 -8l-10 -41l-17 -9l5 -8q-24 -18 -39 -24l-9 -15l-8 11l-14 -35h-12l-17 -58l-18 -6l-2 -30h-29l-29 -66l-14 -10h-12l-4 -19l-64 -24l-67 -2l-29 190l12 25l3 20q1 8 24 60l-4 14q18 41 24 49l-8 4
l19 49l1 19q1 8 15 37q-8 48 -16 55l8 14l26 -4q23 31 29 33l6 18h4l-14 21l12 53l8 -4q12 31 15 31l-4 26l28 52v14l-6 12l41 88l47 64q24 21 41 47l35 14l47 49l45 27h27l22 6h31l14 23l29 -2h29v8q12 -1 26 -10l31 12l23 -6l6 8l24 -8zM539 823l-25 -4l-31 2l-10 -18v-15
q-16 -8 -35 -14l-18 -45q-14 -60 -17 -61h-10l-14 -33l-7 -28q-3 -13 -20 -21l-10 -35l-16 -30q-9 -17 -9 -36v-8l-10 8v-16h-6l2 -10l-8 -17l-12 -53l-21 -43l-4 -61l-6 -9h-4l-4 -18l8 -8l-10 -37h-4l4 -12h-15l2 -74l9 -35h4l22 21l58 82l104 137l31 33l69 112l72 96
l6 21l-14 18l26 45l6 34q1 5 17 26l2 80l-27 2h-22l-29 20l-6 -10zM625 1470l16 -26l27 -12l12 -31l70 -66l38 -24l5 8q20 -21 45 -21l22 5h17l-9 8q23 25 54 28l-5 7q34 2 39 28q24 0 29 21l23 19q6 5 49 18q5 8 12 8q4 0 4 -4v12q37 16 55 16l17 -4l16 -16
q-76 -98 -136.5 -150.5t-80.5 -52.5q-4 0 -4 2l-43 -37l-88 -55l-23 -25l-22 4q-49 -42 -64 -45q-10 4 -16 19q-8 -4 -12 -4q-12 0 -21 14q-17 2 -32 10t-29 21t-33.5 37.5t-30 31t-20 19.5t-14 26t-9.5 13l-14 -2q-9 0 -12 16q-20 -22 -52 -22l-18 2l-33 -39l-39 -21
l-65 -71q-40 12 -43 65l8 6l-2 8l10 21l10 -4l19 16h-6q33 32 32 39l5 -4l4 10l12 6l4 -6v15l4 -4l25 20h-8l20 12v4h10v9l33 26q14 21 23 21q3 0 8 -4q10 10 22 10q7 10 17 10l22 16l19 3q8 2 32 18q27 25 35 25q9 0 10 -3l21 7z" />
    <glyph glyph-name="aring" unicode="&#xe5;" horiz-adv-x="1300" 
d="M797 981q7 2 39 -2t41 -14l34 8l19 -2l14 -27l-2 -20q-20 -16 -27 -35h-10l-11 -12q-5 -5 -42 -17l-2 -186l16 -96l2 -99l15 -121l63 -172q17 -19 23 -30q50 28 63 28q41 47 53 49v11l113 96l2 18q11 2 43 39l37 -8l20 -45l-8 -39l-20 8l-10 -22h-19q-11 -30 -33 -49v-11
l-55 -51l-10 -26q-19 -13 -64 -35l-8 -15l-2 5l-12 -21l-27 -8l-4 -14h-14l6 -15l-16 -31l-15 -4q2 -16 -33 -59l-47 -2l-10 -29l-29 -8q-33 9 -53 41l-67 109l-64 143l6 53l-14 47l10 2q-29 58 -29 88l5 37l-31 19l-21 -13v5l-10 -5l-27 -69l-14 6l-4 -14l-10 4v-9h-4
q-1 -6 -29 -51l-8 4l-6 -43l-21 -11q-21 -11 -27 -26l-8 -20l9 -12l-23 -8l-10 -41l-17 -9l5 -8q-24 -18 -39 -24l-9 -15l-8 11l-14 -35h-12l-17 -58l-18 -6l-2 -30h-29l-29 -66l-14 -10h-12l-4 -19l-64 -24l-67 -2l-29 190l12 25l3 20q1 8 24 60l-4 14q18 41 24 49l-8 4
l19 49l1 19q1 8 15 37q-8 48 -16 55l8 14l26 -4q23 31 29 33l6 18h4l-14 21l12 53l8 -4q12 31 15 31l-4 26l28 52v14l-6 12l41 88l47 64q24 21 41 47l35 14l47 49l45 27h27l22 6h31l14 23l29 -2h29v8q12 -1 26 -10l31 12l23 -6l6 8l24 -8zM539 823l-25 -4l-31 2l-10 -18v-15
q-16 -8 -35 -14l-18 -45q-14 -60 -17 -61h-10l-14 -33l-7 -28q-3 -13 -20 -21l-10 -35l-16 -30q-9 -17 -9 -36v-8l-10 8v-16h-6l2 -10l-8 -17l-12 -53l-21 -43l-4 -61l-6 -9h-4l-4 -18l8 -8l-10 -37h-4l4 -12h-15l2 -74l9 -35h4l22 21l58 82l104 137l31 33l69 112l72 96
l6 21l-14 18l26 45l6 34q1 5 17 26l2 80l-27 2h-22l-29 20l-6 -10zM750 1489h14q15 -6 32.5 -20t38.5 -36t58.5 -66.5t41.5 -59.5l9 -37q-20 -15 -20 -35l-27 -33h6l-47 -59l-45 -33l-47 -45q-47 -10 -82 -25l-51 9l-49 -9l-21 21l-37 8q-26 54 -36 72t-20 43t-15 102l12 -6
l4 31l4 -4q6 29 31 32l-6 13l6 4h10v16l10 -4q6 23 17 23q2 0 8 -5l6 17q12 3 14 10l6 -10l7 4v10q0 15 20 15l8 -5v5h17l4 16l6 -4q12 8 14 20l10 -4l17 4q12 -6 22 -6t23 10zM719 1374l-68 -35q-71 -35 -71 -112q0 -58 49 -64v-4l32 -4v4h11l28 6q12 28 41 33q0 10 9 19v6
l2 -4l22 28v6q21 12 21 29q0 21 -28 47z" />
    <glyph glyph-name="ccedilla" unicode="&#xe7;" horiz-adv-x="1057" 
d="M688 1014l14 -4q10 -17 19 -39q0 -24 6.5 -54.5t7.5 -42.5h-4l14 -47h-6l6 -22h-6q15 -46 15 -76q0 -22 -23 -88l-4 6l-6 -20l-8 -4v-9l-19 -28h-10l4 -4h-8v14q-10 -7 -18 -21l4 -12l-4 -6l-11 -4l6 -8l5 4v-10q-30 -6 -33 -37q-37 -27 -54 -27q-33 0 -45 70l7 4l-11 33
l37 77v48l10 41v6q0 43 -57 65q-1 -4 -22 -20h-19l-10 -13l-4 5q-3 -23 -23 -23l-28 -29l-4 4v-8l-33 -24l-8 -33l-15 -8l-14 4v-8q-12 1 -25.5 -29t-25.5 -49.5t-23 -42.5h-6l-23 -70l-49 -113l-4 -120l21 -60l65 -24q6 8 15 14q1 -1 8 -3.5t14 -6.5l158 24q14 9 27.5 17
t27.5 15.5t34.5 16.5t27 13t18.5 12l66 37l40 33l48 18q46 46 92 80v4q5 3 18 14l-4 5l10 4q13 57 84 57h13l28 18q3 -29 23 -43q24 4 43 15l-56 -70l5 -4l-11 -4q-5 -10 -14 -10l-12 -19q-31 -18 -31 -28q0 -5 6 -5q-12 -22 -41 -32t-33 -23h-47q-49 -10 -92 -33v-18l-14 4
l-8 -14l-21 -8l-4 -15q-37 -15 -79 -44t-50 -29h-6v-7h-4v-4q-26 0 -41 -18h-15l-10 -10h-14l6 -9q-38 -19 -47 -55q0 -24 -23 -47l15 -41q22 -7 73 -8l23 -25h6l12 -22l52 -23l14 -28q0 -21 -25.5 -58.5t-48.5 -36.5l4 -4l-8 -14l-10 6q-5 -14 -22.5 -22.5t-34.5 -22.5
q-8 -27 -31 -27h-14l-10 -15q-5 -7 -27 -19v-7q-23 -36 -52 -36q-6 0 -30.5 24.5t-24.5 34.5q0 11 6.5 15.5t61.5 25.5q29 7 54.5 34.5t34 29.5t36.5 31t32 65q-25 37 -73 37q-16 0 -52 -29q-28 -15 -45 -15q-28 0 -28 41v7l65 79q15 18 15 50q0 11 -8.5 19.5t-18.5 8.5
q-8 0 -16 -4v-4h-4v4h-9l-6 -10l-4 6q0 -10 -6 -10q-4 0 -8 4l-8 -12l-19 18h-14l-15 14l-14 -24h-41l-28 -4l-9 14l-24 21q-15 12 -19 21l-11 26q-8 17 -11 39l-15 102h11l-6 18l6 -4l-6 9q8 13 20 54l8 34l33 75h4q19 19 19 37l4 4h-4q9 16 17.5 46.5t19.5 39.5t23 23
t16 20l59 105l8 -6l6 10l33 33q16 37 45 55v4q12 0 18 6v8l25 29v-6h4q21 29 33 39l69 59h15l-4 4l12 11h6q23 23 45 36q50 16 76 33q9 -3 12 -18z" />
    <glyph glyph-name="eacute" unicode="&#xe9;" horiz-adv-x="877" 
d="M477 911l25 -4h4l-4 -10h8l14 -14l47 -4h47l27 -15h10l15 -51l-21 -18v-19l33 -33l-4 -92h-14l-5 -18h-4v-29l19 -4l8 -10l-12 -19v-14l-25 -12l-18 -15l-52 -28q-21 -22 -36 -33l-15 -41l-88 -35l-88 2l4 -22h-18l-4 -6l-43 -9l-4 15l-15 -6v-9l-37 -14l-14 -41l19 -51
v-25l10 -22q-20 -59 -29 -62l6 -18l-10 -4l23 -10v-31l20 -14q50 15 61 22l15 -14l4 4q41 4 65 10l7 12h24l19 2l24 -12l-6 8h20l25 21l29 2h-6l28 12l8 -6l15 14h20l19 19q22 1 71 26v11l29 8l31 45l33 -4q17 -16 40 -19l15 -14l-23 -43l4 -27l-32 -18l-4 -10l-48 -6
l-26 -27l-29 -2l-8 -23l-39 4l-12 -28l-31 4l-12 -14q-34 -13 -35 -15l-14 8l-23 -22h-33l-20 -10h-12l-15 -13q-26 -7 -53 -22l-14 10h-29l-12 -10l-11 4l-14 -4l-4 4l-10 -23h-27l-22 -12q-11 -6 -48 -10l-10 -10h-18l-27 -4l-20 -25l-27 10l-14 -18l-11 3q-4 1 -40 38
l4 24l-4 13l4 24l-15 37l6 29l-10 45l10 37l-14 57l-4 4l4 29l33 12v20l-14 5l4 26l-9 15l5 24l14 8l-4 23l4 39l8 4l14 47l33 59l29 11l4 32l-4 9l4 18l18 10l11 33h-25v12l10 15l-4 14l4 14h4v33l33 4l14 29l70 78h14q12 19 31 32l14 -4q14 5 33 33h10l19 12h8l14 21z
M453 741l-35 -12l-27 12q-24 -20 -39 -28q-3 -26 -20.5 -44t-24.5 -18h-18l12 -22q-11 -20 -29 -62l-16 4l-6 -26l6 -37l20 -11q9 -5 50 -12l32 21l66 6l35 51l47 39l6 74l-16 24l-2 35h-23zM867 1507l-33 -77l-41 -37l-33 -19l-14 -20l-62 -35l-81 -39l2 -10l-136 -96v-17
q-11 -3 -41 -43l-36 6l-25 45l6 39l23 -6l8 23h18l7 21q4 9 24 30l-2 10q23 12 46.5 26.5t37.5 53.5l35 10l24 29l2 33l25 10l4 14h14l-6 15l15 30l14 6v15l4 10l43 14l6 41l35 -8l25 33q43 -17 55 -39z" />
    <glyph glyph-name="egrave" unicode="&#xe8;" horiz-adv-x="877" 
d="M477 911l25 -4h4l-4 -10h8l14 -14l47 -4h47l27 -15h10l15 -51l-21 -18v-19l33 -33l-4 -92h-14l-5 -18h-4v-29l19 -4l8 -10l-12 -19v-14l-25 -12l-18 -15l-52 -28q-21 -22 -36 -33l-15 -41l-88 -35l-88 2l4 -22h-18l-4 -6l-43 -9l-4 15l-15 -6v-9l-37 -14l-14 -41l19 -51
v-25l10 -22q-20 -59 -29 -62l6 -18l-10 -4l23 -10v-31l20 -14q50 15 61 22l15 -14l4 4q41 4 65 10l7 12h24l19 2l24 -12l-6 8h20l25 21l29 2h-6l28 12l8 -6l15 14h20l19 19q22 1 71 26v11l29 8l31 45l33 -4q17 -16 40 -19l15 -14l-23 -43l4 -27l-32 -18l-4 -10l-48 -6
l-26 -27l-29 -2l-8 -23l-39 4l-12 -28l-31 4l-12 -14q-34 -13 -35 -15l-14 8l-23 -22h-33l-20 -10h-12l-15 -13q-26 -7 -53 -22l-14 10h-29l-12 -10l-11 4l-14 -4l-4 4l-10 -23h-27l-22 -12q-11 -6 -48 -10l-10 -10h-18l-27 -4l-20 -25l-27 10l-14 -18l-11 3q-4 1 -40 38
l4 24l-4 13l4 24l-15 37l6 29l-10 45l10 37l-14 57l-4 4l4 29l33 12v20l-14 5l4 26l-9 15l5 24l14 8l-4 23l4 39l8 4l14 47l33 59l29 11l4 32l-4 9l4 18l18 10l11 33h-25v12l10 15l-4 14l4 14h4v33l33 4l14 29l70 78h14q12 19 31 32l14 -4q14 5 33 33h10l19 12h8l14 21z
M453 741l-35 -12l-27 12q-24 -20 -39 -28q-3 -26 -20.5 -44t-24.5 -18h-18l12 -22q-11 -20 -29 -62l-16 4l-6 -26l6 -37l20 -11q9 -5 50 -12l32 21l66 6l35 51l47 39l6 74l-16 24l-2 35h-23zM621 1122l-84 -30l-55 32l-45 78v8q0 24 -35 76.5t-51 67.5l-4 37q-48 65 -48 73
v37l15 6v15q2 5 30 45l46 6l8 29l30 10l17 -7q4 -2 9.5 -7t16.5 -18l11 -13l55 -107q4 -2 6 -7t5.5 -18t6.5 -22.5t9 -22.5t16 -28.5t25 -30.5q4 -4 20 -57l27 -6l-21 -43l27 -21l8 -37l-20 -26z" />
    <glyph glyph-name="ecircumflex" unicode="&#xea;" horiz-adv-x="877" 
d="M477 911l25 -4h4l-4 -10h8l14 -14l47 -4h47l27 -15h10l15 -51l-21 -18v-19l33 -33l-4 -92h-14l-5 -18h-4v-29l19 -4l8 -10l-12 -19v-14l-25 -12l-18 -15l-52 -28q-21 -22 -36 -33l-15 -41l-88 -35l-88 2l4 -22h-18l-4 -6l-43 -9l-4 15l-15 -6v-9l-37 -14l-14 -41l19 -51
v-25l10 -22q-20 -59 -29 -62l6 -18l-10 -4l23 -10v-31l20 -14q50 15 61 22l15 -14l4 4q41 4 65 10l7 12h24l19 2l24 -12l-6 8h20l25 21l29 2h-6l28 12l8 -6l15 14h20l19 19q22 1 71 26v11l29 8l31 45l33 -4q17 -16 40 -19l15 -14l-23 -43l4 -27l-32 -18l-4 -10l-48 -6
l-26 -27l-29 -2l-8 -23l-39 4l-12 -28l-31 4l-12 -14q-34 -13 -35 -15l-14 8l-23 -22h-33l-20 -10h-12l-15 -13q-26 -7 -53 -22l-14 10h-29l-12 -10l-11 4l-14 -4l-4 4l-10 -23h-27l-22 -12q-11 -6 -48 -10l-10 -10h-18l-27 -4l-20 -25l-27 10l-14 -18l-11 3q-4 1 -40 38
l4 24l-4 13l4 24l-15 37l6 29l-10 45l10 37l-14 57l-4 4l4 29l33 12v20l-14 5l4 26l-9 15l5 24l14 8l-4 23l4 39l8 4l14 47l33 59l29 11l4 32l-4 9l4 18l18 10l11 33h-25v12l10 15l-4 14l4 14h4v33l33 4l14 29l70 78h14q12 19 31 32l14 -4q14 5 33 33h10l19 12h8l14 21z
M453 741l-35 -12l-27 12q-24 -20 -39 -28q-3 -26 -20.5 -44t-24.5 -18h-18l12 -22q-11 -20 -29 -62l-16 4l-6 -26l6 -37l20 -11q9 -5 50 -12l32 21l66 6l35 51l47 39l6 74l-16 24l-2 35h-23zM803 1122l-86 -30l-53 32l-45 78l-72 137q-17 17 -24 29q-48 -31 -62 -31
q-38 -49 -51 -53l2 -10l-108 -103v-18l-15 -6l-26 -35l-37 6l-25 45l6 39l23 -6l8 23h18l7 20q4 10 24 31l-2 10l53 53l9 27l59 38q7 4 25 34l24 10l4 14h15l-7 14l15 31l14 6v15q4 10 29 45l47 6l8 29l29 10l24 -9q2 -1 12.5 -11.5l18.5 -18.5l127 -246l14 -53l27 -6
l-21 -43l29 -21l8 -37l-20 -26z" />
    <glyph glyph-name="edieresis" unicode="&#xeb;" horiz-adv-x="877" 
d="M477 911l25 -4h4l-4 -10h8l14 -14l47 -4h47l27 -15h10l15 -51l-21 -18v-19l33 -33l-4 -92h-14l-5 -18h-4v-29l19 -4l8 -10l-12 -19v-14l-25 -12l-18 -15l-52 -28q-21 -22 -36 -33l-15 -41l-88 -35l-88 2l4 -22h-18l-4 -6l-43 -9l-4 15l-15 -6v-9l-37 -14l-14 -41l19 -51
v-25l10 -22q-20 -59 -29 -62l6 -18l-10 -4l23 -10v-31l20 -14q50 15 61 22l15 -14l4 4q41 4 65 10l7 12h24l19 2l24 -12l-6 8h20l25 21l29 2h-6l28 12l8 -6l15 14h20l19 19q22 1 71 26v11l29 8l31 45l33 -4q17 -16 40 -19l15 -14l-23 -43l4 -27l-32 -18l-4 -10l-48 -6
l-26 -27l-29 -2l-8 -23l-39 4l-12 -28l-31 4l-12 -14q-34 -13 -35 -15l-14 8l-23 -22h-33l-20 -10h-12l-15 -13q-26 -7 -53 -22l-14 10h-29l-12 -10l-11 4l-14 -4l-4 4l-10 -23h-27l-22 -12q-11 -6 -48 -10l-10 -10h-18l-27 -4l-20 -25l-27 10l-14 -18l-11 3q-4 1 -40 38
l4 24l-4 13l4 24l-15 37l6 29l-10 45l10 37l-14 57l-4 4l4 29l33 12v20l-14 5l4 26l-9 15l5 24l14 8l-4 23l4 39l8 4l14 47l33 59l29 11l4 32l-4 9l4 18l18 10l11 33h-25v12l10 15l-4 14l4 14h4v33l33 4l14 29l70 78h14q12 19 31 32l14 -4q14 5 33 33h10l19 12h8l14 21z
M453 741l-35 -12l-27 12q-24 -20 -39 -28q-3 -26 -20.5 -44t-24.5 -18h-18l12 -22q-11 -20 -29 -62l-16 4l-6 -26l6 -37l20 -11q9 -5 50 -12l32 21l66 6l35 51l47 39l6 74l-16 24l-2 35h-23zM813 1468l84 -41l19 -43l43 -63l-49 -37l-8 -20l-46 -27l-6 4v-14
q-26 -36 -88 -45l-14 -25l-41 66l-66 55l5 51q23 33 41 37l20 29l4 -4q5 9 33 22l4 -4q3 27 22 37zM250 1427q3 15 19 15q24 0 47 -51h33l41 -29l38 -70l-75 -59l-103 -103l-14 -10q-20 8 -37 51l-18 5l-47 112l-19 8l12 28q7 15 17 24l13 4q5 2 38 32q13 0 19 9.5t32 38.5
v-5h4z" />
    <glyph glyph-name="iacute" unicode="&#xed;" horiz-adv-x="727" 
d="M473 797h-4l-8 -52l8 -6l-14 -37l-4 7v-15q0 -44 -37 -84h8v-18h-4l4 -117l-8 -14l4 -19l-15 -73h5q0 -20 -10 -57l-9 -27l-12 -133q-4 -20 -4 -23q0 -18 16 -18q19 0 42 15l65 44q27 33 39 33h6q17 8 32 27t23 22q15 27 27 27q1 0 8 -2t37 -7l8 -28q0 -22 -16 -52
t-25.5 -49.5t-42.5 -27.5v-11l-14 4v-14h-9q-3 -27 -28 -31v-6h-27v-4h-10l-27 -18h-8l-14 -19l-41 -6q-6 -12 -19 -12l-51 -37v-8l-25 4l7 -10l-33 -8v-5h-14v-14l-15 -10h-4v-4q-13 -37 -37 -37l-14 4q-12 37 -41 74q8 32 8 47l-8 41v22q0 31 6 64l6 26v5h-2q-2 0 -2 2
t9.5 32t9.5 78q0 12 -9 14l13 27v121l16 35q8 16 16 63q13 8 15 15l-8 12l8 20q-16 31 -37 31h-47q-8 -8 -8 -18h-7q-5 -27 -26 -33q-5 -26 -29 -31l-18 -29h-4q-7 -22 -25 -22q-20 0 -32.5 29t-12.5 32q0 4 4 9q10 44 62 73v8q22 22 45 33h-9q43 9 50.5 44.5t52.5 35.5
l12 -4l25 12h-15l23 15l6 -4l18 22l5 -4q12 29 55 29q10 0 10 8v10h8l-4 4l33 23q16 28 51 28q22 0 38.5 -12t16.5 -24q0 -17 -14 -37zM752 1507l-33 -77l-41 -37l-33 -19l-14 -20l-62 -35l-81 -39l2 -10l-136 -96v-17q-11 -3 -41 -43l-36 6l-25 45l6 39l23 -6l8 23h18l7 21
q4 9 24 30l-2 10q23 12 46.5 26.5t37.5 53.5l35 10l24 29l2 33l25 10l4 14h14l-6 15l15 30l14 6v15l4 10l43 14l6 41l35 -8l25 33q43 -17 55 -39z" />
    <glyph glyph-name="igrave" unicode="&#xec;" horiz-adv-x="727" 
d="M473 797h-4l-8 -52l8 -6l-14 -37l-4 7v-15q0 -44 -37 -84h8v-18h-4l4 -117l-8 -14l4 -19l-15 -73h5q0 -20 -10 -57l-9 -27l-12 -133q-4 -20 -4 -23q0 -18 16 -18q19 0 42 15l65 44q27 33 39 33h6q17 8 32 27t23 22q15 27 27 27q1 0 8 -2t37 -7l8 -28q0 -22 -16 -52
t-25.5 -49.5t-42.5 -27.5v-11l-14 4v-14h-9q-3 -27 -28 -31v-6h-27v-4h-10l-27 -18h-8l-14 -19l-41 -6q-6 -12 -19 -12l-51 -37v-8l-25 4l7 -10l-33 -8v-5h-14v-14l-15 -10h-4v-4q-13 -37 -37 -37l-14 4q-12 37 -41 74q8 32 8 47l-8 41v22q0 31 6 64l6 26v5h-2q-2 0 -2 2
t9.5 32t9.5 78q0 12 -9 14l13 27v121l16 35q8 16 16 63q13 8 15 15l-8 12l8 20q-16 31 -37 31h-47q-8 -8 -8 -18h-7q-5 -27 -26 -33q-5 -26 -29 -31l-18 -29h-4q-7 -22 -25 -22q-20 0 -32.5 29t-12.5 32q0 4 4 9q10 44 62 73v8q22 22 45 33h-9q43 9 50.5 44.5t52.5 35.5
l12 -4l25 12h-15l23 15l6 -4l18 22l5 -4q12 29 55 29q10 0 10 8v10h8l-4 4l33 23q16 28 51 28q22 0 38.5 -12t16.5 -24q0 -17 -14 -37zM506 1122l-84 -30l-55 32l-45 78v8q0 24 -35 76.5t-51 67.5l-4 37q-48 65 -48 73v37l15 6v15q2 5 30 45l46 6l8 29l30 10l17 -7
q4 -2 9.5 -7t16.5 -18l11 -13l55 -107q4 -2 6 -7t5.5 -18t6.5 -22.5t9 -22.5t16 -28.5t25 -30.5q4 -4 20 -57l27 -6l-21 -43l27 -21l8 -37l-20 -26z" />
    <glyph glyph-name="icircumflex" unicode="&#xee;" horiz-adv-x="727" 
d="M473 797h-4l-8 -52l8 -6l-14 -37l-4 7v-15q0 -44 -37 -84h8v-18h-4l4 -117l-8 -14l4 -19l-15 -73h5q0 -20 -10 -57l-9 -27l-12 -133q-4 -20 -4 -23q0 -18 16 -18q19 0 42 15l65 44q27 33 39 33h6q17 8 32 27t23 22q15 27 27 27q1 0 8 -2t37 -7l8 -28q0 -22 -16 -52
t-25.5 -49.5t-42.5 -27.5v-11l-14 4v-14h-9q-3 -27 -28 -31v-6h-27v-4h-10l-27 -18h-8l-14 -19l-41 -6q-6 -12 -19 -12l-51 -37v-8l-25 4l7 -10l-33 -8v-5h-14v-14l-15 -10h-4v-4q-13 -37 -37 -37l-14 4q-12 37 -41 74q8 32 8 47l-8 41v22q0 31 6 64l6 26v5h-2q-2 0 -2 2
t9.5 32t9.5 78q0 12 -9 14l13 27v121l16 35q8 16 16 63q13 8 15 15l-8 12l8 20q-16 31 -37 31h-47q-8 -8 -8 -18h-7q-5 -27 -26 -33q-5 -26 -29 -31l-18 -29h-4q-7 -22 -25 -22q-20 0 -32.5 29t-12.5 32q0 4 4 9q10 44 62 73v8q22 22 45 33h-9q43 9 50.5 44.5t52.5 35.5
l12 -4l25 12h-15l23 15l6 -4l18 22l5 -4q12 29 55 29q10 0 10 8v10h8l-4 4l33 23q16 28 51 28q22 0 38.5 -12t16.5 -24q0 -17 -14 -37zM688 1122l-86 -30l-53 32l-45 78l-72 137q-17 17 -24 29q-48 -31 -62 -31q-38 -49 -51 -53l2 -10l-108 -103v-18l-15 -6l-26 -35l-37 6
l-25 45l6 39l23 -6l8 23h18l7 20q4 10 24 31l-2 10l53 53l9 27l59 38q7 4 25 34l24 10l4 14h15l-7 14l15 31l14 6v15q4 10 29 45l47 6l8 29l29 10l24 -9q2 -1 12.5 -11.5l18.5 -18.5l127 -246l14 -53l27 -6l-21 -43l29 -21l8 -37l-20 -26z" />
    <glyph glyph-name="idieresis" unicode="&#xef;" horiz-adv-x="727" 
d="M473 797h-4l-8 -52l8 -6l-14 -37l-4 7v-15q0 -44 -37 -84h8v-18h-4l4 -117l-8 -14l4 -19l-15 -73h5q0 -20 -10 -57l-9 -27l-12 -133q-4 -20 -4 -23q0 -18 16 -18q19 0 42 15l65 44q27 33 39 33h6q17 8 32 27t23 22q15 27 27 27q1 0 8 -2t37 -7l8 -28q0 -22 -16 -52
t-25.5 -49.5t-42.5 -27.5v-11l-14 4v-14h-9q-3 -27 -28 -31v-6h-27v-4h-10l-27 -18h-8l-14 -19l-41 -6q-6 -12 -19 -12l-51 -37v-8l-25 4l7 -10l-33 -8v-5h-14v-14l-15 -10h-4v-4q-13 -37 -37 -37l-14 4q-12 37 -41 74q8 32 8 47l-8 41v22q0 31 6 64l6 26v5h-2q-2 0 -2 2
t9.5 32t9.5 78q0 12 -9 14l13 27v121l16 35q8 16 16 63q13 8 15 15l-8 12l8 20q-16 31 -37 31h-47q-8 -8 -8 -18h-7q-5 -27 -26 -33q-5 -26 -29 -31l-18 -29h-4q-7 -22 -25 -22q-20 0 -32.5 29t-12.5 32q0 4 4 9q10 44 62 73v8q22 22 45 33h-9q43 9 50.5 44.5t52.5 35.5
l12 -4l25 12h-15l23 15l6 -4l18 22l5 -4q12 29 55 29q10 0 10 8v10h8l-4 4l33 23q16 28 51 28q22 0 38.5 -12t16.5 -24q0 -17 -14 -37zM698 1468l84 -41l19 -43l43 -63l-49 -37l-8 -20l-46 -27l-6 4v-14q-26 -36 -88 -45l-14 -25l-41 66l-66 55l5 51q23 33 41 37l20 29l4 -4
q5 9 33 22l4 -4q3 27 22 37zM135 1427q3 15 19 15q24 0 47 -51h33l41 -29l38 -70l-75 -59l-103 -103l-14 -10q-20 8 -37 51l-18 5l-47 112l-19 8l12 28q7 15 17 24l13 4q5 2 38 32q13 0 19 9.5t32 38.5v-5h4z" />
    <glyph glyph-name="ntilde" unicode="&#xf1;" horiz-adv-x="1352" 
d="M399 920l39 -5l56 7v-70q-17 -13 -17 -27q-28 -16 -28 -43q0 -12 2 -18l-7 -39l-75 -135l-11 -66l-18 -24l2 -51l-29 -136q-4 -4 -4 -8q0 -8 10 -14l46 57l26 14l21 48l39 28l47 72q19 29 82 53q0 17 30 49q4 1 25 18t39 29l-4 7q72 39 71 53q51 22 66 51q72 66 104 70
q8 1 26.5 9.5t31.5 10.5q21 27 55 27q20 0 20 -29l3 -65l-13 -37l-2 -47l-22 -56l-23 -141q-4 -12 -14 -14l12 -45l-14 -25l24 -14l-8 -13q-6 -6 -20 -32q10 -10 16 -19l-6 -80h4q10 -105 23 -106l43 16q25 41 77 70q18 3 27 12q16 0 20 10q18 11 32 14.5t59 26.5l34 -8
q12 -11 15 -22q-27 -33 -58.5 -79t-44.5 -46h-28l-21 -31l-51 -10l-45 -58l-37 -10l-141 -98l-43 -43l-6 37l-37 -2l-13 61l-20 16l-2 70l-10 43q0 54 20 57v5l12 47l-2 65l23 45l-16 19l32 37l2 77l17 37l-29 39l8 2v29l19 10v6l-2 17v4q-9 10 -45 16l-48 -39l-67 -31
l-98 -110l-15 -23q-44 -44 -43 -49l-20 -14q-4 -20 -4 -27l-39 -45l-41 -59l-70 -111h-4l-12 -28l-19 -66q-42 -35 -75 -70l-33 -8l-21 -35l-14 -2l-27 6q-22 0 -47 -10l21 41l8 37q39 95 59 172h4v29l21 59l8 51h4l-10 33l10 62l7 22q3 10 28 43l-6 27l12 18q-18 48 -18 88
l6 33l-4 6v12q-28 19 -62 19q-11 0 -23.5 -6t-37.5 -54q-65 -22 -76 -28l-18 39q0 17 10.5 26t17.5 9h17l16 22l31 8l-12 8v11l38 -6l41 45l58 34l10 13h6l-10 14q8 -4 12 -4q8 0 8 18q35 42 74 47q12 31 45 33v10zM684 1470l16 -26l27 -12l12 -31l70 -66l38 -24l5 8
q20 -21 45 -21l22 5h17l-9 8q23 25 54 28l-5 7q34 2 39 28q24 0 29 21l23 19q6 5 49 18q5 8 12 8q4 0 4 -4v12q37 16 55 16l17 -4l16 -16q-76 -98 -136.5 -150.5t-80.5 -52.5q-4 0 -4 2l-43 -37l-88 -55l-23 -25l-22 4q-49 -42 -64 -45q-10 4 -16 19q-8 -4 -12 -4
q-12 0 -21 14q-17 2 -32 10t-29 21t-33.5 37.5t-30 31t-20 19.5t-14 26t-9.5 13l-14 -2q-9 0 -12 16q-20 -22 -52 -22l-18 2l-33 -39l-39 -21l-65 -71q-40 12 -43 65l8 6l-2 8l10 21l10 -4l19 16h-6q33 32 32 39l5 -4l4 10l12 6l4 -6v15l4 -4l25 20h-8l20 12v4h10v9l33 26
q14 21 23 21q3 0 8 -4q10 10 22 10q7 10 17 10l22 16l19 3q8 2 32 18q27 25 35 25q9 0 10 -3l21 7z" />
    <glyph glyph-name="oacute" unicode="&#xf3;" horiz-adv-x="864" 
d="M586 922h51l33 -15q12 -53 39 -53q10 0 10 20q31 23 57 23q16 0 27 -11t12 -22l8 -114l-6 -23q-7 -23 -10 -49t-9.5 -41t-9.5 -19l-81 -86l10 -59l-21 -35l-10 -32l-63 -72l-31 -78q-28 -31 -80 -49l-14 -57l-58 -37l-51 -62l-92 -69l-27 -7l-104 -84l-29 27
q-34 26 -47.5 44.5t-13.5 33.5q0 8 6 14l10 86l-43 70q-6 9 -6 16q0 12 12 27v4l17 16l-19 50l6 104v27l15 8q-11 20 -11 47q0 15 13 31h18l-16 14l12 22l21 54l30 37l9 28l30 41q4 14 8 25v-2q0 16 7.5 26t23.5 37l49 25l4 14q50 40 99 49l67 13l45 26l33 -2zM524 743
l-4 -8q-18 0 -26 -0.5t-23 -13.5l-29 12l-110 -61q-41 -23 -70 -75.5t-29 -86.5q0 -21 9 -37h4q0 -23 12 -84l-25 -39l19 -28l-10 -35q0 -7 8 -24.5t7.5 -26t16.5 -35.5l-2 -21q0 -55 27 -55q22 0 59 31q9 26 35 28l10 31q17 2 17 16v7q5 3 11 6t7 4q12 39 47 88l7 -4l-3 8
l31 35l39 129l6 12l13 4l1 23v18q1 6 15 37l-62 49l48 19l-7 55l9 20l-13 -6zM899 1507l-33 -77l-41 -37l-33 -19l-14 -20l-62 -35l-81 -39l2 -10l-136 -96v-17q-11 -3 -41 -43l-36 6l-25 45l6 39l23 -6l8 23h18l7 21q4 9 24 30l-2 10q23 12 46.5 26.5t37.5 53.5l35 10
l24 29l2 33l25 10l4 14h14l-6 15l15 30l14 6v15l4 10l43 14l6 41l35 -8l25 33q43 -17 55 -39z" />
    <glyph glyph-name="ograve" unicode="&#xf2;" horiz-adv-x="864" 
d="M586 922h51l33 -15q12 -53 39 -53q10 0 10 20q31 23 57 23q16 0 27 -11t12 -22l8 -114l-6 -23q-7 -23 -10 -49t-9.5 -41t-9.5 -19l-81 -86l10 -59l-21 -35l-10 -32l-63 -72l-31 -78q-28 -31 -80 -49l-14 -57l-58 -37l-51 -62l-92 -69l-27 -7l-104 -84l-29 27
q-34 26 -47.5 44.5t-13.5 33.5q0 8 6 14l10 86l-43 70q-6 9 -6 16q0 12 12 27v4l17 16l-19 50l6 104v27l15 8q-11 20 -11 47q0 15 13 31h18l-16 14l12 22l21 54l30 37l9 28l30 41q4 14 8 25v-2q0 16 7.5 26t23.5 37l49 25l4 14q50 40 99 49l67 13l45 26l33 -2zM524 743
l-4 -8q-18 0 -26 -0.5t-23 -13.5l-29 12l-110 -61q-41 -23 -70 -75.5t-29 -86.5q0 -21 9 -37h4q0 -23 12 -84l-25 -39l19 -28l-10 -35q0 -7 8 -24.5t7.5 -26t16.5 -35.5l-2 -21q0 -55 27 -55q22 0 59 31q9 26 35 28l10 31q17 2 17 16v7q5 3 11 6t7 4q12 39 47 88l7 -4l-3 8
l31 35l39 129l6 12l13 4l1 23v18q1 6 15 37l-62 49l48 19l-7 55l9 20l-13 -6zM654 1122l-84 -30l-55 32l-45 78v8q0 24 -35 76.5t-51 67.5l-4 37q-48 65 -48 73v37l15 6v15q2 5 30 45l46 6l8 29l30 10l17 -7q4 -2 9.5 -7t16.5 -18l11 -13l55 -107q4 -2 6 -7t5.5 -18
t6.5 -22.5t9 -22.5t16 -28.5t25 -30.5q4 -4 20 -57l27 -6l-21 -43l27 -21l8 -37l-20 -26z" />
    <glyph glyph-name="ocircumflex" unicode="&#xf4;" horiz-adv-x="864" 
d="M586 922h51l33 -15q12 -53 39 -53q10 0 10 20q31 23 57 23q16 0 27 -11t12 -22l8 -114l-6 -23q-7 -23 -10 -49t-9.5 -41t-9.5 -19l-81 -86l10 -59l-21 -35l-10 -32l-63 -72l-31 -78q-28 -31 -80 -49l-14 -57l-58 -37l-51 -62l-92 -69l-27 -7l-104 -84l-29 27
q-34 26 -47.5 44.5t-13.5 33.5q0 8 6 14l10 86l-43 70q-6 9 -6 16q0 12 12 27v4l17 16l-19 50l6 104v27l15 8q-11 20 -11 47q0 15 13 31h18l-16 14l12 22l21 54l30 37l9 28l30 41q4 14 8 25v-2q0 16 7.5 26t23.5 37l49 25l4 14q50 40 99 49l67 13l45 26l33 -2zM524 743
l-4 -8q-18 0 -26 -0.5t-23 -13.5l-29 12l-110 -61q-41 -23 -70 -75.5t-29 -86.5q0 -21 9 -37h4q0 -23 12 -84l-25 -39l19 -28l-10 -35q0 -7 8 -24.5t7.5 -26t16.5 -35.5l-2 -21q0 -55 27 -55q22 0 59 31q9 26 35 28l10 31q17 2 17 16v7q5 3 11 6t7 4q12 39 47 88l7 -4l-3 8
l31 35l39 129l6 12l13 4l1 23v18q1 6 15 37l-62 49l48 19l-7 55l9 20l-13 -6zM835 1122l-86 -30l-53 32l-45 78l-72 137q-17 17 -24 29q-48 -31 -62 -31q-38 -49 -51 -53l2 -10l-108 -103v-18l-15 -6l-26 -35l-37 6l-25 45l6 39l23 -6l8 23h18l7 20q4 10 24 31l-2 10l53 53
l9 27l59 38q7 4 25 34l24 10l4 14h15l-7 14l15 31l14 6v15q4 10 29 45l47 6l8 29l29 10l24 -9q2 -1 12.5 -11.5l18.5 -18.5l127 -246l14 -53l27 -6l-21 -43l29 -21l8 -37l-20 -26z" />
    <glyph glyph-name="odieresis" unicode="&#xf6;" horiz-adv-x="864" 
d="M586 922h51l33 -15q12 -53 39 -53q10 0 10 20q31 23 57 23q16 0 27 -11t12 -22l8 -114l-6 -23q-7 -23 -10 -49t-9.5 -41t-9.5 -19l-81 -86l10 -59l-21 -35l-10 -32l-63 -72l-31 -78q-28 -31 -80 -49l-14 -57l-58 -37l-51 -62l-92 -69l-27 -7l-104 -84l-29 27
q-34 26 -47.5 44.5t-13.5 33.5q0 8 6 14l10 86l-43 70q-6 9 -6 16q0 12 12 27v4l17 16l-19 50l6 104v27l15 8q-11 20 -11 47q0 15 13 31h18l-16 14l12 22l21 54l30 37l9 28l30 41q4 14 8 25v-2q0 16 7.5 26t23.5 37l49 25l4 14q50 40 99 49l67 13l45 26l33 -2zM524 743
l-4 -8q-18 0 -26 -0.5t-23 -13.5l-29 12l-110 -61q-41 -23 -70 -75.5t-29 -86.5q0 -21 9 -37h4q0 -23 12 -84l-25 -39l19 -28l-10 -35q0 -7 8 -24.5t7.5 -26t16.5 -35.5l-2 -21q0 -55 27 -55q22 0 59 31q9 26 35 28l10 31q17 2 17 16v7q5 3 11 6t7 4q12 39 47 88l7 -4l-3 8
l31 35l39 129l6 12l13 4l1 23v18q1 6 15 37l-62 49l48 19l-7 55l9 20l-13 -6zM845 1468l84 -41l19 -43l43 -63l-49 -37l-8 -20l-46 -27l-6 4v-14q-26 -36 -88 -45l-14 -25l-41 66l-66 55l5 51q23 33 41 37l20 29l4 -4q5 9 33 22l4 -4q3 27 22 37zM282 1427q3 15 19 15
q24 0 47 -51h33l41 -29l38 -70l-75 -59l-103 -103l-14 -10q-20 8 -37 51l-18 5l-47 112l-19 8l12 28q7 15 17 24l13 4q5 2 38 32q13 0 19 9.5t32 38.5v-5h4z" />
    <glyph glyph-name="otilde" unicode="&#xf5;" horiz-adv-x="864" 
d="M586 922h51l33 -15q12 -53 39 -53q10 0 10 20q31 23 57 23q16 0 27 -11t12 -22l8 -114l-6 -23q-7 -23 -10 -49t-9.5 -41t-9.5 -19l-81 -86l10 -59l-21 -35l-10 -32l-63 -72l-31 -78q-28 -31 -80 -49l-14 -57l-58 -37l-51 -62l-92 -69l-27 -7l-104 -84l-29 27
q-34 26 -47.5 44.5t-13.5 33.5q0 8 6 14l10 86l-43 70q-6 9 -6 16q0 12 12 27v4l17 16l-19 50l6 104v27l15 8q-11 20 -11 47q0 15 13 31h18l-16 14l12 22l21 54l30 37l9 28l30 41q4 14 8 25v-2q0 16 7.5 26t23.5 37l49 25l4 14q50 40 99 49l67 13l45 26l33 -2zM524 743
l-4 -8q-18 0 -26 -0.5t-23 -13.5l-29 12l-110 -61q-41 -23 -70 -75.5t-29 -86.5q0 -21 9 -37h4q0 -23 12 -84l-25 -39l19 -28l-10 -35q0 -7 8 -24.5t7.5 -26t16.5 -35.5l-2 -21q0 -55 27 -55q22 0 59 31q9 26 35 28l10 31q17 2 17 16v7q5 3 11 6t7 4q12 39 47 88l7 -4l-3 8
l31 35l39 129l6 12l13 4l1 23v18q1 6 15 37l-62 49l48 19l-7 55l9 20l-13 -6zM510 1470l16 -26l27 -12l12 -31l70 -66l38 -24l5 8q20 -21 45 -21l22 5h17l-9 8q23 25 54 28l-5 7q34 2 39 28q24 0 29 21l23 19q6 5 49 18q5 8 12 8q4 0 4 -4v12q37 16 55 16l17 -4l16 -16
q-76 -98 -136.5 -150.5t-80.5 -52.5q-4 0 -4 2l-43 -37l-88 -55l-23 -25l-22 4q-49 -42 -64 -45q-10 4 -16 19q-8 -4 -12 -4q-12 0 -21 14q-17 2 -32 10t-29 21t-33.5 37.5t-30 31t-20 19.5t-14 26t-9.5 13l-14 -2q-9 0 -12 16q-20 -22 -52 -22l-18 2l-33 -39l-39 -21
l-65 -71q-40 12 -43 65l8 6l-2 8l10 21l10 -4l19 16h-6q33 32 32 39l5 -4l4 10l12 6l4 -6v15l4 -4l25 20h-8l20 12v4h10v9l33 26q14 21 23 21q3 0 8 -4q10 10 22 10q7 10 17 10l22 16l19 3q8 2 32 18q27 25 35 25q9 0 10 -3l21 7z" />
    <glyph glyph-name="uacute" unicode="&#xfa;" horiz-adv-x="1421" 
d="M528 948l31 -37q-24 -44 -37 -80l-37 -22l-8 -23l8 -6v-18l4 -8l-8 -11v-22l-14 -33l-14 -10q-16 -43 -23 -74l-22 -18l-7 -33l7 -4l-25 -29v-22l-8 -11l12 -55l-12 -47l8 -55l10 -41v-37l8 -47l-8 -19v-55q29 12 41 27l19 -4v14l47 45l22 14v11l37 32l10 33q24 12 37 27
l4 -8v18l21 18v-10l8 14h14v11l4 8h19l4 14l-4 23l69 57q11 8 14 17l11 24q19 11 37 14l4 15l10 8h13v18l6 -14v18q9 17 18 21l4 12l47 51h19l18 19l19 39q48 53 55 69l29 5l26 47l-8 -25l37 29l22 -15l29 19h37l18 -15l7 -36l-17 -16q-8 -7 -22 -40l6 -18l-10 -33v-14
l-15 -15v-26l-18 -6v-52l-4 -22l4 -23l-19 -18l11 -25l-11 -18l11 -45l-11 -25v-176l11 -37l18 -14l37 4l18 -18l-4 -23l-24 -10l-9 -23l-18 -4l-14 -24h-15l-8 -23l-43 -14l-14 -27l-56 -10l-22 -23l-47 -10l-23 15l-18 59l18 25l-10 18l14 18l19 4l22 140v18l-12 25l19 8
l-7 18l7 25l-19 8l-10 14l18 15v22l11 25q-27 21 -37 22l-6 48h-19l-14 8l-19 -33l-102 -111l-19 -14l-4 -14l-79 -92l-9 -19l-84 -98l-102 -111l-31 -17q-6 -3 -20 -26q-43 -16 -47 -18v-10l-13 6v-29l-28 -18l-37 4l-37 -27l-6 14l-23 13l-4 24q-15 11 -24 33l-23 8l-8 23
l-14 160l14 59h8v43l23 18l-4 19l14 33h18l4 12l-4 28l15 5l4 32l4 4l-12 15l12 28v33l6 70h8v33l19 22l-15 19l15 24l-5 12l19 37l-29 33l-18 -4l-4 -18l-27 -5l-10 -24h-33l-14 18l-111 -37l-29 48l37 36q29 12 37 37l33 6v9h29l37 4l24 43l37 -11l41 11q3 8 14 16h33
l-4 6l8 4h23l6 11q22 8 45 32h18l15 19l14 4l14 -4l19 10l10 -10l8 18h10zM1170 1507l-33 -77l-41 -37l-33 -19l-14 -20l-62 -35l-81 -39l2 -10l-136 -96v-17q-11 -3 -41 -43l-36 6l-25 45l6 39l23 -6l8 23h18l7 21q4 9 24 30l-2 10q23 12 46.5 26.5t37.5 53.5l35 10l24 29
l2 33l25 10l4 14h14l-6 15l15 30l14 6v15l4 10l43 14l6 41l35 -8l25 33q43 -17 55 -39z" />
    <glyph glyph-name="ugrave" unicode="&#xf9;" horiz-adv-x="1421" 
d="M528 948l31 -37q-24 -44 -37 -80l-37 -22l-8 -23l8 -6v-18l4 -8l-8 -11v-22l-14 -33l-14 -10q-16 -43 -23 -74l-22 -18l-7 -33l7 -4l-25 -29v-22l-8 -11l12 -55l-12 -47l8 -55l10 -41v-37l8 -47l-8 -19v-55q29 12 41 27l19 -4v14l47 45l22 14v11l37 32l10 33q24 12 37 27
l4 -8v18l21 18v-10l8 14h14v11l4 8h19l4 14l-4 23l69 57q11 8 14 17l11 24q19 11 37 14l4 15l10 8h13v18l6 -14v18q9 17 18 21l4 12l47 51h19l18 19l19 39q48 53 55 69l29 5l26 47l-8 -25l37 29l22 -15l29 19h37l18 -15l7 -36l-17 -16q-8 -7 -22 -40l6 -18l-10 -33v-14
l-15 -15v-26l-18 -6v-52l-4 -22l4 -23l-19 -18l11 -25l-11 -18l11 -45l-11 -25v-176l11 -37l18 -14l37 4l18 -18l-4 -23l-24 -10l-9 -23l-18 -4l-14 -24h-15l-8 -23l-43 -14l-14 -27l-56 -10l-22 -23l-47 -10l-23 15l-18 59l18 25l-10 18l14 18l19 4l22 140v18l-12 25l19 8
l-7 18l7 25l-19 8l-10 14l18 15v22l11 25q-27 21 -37 22l-6 48h-19l-14 8l-19 -33l-102 -111l-19 -14l-4 -14l-79 -92l-9 -19l-84 -98l-102 -111l-31 -17q-6 -3 -20 -26q-43 -16 -47 -18v-10l-13 6v-29l-28 -18l-37 4l-37 -27l-6 14l-23 13l-4 24q-15 11 -24 33l-23 8l-8 23
l-14 160l14 59h8v43l23 18l-4 19l14 33h18l4 12l-4 28l15 5l4 32l4 4l-12 15l12 28v33l6 70h8v33l19 22l-15 19l15 24l-5 12l19 37l-29 33l-18 -4l-4 -18l-27 -5l-10 -24h-33l-14 18l-111 -37l-29 48l37 36q29 12 37 37l33 6v9h29l37 4l24 43l37 -11l41 11q3 8 14 16h33
l-4 6l8 4h23l6 11q22 8 45 32h18l15 19l14 4l14 -4l19 10l10 -10l8 18h10zM924 1122l-84 -30l-55 32l-45 78v8q0 24 -35 76.5t-51 67.5l-4 37q-48 65 -48 73v37l15 6v15q2 5 30 45l46 6l8 29l30 10l17 -7q4 -2 9.5 -7t16.5 -18l11 -13l55 -107q4 -2 6 -7t5.5 -18t6.5 -22.5
t9 -22.5t16 -28.5t25 -30.5q4 -4 20 -57l27 -6l-21 -43l27 -21l8 -37l-20 -26z" />
    <glyph glyph-name="ucircumflex" unicode="&#xfb;" horiz-adv-x="1421" 
d="M528 948l31 -37q-24 -44 -37 -80l-37 -22l-8 -23l8 -6v-18l4 -8l-8 -11v-22l-14 -33l-14 -10q-16 -43 -23 -74l-22 -18l-7 -33l7 -4l-25 -29v-22l-8 -11l12 -55l-12 -47l8 -55l10 -41v-37l8 -47l-8 -19v-55q29 12 41 27l19 -4v14l47 45l22 14v11l37 32l10 33q24 12 37 27
l4 -8v18l21 18v-10l8 14h14v11l4 8h19l4 14l-4 23l69 57q11 8 14 17l11 24q19 11 37 14l4 15l10 8h13v18l6 -14v18q9 17 18 21l4 12l47 51h19l18 19l19 39q48 53 55 69l29 5l26 47l-8 -25l37 29l22 -15l29 19h37l18 -15l7 -36l-17 -16q-8 -7 -22 -40l6 -18l-10 -33v-14
l-15 -15v-26l-18 -6v-52l-4 -22l4 -23l-19 -18l11 -25l-11 -18l11 -45l-11 -25v-176l11 -37l18 -14l37 4l18 -18l-4 -23l-24 -10l-9 -23l-18 -4l-14 -24h-15l-8 -23l-43 -14l-14 -27l-56 -10l-22 -23l-47 -10l-23 15l-18 59l18 25l-10 18l14 18l19 4l22 140v18l-12 25l19 8
l-7 18l7 25l-19 8l-10 14l18 15v22l11 25q-27 21 -37 22l-6 48h-19l-14 8l-19 -33l-102 -111l-19 -14l-4 -14l-79 -92l-9 -19l-84 -98l-102 -111l-31 -17q-6 -3 -20 -26q-43 -16 -47 -18v-10l-13 6v-29l-28 -18l-37 4l-37 -27l-6 14l-23 13l-4 24q-15 11 -24 33l-23 8l-8 23
l-14 160l14 59h8v43l23 18l-4 19l14 33h18l4 12l-4 28l15 5l4 32l4 4l-12 15l12 28v33l6 70h8v33l19 22l-15 19l15 24l-5 12l19 37l-29 33l-18 -4l-4 -18l-27 -5l-10 -24h-33l-14 18l-111 -37l-29 48l37 36q29 12 37 37l33 6v9h29l37 4l24 43l37 -11l41 11q3 8 14 16h33
l-4 6l8 4h23l6 11q22 8 45 32h18l15 19l14 4l14 -4l19 10l10 -10l8 18h10zM1106 1122l-86 -30l-53 32l-45 78l-72 137q-17 17 -24 29q-48 -31 -62 -31q-38 -49 -51 -53l2 -10l-108 -103v-18l-15 -6l-26 -35l-37 6l-25 45l6 39l23 -6l8 23h18l7 20q4 10 24 31l-2 10l53 53
l9 27l59 38q7 4 25 34l24 10l4 14h15l-7 14l15 31l14 6v15q4 10 29 45l47 6l8 29l29 10l24 -9q2 -1 12.5 -11.5l18.5 -18.5l127 -246l14 -53l27 -6l-21 -43l29 -21l8 -37l-20 -26z" />
    <glyph glyph-name="udieresis" unicode="&#xfc;" horiz-adv-x="1421" 
d="M528 948l31 -37q-24 -44 -37 -80l-37 -22l-8 -23l8 -6v-18l4 -8l-8 -11v-22l-14 -33l-14 -10q-16 -43 -23 -74l-22 -18l-7 -33l7 -4l-25 -29v-22l-8 -11l12 -55l-12 -47l8 -55l10 -41v-37l8 -47l-8 -19v-55q29 12 41 27l19 -4v14l47 45l22 14v11l37 32l10 33q24 12 37 27
l4 -8v18l21 18v-10l8 14h14v11l4 8h19l4 14l-4 23l69 57q11 8 14 17l11 24q19 11 37 14l4 15l10 8h13v18l6 -14v18q9 17 18 21l4 12l47 51h19l18 19l19 39q48 53 55 69l29 5l26 47l-8 -25l37 29l22 -15l29 19h37l18 -15l7 -36l-17 -16q-8 -7 -22 -40l6 -18l-10 -33v-14
l-15 -15v-26l-18 -6v-52l-4 -22l4 -23l-19 -18l11 -25l-11 -18l11 -45l-11 -25v-176l11 -37l18 -14l37 4l18 -18l-4 -23l-24 -10l-9 -23l-18 -4l-14 -24h-15l-8 -23l-43 -14l-14 -27l-56 -10l-22 -23l-47 -10l-23 15l-18 59l18 25l-10 18l14 18l19 4l22 140v18l-12 25l19 8
l-7 18l7 25l-19 8l-10 14l18 15v22l11 25q-27 21 -37 22l-6 48h-19l-14 8l-19 -33l-102 -111l-19 -14l-4 -14l-79 -92l-9 -19l-84 -98l-102 -111l-31 -17q-6 -3 -20 -26q-43 -16 -47 -18v-10l-13 6v-29l-28 -18l-37 4l-37 -27l-6 14l-23 13l-4 24q-15 11 -24 33l-23 8l-8 23
l-14 160l14 59h8v43l23 18l-4 19l14 33h18l4 12l-4 28l15 5l4 32l4 4l-12 15l12 28v33l6 70h8v33l19 22l-15 19l15 24l-5 12l19 37l-29 33l-18 -4l-4 -18l-27 -5l-10 -24h-33l-14 18l-111 -37l-29 48l37 36q29 12 37 37l33 6v9h29l37 4l24 43l37 -11l41 11q3 8 14 16h33
l-4 6l8 4h23l6 11q22 8 45 32h18l15 19l14 4l14 -4l19 10l10 -10l8 18h10zM1116 1468l84 -41l19 -43l43 -63l-49 -37l-8 -20l-46 -27l-6 4v-14q-26 -36 -88 -45l-14 -25l-41 66l-66 55l5 51q23 33 41 37l20 29l4 -4q5 9 33 22l4 -4q3 27 22 37zM553 1427q3 15 19 15
q24 0 47 -51h33l41 -29l38 -70l-75 -59l-103 -103l-14 -10q-20 8 -37 51l-18 5l-47 112l-19 8l12 28q7 15 17 24l13 4q5 2 38 32q13 0 19 9.5t32 38.5v-5h4z" />
    <glyph glyph-name="dagger" unicode="&#x2020;" horiz-adv-x="983" 
d="M684 1518l23 -60l-52 -74l-59 -303q52 -24 135 -24v-8q56 -11 103 -11q12 11 36 11q62 0 62 -43q0 -31 -39.5 -49.5t-110.5 -18.5h-28q-21 0 -56.5 -8t-50.5 -8q-13 0 -45 14q-42 -35 -54.5 -71t-17.5 -92t-6 -60l-35 -140l-51 -254l-65 -204l-60 -242l-32 -219l-54 -47
l-63 28l-21 91l21 61q1 22 6 43.5t14 42.5l19 41l30 172l29 147l31 109l20 59l39 134l10 59h11l51 219q18 70 18 92q0 11 -14.5 14.5t-40.5 15t-33 11.5q-2 0 -10.5 -8t-32.5 -8h-10l-37 -8v16l-63 -16v8l-101 -17l-49 25l10 25l-4 36l31 25l74 25l67 -5l70 13q-4 -6 -4 -8
q0 -5 6 -5l102 21v-8h9q56 0 68.5 16t14.5 77.5t9 106.5v-8l49 185q10 41 10 84q0 6 -4 31t-6 44l10 9q19 0 43 -9l8 17q70 -12 70 -76v-16z" />
    <glyph glyph-name="degree" unicode="&#xb0;" horiz-adv-x="905" 
d="M549 1489h18q41 0 117 -69.5t100 -194.5q-26 -18 -26 -41l-29 -41l23 -33l-56 -70l-63 -22l-58 -55l-61 4l-45 -17l-63 8l-60 -8l-15 15q-9 8 -22 11l-33 9l-22 49q-41 42 -48.5 73.5t-15.5 139.5l15 -10l6 37l6 -4q6 36 37 39l-10 14l10 8h10v19l12 -4q9 26 21 26
q4 0 10 -6l8 20q14 4 17 13l8 -13l6 5q-6 6 -6 10q0 11 31 20l12 -4v4h18l5 19l8 -4q11 5 18 26l10 -8l19 8q20 -10 33 -10q7 0 13 4zM518 1368l-94 -43q-4 4 -10 4q-16 0 -45 -41.5t-38.5 -76.5t-6.5 -46l16 -63q20 -24 51 -27v-4l47 -4v4h17l37 10q18 34 59 43q0 15 12 27
v10l4 -4l35 41v6q23 20 23 37q0 10 -7 23t-8 20l-18 14q-20 39 -35.5 52t-38.5 18z" />
    <glyph glyph-name="cent" unicode="&#xa2;" horiz-adv-x="1008" 
d="M545 383l10 4l-6 -6h6l8 14q15 3 15 15l32 14l4 -4v4l7 -4q4 45 43 45h6q10 27 32 27l11 -3l4 19l14 14h4v4h6l9 4q19 23 36 33q22 -22 27.5 -26.5t5.5 -16.5v-8l-18 -23v-32l-33 -43l-23 -45l-51 -35l-57 -74l-74 -18l-28 -19q-7 -21 -7 -43l2 -24l-8 -45q-4 -20 -4 -29
q0 -25 12 -55l-14 -47l4 -80q-22 -23 -33 -60l-36 -10l8 20l-10 -2q-11 0 -19 14.5t-8 28.5q0 18 10 52l-4 14q18 9 18 23q0 2 -4 14l7 2l6 39l-2 14q0 14 14 23l6 69l-6 19q6 2 12 16l6 12v7l-32 -21l-68 6l-37 -12l-61 25q-123 141 -123 272q0 16 7 38l7 19v70l15 37l4 73
q35 45 51 125h4q4 15 10 25q36 12 43 55q20 7 37 37l35 62h6l8 36v5q20 19 29 32l4 -4q18 12 18 27v6q19 0 19 18q33 8 33 31v6l24 8l-6 -4h10l8 23h15q11 12 14 12v10l-4 11q6 9 6 14q0 7 -2 10q4 16 4 25q0 10 -2 22q6 6 6 9v4q13 9 13 10h-13q-12 0 -12 12q0 8 12 27
l2 12q0 11 -6 21q7 4 25 42t18 50v32q12 35 43 35q4 0 18.5 -7t26.5 -11l-26 -43q-10 -19 -27 -41v-76l-12 -74l-19 -39l4 -22q49 22 88 31l15 14l18 -6l-4 6l29 12l51 -8l37 -61q21 -40 33 -60h-11l15 -55l-4 4l-15 -65l4 -19q0 -8 -8 -33q-10 -10 -10 -28h-4
q-27 -96 -33 -103l-43 -49l-51 -98l-19 -4q-13 0 -21 13.5t-5 23.5l33 110l4 33l4 -4q0 16 14 18l-10 92q-17 3 -27 7l4 36v23h-8v-4l-33 35l-61 -13l-8 -57l2 -59l-19 -43l-18 -107l4 -127l-14 -151l8 -21l-14 -31l2 -28h-9l2 -23l13 -2l6 -43zM492 362l-5 19l5 20l-7 39
l4 35l5 -2l-2 12l12 15q-15 28 -15 39l3 24q12 13 12 29q0 6 -2 10l6 -2q-16 36 -16 64q0 12 4 32l6 2l-8 7l6 18l4 121l18 24q-18 34 -18 62q0 8 10.5 45t13.5 80l-57 -43l-47 -49l4 -33l-63 -78l-7 -47l-8 -29l-14 -114q-19 -12 -33 -44h4l-8 -40l8 -7l-4 -18l37 -27
l10 -51l53 -45l9 -18q1 -18 10 -29t28.5 -17t38.5 -12z" />
    <glyph glyph-name="sterling" unicode="&#xa3;" horiz-adv-x="1446" 
d="M975 1436l18 -4v4l8 -9q27 4 39 9q16 -12 27 -31l23 -6l-5 -4l19 -11q13 -28 37 -45v-14q-21 -14 -23.5 -23.5t-4 -22t-3.5 -19.5q-28 -18 -29 -19l-18 10q2 -5 2 -16q0 -20 -21 -35l-4 4q-13 -10 -28 -14q-15 12 -15 22q0 28 15 52l-15 14l-14 -4q-14 0 -14 22
q-3 -8 -17 -8q-12 0 -28 8v11q-35 -33 -66 -52q-16 5 -41 23q-2 -8 -10 -8l-29 8v-4l-12 -4l-10 18l-29 -24l-31 -74h4q-32 -36 -32 -84v-8h8q-28 -19 -37 -51l6 -19l-14 -33l-15 -65l-22 -51l8 -15q-10 -10 -10 -16q0 -7 8 -21.5t12 -17.5l4 4q13 -25 43 -25l17 3l-4 4
l57 -15l59 6h52l4 -10l28 -4l-4 4h41v-4l11 4q19 0 30 15h15q21 18 47 18l18 -4q8 -10 10 -25q-13 -17 -17.5 -31.5t-18 -25.5t-35.5 -21.5t-35 -19t-26 -16t-20 -16.5l-20 -27q-26 -5 -57 -5q-18 0 -41 -14v4l-29 15l-4 -5h-10l-31 -14l-57 10h-27l-6 13l-4 -13h-27
q-6 -16 -38 -43l-19 -65l-4 -4q4 -8 4 -13q0 -10 -14 -24l-12 -47l-48 -92v-33q0 -11 -22.5 -22t-32.5 -19l-6 -33l-12 -6v-8h8l-4 -4l22 8l6 -8h23q32 -10 37 -15h10l12 -4v4l62 4l47 -8l63 8l39 -18l-6 -4h15l10 -6l4 10h22l19 -4h6v-6q7 5 22 10q9 -4 19 -4l-4 -6h51v6
l18 -10v4l48 -4v-8l4 4l8 -11l-4 -4h18l43 -8l31 19l29 -7l-5 7l27 -7v7l39 8l4 4l19 -4l14 14q2 -4 4 -6q1 0 4 10l70 47q42 6 69 37l6 -4l13 8v10h12q30 0 49 -28q-10 -10 -10 -27q-42 -69 -74 -80l-55 -18l-55 -47l-43 -23l4 -4l-185 -29l-14 11q-7 -5 -10 -15l-144 -10
l-69 6l-43 -10l6 14h-10v-10l-41 6v-6q-11 -4 -25 -8q-18 6 -22 8v6q-28 0 -56 8v-4l-14 9l-33 -11q-14 0 -37 17h-10v-6l-69 6q-74 4 -107 18v-6q-85 -4 -111 -4v10q-6 -10 -18 -10l-14 4q-15 0 -52 -4q-15 -6 -22 -6q-6 0 -6 6l-8 10q-12 -6 -43 -10l-27 -27l-10 8h-15
l-4 29h4l7 37l4 -4q0 28 32 37l5 -6v10h10l65 49l6 12h7l4 8l6 -8v8q18 3 18 15h8l37 14l29 4h10l-6 -10l16 6h31l17 21l33 33q5 6 20 38l10 4l8 25l19 14l-4 23h8l-4 4q16 9 22 26t25 58h4v14l4 -4v12h6l27 121q-3 33 -35 33h-10l-15 18v-4q-65 0 -65 41q0 5 4 25h6l12 18
l6 -10v19l33 24q21 0 41 14l4 -6q6 31 37 43l-4 4h10q41 34 41 93v47l4 37l-36 32l10 51v15l4 -4v8q11 6 14 43l4 -6l23 84h6l-6 6l28 37q18 8 30 17.5t18 21t7 24t7 25.5h14l23 18h8q57 29 61 29l78 4q17 0 29 14q10 -10 22 -10t33 19l15 -5l14 5v-9l55 9v4h29z" />
    <glyph glyph-name="section" unicode="&#xa7;" horiz-adv-x="1124" 
d="M514 1223q-18 1 -44.5 -19t-19.5 -39l3 -12l61 -37l39 -43l68 -18l30 -56l60 -53l16 12l41 -61l168 -88q53 -27 53 -92q0 -32 -17 -74.5t-110 -155.5l-4 9l-35 -62q21 -84 21 -133q0 -54 -58 -135l2 -8q-50 -56 -114 -105q-42 -10 -51 -17t-17 -23.5t-20 -53.5l-19 -6
l2 -8l-47 -21l6 10l-116 -67q-30 51 -47 51h-3l-14 -4l-182 76q-14 19 -21 47q-63 50 -88.5 96.5t-25.5 69.5v63q11 7 45 53l41 5l2 10l-2 8l30 16l-8 -2l31 25l-8 -2q6 8 26 27h7q19 0 26 -19l-6 -10l-18 -68l14 -22l-12 -13l26 -12l33 -43l61 -65l-4 -19l31 10l2 -8l10 2
q16 -41 86 -53t74 -12q36 0 100 18l-2 8l9 2q55 77 55 127q0 40 -62 105l9 2q-40 43 -92 43h-9l2 -8l-18 -4q-67 64 -166 124q-61 38 -87 80t-44 117l10 19q8 -2 19 -2l2 26l2 -6q-2 4 -2 12q0 13 13.5 19.5t29.5 13.5l-17 -6q16 31 68 47l2 -8q44 53 74 53q10 0 20 -2
q8 14 8 29v8q-18 27 -47 41q-155 87 -155 155q0 18 4.5 33t14.5 29t24.5 26.5t36 25t41.5 30.5l20 18l96 72l-2 6q56 41 123 41h27l-17 4q39 45 70 45q19 0 35 -8l14 -57l96 6v-33q0 -72 -159 -133l-70 27zM506 846q-90 -39 -90 -80q0 -12 6 -31q31 -28 61 -63
q43 -64 52 -68l73 -33l45 -77l74 28l2 -8q4 2 14 2q11 0 15 -2q19 12 31 34.5t12 29.5l2 63l-8 -4l-37 10q-55 61 -117 103q-11 -2 -18 -7l-2 9z" />
    <glyph glyph-name="bullet" unicode="&#x2022;" horiz-adv-x="1053" 
d="M246 573q0 117 82 199t198 82q117 0 199 -82t82 -199t-81.5 -198.5t-199.5 -81.5q-117 0 -198.5 81.5t-81.5 198.5z" />
    <glyph glyph-name="paragraph" unicode="&#xb6;" 
d="M948 1479v-78h-125v-1401h-94v1401h-184v-1401h-94v782q-177 9 -276 104.5t-99 243.5q0 156 107.5 252.5t285.5 96.5h479z" />
    <glyph glyph-name="germandbls" unicode="&#xdf;" horiz-adv-x="1112" 
d="M872 1505h25q4 -24 14 -32h19q5 -20 26 -23q7 -21 7 -47q0 -1 -6 -12.5t-9 -42.5l-18 4l8 -11l-8 -4l22 -26l-14 4q-13 -5 -23 -51l-14 -4v-39l-18 -19l-16 -28q-7 -13 -40 -41q-1 -19 -24 -19l8 -12l-27 -25v4h-4q-2 -18 -22 -18v6q-4 -11 -15 -20q-2 0 -22 -5v-14h-6
v-22q-8 -3 -19 -19l-14 4l6 -4q-21 -8 -29 -22q31 -26 33 -70l8 4q13 -37 43 -37l23 -18v-10h4l6 -19q21 -7 21 -22q0 -11 -6 -29q3 -14 18 -23q13 -76 21 -87t20 -11l22 -29l-8 -12l13 -20q6 -9 10 -45q58 -71 67.5 -115t20.5 -127h-4q12 -10 12 -27q0 -10 -2 -16l8 -4v-8
q0 -27 -18 -39v-37h-8l8 -8l-23 -25l-6 6l-12 -10v4q-26 -19 -29 -45l-4 4l-4 -4q-3 -11 -10 -18h-11l-4 -11l-18 4l-4 -14h-25q-18 -18 -31 -23t-38 -8l6 -6l-19 6l-24 -6q-10 11 -19 11l-18 -15l10 -10l-33 -8h-28q-24 -10 -41 -10l-25 6l-12 -11l-98 23l-37 -27
q-7 17 -11 19l19 41l-27 24l19 27q51 10 69 65h19l33 19l26 -19v-4q38 -11 47 -37l15 5h84l4 4h18v-4q99 54 125 139h6q-8 23 -29 33q9 8 9 24q0 3 -5 26l-4 23l-40 56q0 18 -18 27t-23 20.5t-11 64.5l-39 19l-12 28l-22 23q-11 10 -29 47q-10 3 -33.5 18.5t-79.5 45.5
q-37 25 -73 65l-15 -18q-21 24 -37 24q-18 0 -26 -25t-29 -77l-18 -6q-4 -17 -29 -45v-11l-4 11q-10 -44 -10 -76q-40 -40 -52 -92h-4q0 -19 -18 -19l8 -28l-27 -74q-18 -19 -18 -33q0 -10 12 -22v-7q17 -13 25 -26q0 -30 -13 -45.5t-20 -53.5q19 0 19 -18h-5l-6 -33h-12
l8 -8h-14q6 -6 14 -10h-14l18 -23q-26 -10 -26 -37l14 -71l-25 -19l11 -12q-21 -33 -47 -33q-9 -15 -23 -18v-6l-51 -27l-4 18l-25 15v18q0 34 -8 70l18 18l-14 27v6h4v8l4 15l6 -4l9 73h-4v15l4 -5v13l10 6v8l4 -4v18h4v11q0 24 25 37l-15 4q10 7 26 67l15 58v10l15 51
l18 37l6 22l23 48q5 34 65 139h4v10l9 14q21 20 32 48.5t37 58.5q0 36 -26 59q2 27 26 47q33 6 47 41q15 3 26 9.5t14 14t11 19.5l11 -4l4 13h4l-4 14l4 -4q0 15 10 22q2 24 27 37q5 26 5.5 30.5t22.5 26.5q23 29 23 37v4l25 37h18v33q33 0 33 23v6l-6 8h6v6q40 23 48.5 43
t24.5 35h5l32 65v-10q19 34 56 43l6 23l59 51zM733 1341v-18l-26 -12l-11 -25q-35 -20 -44 -39q-41 -91 -81 -104l4 -10h-4q-18 0 -18 -19q-37 -33 -37 -78l4 4q-18 -21 -18 -32q0 -32 22 -52q0 15 11 15h8q31 10 58 36t50.5 59t51 52t37.5 47t18 62h-6v4q15 30 16.5 48.5
t7.5 35.5q-5 26 -28 26h-15z" />
    <glyph glyph-name="registered" unicode="&#xae;" horiz-adv-x="625" 
d="M109 1225q0 98 75.5 174t177.5 76q104 0 180 -76.5t76 -179.5q0 -106 -76 -180t-184 -74q-98 0 -173.5 77t-75.5 183zM580 1219q0 90 -63.5 153.5t-154.5 63.5q-88 0 -151.5 -64.5t-63.5 -152.5t63.5 -151.5t151.5 -63.5q90 0 154 62.5t64 152.5zM262 1356h98
q117 0 117 -80q0 -54 -59 -72l61 -121h-65l-54 111h-38v-111h-60v273zM322 1313v-78h38q56 0 56 39t-58 39h-36z" />
    <glyph glyph-name="copyright" unicode="&#xa9;" horiz-adv-x="625" 
d="M109 1225q0 98 75.5 174t177.5 76q104 0 180 -76.5t76 -179.5q0 -106 -76 -180t-184 -74q-98 0 -173.5 77t-75.5 183zM580 1219q0 90 -63.5 153.5t-154.5 63.5q-88 0 -151.5 -64.5t-63.5 -152.5t63.5 -151.5t151.5 -63.5q90 0 154 62.5t64 152.5zM483 1274h-61
q-7 51 -60 51q-61 0 -61 -102q0 -103 66 -103q48 0 55 56h61q0 -49 -32.5 -80t-83.5 -31q-62 0 -98 41.5t-36 116.5q0 68 37.5 108.5t98.5 40.5q46 0 77.5 -26t36.5 -72z" />
    <glyph glyph-name="trademark" unicode="&#x2122;" horiz-adv-x="762" 
d="M141 1462h236v-55h-84v-217h-68v217h-84v55zM434 1462h92l64 -166l63 166h92v-272h-63v205l-76 -205h-31l-79 205v-205h-62v272z" />
    <glyph glyph-name="acute" unicode="&#xb4;" 
d="M842 1507l-33 -77l-41 -37l-33 -19l-14 -20l-62 -35l-81 -39l2 -10l-136 -96v-17q-11 -3 -41 -43l-36 6l-25 45l6 39l23 -6l8 23h18l7 21q4 9 24 30l-2 10q23 12 46.5 26.5t37.5 53.5l35 10l24 29l2 33l25 10l4 14h14l-6 15l15 30l14 6v15l4 10l43 14l6 41l35 -8l25 33
q43 -17 55 -39z" />
    <glyph glyph-name="dieresis" unicode="&#xa8;" 
d="M788 1468l84 -41l19 -43l43 -63l-49 -37l-8 -20l-46 -27l-6 4v-14q-26 -36 -88 -45l-14 -25l-41 66l-66 55l5 51q23 33 41 37l20 29l4 -4q5 9 33 22l4 -4q3 27 22 37zM225 1427q3 15 19 15q24 0 47 -51h33l41 -29l38 -70l-75 -59l-103 -103l-14 -10q-20 8 -37 51l-18 5
l-47 112l-19 8l12 28q7 15 17 24l13 4q5 2 38 32q13 0 19 9.5t32 38.5v-5h4z" />
    <glyph glyph-name="notequal" unicode="&#x2260;" horiz-adv-x="1124" 
d="M1106 279h-621l-184 -330l-100 57l151 273h-321v112h385l157 285h-542v112h606l186 336l101 -57l-156 -279h338v-112h-399l-160 -285h559v-112z" />
    <glyph glyph-name="AE" unicode="&#xc6;" horiz-adv-x="2226" 
d="M1360 1413l135 14l41 -10l4 -4l14 10q13 0 26 -3l11 -3h25l-6 -4l32 -8q3 0 19 4v-4h14l56 -10l-5 -4h11l4 -19h18l19 8l-4 -8q41 37 51 37h14l4 -4h4q40 -14 56 -14q5 0 32 4l-4 -4l15 4h4l-4 -11h41l22 21l33 -10q0 -25 -19 -37v-4l-14 4q-3 -41 -14 -51l-13 -2l-10 2
v-11l-8 -26l-4 4q-10 -27 -33 -41v12q-20 0 -24 -12h-9l-10 -21l-4 7v-7l-18 -8l4 4h-15l7 -4h-19l4 -4h-37l-10 -10l-4 10l-43 4q-8 4 -10 4q-4 0 -8 -8q-4 12 -11 12q-6 0 -8 -4l-8 15h-25v-4q-21 0 -37 -11h-14q-5 0 -12 11q-7 -11 -19 -11q-15 0 -32 15v-11l-11 7
l-10 -7h-8q-3 7 -10 7q-5 0 -8 -11l-5 4l-6 -4q-4 10 -8 17q2 0 6 -6l-6 4h-18q-23 -69 -51 -140h-9q-7 -18 -18 -28h-6l-13 -56l-6 5v-19l-4 10l-14 -75v10q-14 -22 -14 -37l2 -10q-19 -3 -19 -15q0 -9 21 -18l32 10h2q4 0 16 -15.5t34 -25.5v-8l14 2h18l9 -4q0 1 38 22
q3 -12 9 -12q2 0 6 2t35 5l61 5h51l15 -22l18 22h4q22 21 45 21q6 0 25 -6l18 10l6 -6l9 10q28 6 28 25v4h8q15 0 15 12h2q6 0 12 19q59 19 59 61h7q9 -21 29 -43.5t40 -22.5h6q17 0 17 -14v-6q0 -28 -60 -53l-10 -19l-4 4l-4 -4q-27 -4 -39 -10l-8 -22h-15v-5
q-10 -10 -18 -10h-14v-22l-4 -11q-9 15 -19 15q-3 0 -10 -4l-37 18q-17 0 -29 -14l-20 4h-53l-70 -8l-30 -9q-7 -2 -13 -8l-16 -16l-43 14l-15 -6q-27 12 -34 12l-17 2q-17 0 -55 -22l-4 4l-4 -4v-10l-21 6l-12 -10l-6 4h-15q-84 0 -84 -37q0 -16 9 -33l-29 -106l-14 -33
l-4 -70l-52 -176l-4 -61h-6l-18 -45v-19l14 -47l18 -10h19l4 -13l37 -6h8q32 0 53 -18q43 0 70 -33l4 6l14 -20v6l56 -19l51 9h84l84 18h37q57 0 116 33q4 -4 6 -4q3 0 7 4l43 24l34 9q16 5 30.5 21t21 27.5t6.5 20.5q0 10 -8 37l18 19h27l75 43l56 -25l22 6v-33l-33 -10
l-8 -14l19 -37q-12 -33 -41 -64h-6q-12 -27 -33 -32q-6 -23 -27 -29l-6 4l-8 -4l-4 10l-47 4l-33 -10h-37q-23 -22 -41 -45l-49 8q-13 0 -43 -11l-31 -11l-151 -19l-29 4l-18 -14l-15 14l-55 -18l-33 4q0 -18 -16 -18h-6v4h-7q-20 0 -30.5 -11.5t-28.5 -25.5v10h-4l-14 -10
v4l-11 -8l-4 4l-4 -4q-25 0 -76 4l-4 -8l-4 12l-18 -4v4l-19 -8q-12 2 -24 14l-4 -6l-51 6l-11 14q-10 -10 -22 -10l-15 19q-7 -7 -12 -23l-6 4v-10q-12 0 -16 -18.5t-21 -18.5q-13 0 -41 14v70l-47 -4l-98 41q-33 14 -33 43q0 7 6 22q21 15 45 62l25 8q56 70 74 70
q15 0 55 -19v-4h24l19 -10l14 25q17 24 22 59l5 29l-4 18l22 37l10 74q27 55 37 98h-4v29q-6 12 -10 26l-8 6h4q20 23 22 43.5t15 48.5q12 17 18 33h4l-18 41l24 25v41h-6v10l-18 4q-12 9 -27 14l-14 -6l-4 11h-33l-14 -11l-4 11l-7 -5l-55 33q-10 -10 -18 -14l-51 8v6
l-23 8v-8q-4 2 -14 2q-19 0 -39.5 -10.5t-22.5 -32.5q-25 -19 -45 -24q-26 -18 -39 -56l-22 -6q-43 -8 -47 -10t-4 -8l22 -15q-9 -23 -33 -26l-4 -15h-4l-2 -18l-8 4v-18l-31 -29l-6 6l-8 -28h-15v4l-10 -4q-9 -4 -12 -15l-6 -4l-4 -22l-4 18l-11 -25v-18h-8l-18 6l4 -14
h-10q-8 -27 -37 -43v-4h-21l-18 -37l-33 -23l-33 -65l-55 -56l-4 -38q-14 0 -14 8v2q-6 0 -26 -29.5t-44 -50.5h-27l-22 -33v6l-10 4q-25 -18 -25 -43l2 -12v-10l-18 -4q-3 -45 -23 -45q-15 0 -57 16v-4h-4q-23 15 -23 86v53l-10 29l10 27l-4 65q-25 47 -32 72.5t-7 40.5
q0 22 21 26l26 29l19 37v10h4q18 51 37 51l20 -6h8q8 -22 33 -22v-4h18l-4 -11h23q33 -36 33 -65l-9 -74l2 -25q0 -18 -2 -30q21 15 38.5 32t32.5 35t23.5 30.5t39.5 37.5l14 31l51 47l55 33l7 14h4q0 15 14 26l14 11l70 88l59 28l29 37v23q-11 6 -47 10l-8 -4h-6
q-6 -14 -19 -14q-3 0 -18 4v-4l-15 8v-4q-32 17 -32 49v6q16 25 47 29v4h-9l64 69q23 27 46 39.5t30 12.5l22 -4l15 4q22 -15 43 -15h8q16 -4 22 -4q13 0 27.5 4.5t17.5 7.5l25 25q0 19 18 25l-4 8h4l7 10l36 8q0 43 45 56l7 10q52 29 73 84q78 51 88 78q14 0 29 6
q18 49 59 63h-8l33 29v10l4 -6q15 43 64 43h10l18 4l19 -8zM1174 1227l-15 -4v-11l-4 7v-15h-14l4 -4l-4 -10l-11 4l7 -41l-25 23l-22 -56l-23 -4q-4 -8 -10 -28t-27 -37q-6 -14 -10 -37q-15 -15 -23 -33l9 -41l-19 -39q-14 -17 -14 -37q18 -26 47 -26q30 0 51 12l8 -8l15 4
q49 0 68 -6.5t26 -34.5q18 12 18 29q0 4 -4 16q25 24 25 57q0 15 -2 23l32 102q27 60 41 107l-14 4v24l-8 27l-43 25v-7l-12 7l-7 -7q-4 6 -8 15q-6 -9 -28 -15l4 7h-8l4 14z" />
    <glyph glyph-name="Oslash" unicode="&#xd8;" horiz-adv-x="1016" 
d="M217 4q-103 -123 -102 -176q-24 -18 -35 -35q-30 3 -51 14l12 33v4l31 31q2 13 12 29t12 22q15 9 25 68h4q19 41 37 53l-12 25l-19 -2l-4 18l-25 10l7 13l18 10l-10 10l6 12l-14 29l-11 16q-4 7 -14 58h-12l4 28l-4 29l8 19l-8 4l12 73l-12 47l12 9l-4 14l4 47l-8 29
l18 30v48l23 94h-4l10 22l-6 9l10 6l-4 18l37 96l4 -4v19l4 28l10 4v19l4 10l19 4l-8 4l12 11l-4 36l14 11l14 37h4l7 22q4 10 22 29v18l19 4v10l55 60l8 22l25 11l4 22q32 28 37 29q11 27 47 41l73 28h52l36 11l25 -6l22 -25q11 -12 29 -49l3 -26q1 -15 7 -24l17 -26
q15 36 38.5 74t26.5 55h5q11 51 40 51h5l16 19h14v-4l17 -27q-49 -48 -71 -99t-26 -57l-32 -59l-4 -18l18 -27l-4 -23l14 -28l-10 -37l29 -27l12 -47l10 -76l8 -98l-20 -127l-4 -70l-49 -104l10 -14q-38 -58 -37 -64l-18 -10l-15 -47l-10 -4l-18 -33q-26 -21 -56 -59l4 -5
l-28 -38l-19 6l11 -15l-72 -90l-105 -73h-18l-25 -27q-20 -7 -45 -25l-24 15l-8 -4zM205 139l22 23l4 31l9 6l28 73q2 3 9 24.5t28 45.5q-2 4 -2 10q0 8 9.5 19.5t21.5 13.5l8 59l21 33q8 12 15 41t19.5 55.5t13.5 27.5t1 3t-3 6t-3 6q0 5 22 37t23 35l14 72l4 -4l13 20
q5 8 16 53q15 13 22 39l15 9l4 41l18 10q3 14 12 26l-14 17l4 14q0 25 -10 70l-14 14v37l-9 18l-10 6l-27 56l-51 -37l-32 -51l-26 -25q-11 -12 -36 -55l-18 -47l-39 -51l-6 -37l-13 -15v-41l-24 -22l-8 -33l12 -18l-25 -25v-8l-37 -88l7 -33l-21 -47l10 -8l-10 -33l10 -14
l-14 -43l-14 -74l18 -8l-31 -19l13 -28h10l-4 -37v-51q20 -15 26 -29l-4 -14zM256 88l43 10l14 -24l37 18l4 10l23 4l10 33l14 -18l11 18h32q30 35 37 56l19 6l8 26l35 58q19 43 20 59l29 16l-6 21v22q13 24 35 56l2 88l-9 43l15 10l-15 18v29q8 37 11 41l-19 23l4 14l19 10
l6 13h-10q-19 42 -19 47l4 24l-22 49l-45 -65l-13 -66l-24 -26q-5 -23 -19.5 -42.5t-15 -38.5t-2.5 -24l-27 -82l-24 -43l-4 -32l-29 -56l-55 -135l-29 -51l-18 -55z" />
    <glyph glyph-name="infinity" unicode="&#x221e;" horiz-adv-x="1460" 
d="M653 668q71 169 159 222.5t212 53.5q161 0 272 -116.5t111 -301.5q0 -186 -111.5 -303t-238.5 -117q-95 0 -170.5 63t-165.5 224q-117 -233 -324 -233q-149 0 -246.5 104.5t-97.5 263.5q0 157 89 262t218 105q80 0 149 -42t144 -185zM750 465q64 -138 134.5 -201
t176.5 -63q126 0 207.5 91t81.5 234q0 140 -84 240t-199 100q-55 0 -97.5 -21.5t-74.5 -62t-64 -116.5zM614 557l11 33q-96 215 -267 215q-110 0 -179.5 -76.5t-69.5 -198.5q0 -123 66.5 -207.5t162.5 -84.5q82 0 149.5 65t126.5 254z" />
    <glyph glyph-name="plusminus" unicode="&#xb1;" horiz-adv-x="1706" 
d="M795 1180h118v-344h539v-117h-539v-344h-118v344h-541v117h541v344zM254 158h1198v-117h-1198v117z" />
    <glyph glyph-name="lessequal" unicode="&#x2264;" horiz-adv-x="1124" 
d="M1077 240l-1018 471v127l1018 471v-127l-887 -408l887 -407v-127zM1077 0h-1018v112h1018v-112z" />
    <glyph glyph-name="greaterequal" unicode="&#x2265;" horiz-adv-x="1124" 
d="M1077 711l-1018 -471v127l887 407l-887 408v127l1018 -471v-127zM1077 0h-1018v112h1018v-112z" />
    <glyph glyph-name="yen" unicode="&#xa5;" horiz-adv-x="1141" 
d="M1290 1354v-6l-18 6l-12 -43l-136 -84l-32 -51l-25 -9l-12 -14l-11 4l5 -8q-55 -5 -64 -47l4 -4l-17 -13q-7 -6 -26 -45q-39 -8 -46.5 -13t-17 -22t-14.5 -42q-24 -43 -33.5 -56.5t-41.5 -42.5l-5 -18l5 -8l-5 -11h-22l-10 -14q8 -11 24 -14l-28 -4l-19 -47
q-33 -39 -33 -48q0 -13 19 -41l10 11h-6v4l25 -8l32 12l56 -6q21 0 48 6t36 6q23 0 32 -70q-30 0 -43 -18l-4 8q-16 -8 -24 -8q-5 0 -17 4l-20 -10l-37 18h-41l-10 15q-50 2 -56 22l-41 -27q-16 -21 -36 -32q-5 -29 -21 -56l33 -14l6 -10l64 6l47 -18l55 8q18 0 32.5 -14
t14.5 -27q0 -26 -23 -29l-69 -8l-19 18h-28q-12 15 -33 23q-12 -4 -23 -14l-32 14l-11 14h-59l-18 -65l-15 -29v-41q-34 -48 -55 -88q4 -2 4 -10q0 -9 -4 -15l4 -4l-47 -125q4 -24 10 -36l-18 -7l-15 -18h-10l15 -8l-9 -10l9 -9q-19 -9 -19 -26q0 -5 4 -17q-16 -22 -41 -41
l4 -4q-5 -14 -15 -28.5t-34.5 -24t-34.5 -16.5t-22 -7t-20.5 8.5t-8.5 16.5q0 11 29 27l-4 14l8 18l-8 19l18 18q3 58 41 99l-14 -4q39 26 39 71v13h8l-8 12l26 47l-8 47q26 14 33.5 46t21.5 71h-14l14 12l5 29l14 10v8l4 4q-4 8 -14 19q-12 -4 -19 -4q-6 0 -22 4l-29 -13
h-33l-30 -10l-66 19q-15 36 -47 36q-7 0 -23 -4q35 23 60 23l10 6l74 -6h143q22 0 30.5 12t8.5 45q25 28 31 37q-4 8 -23 23l-4 -5v9l-4 -9l-25 9l-18 -9l-27 23l-24 -18l-23 10l-18 -19l-66 9l-55 -9q-15 41 -25 56l62 26q17 -1 41 -22l39 18l37 -14h41l36 6q11 21 11 35v6
l-4 51q12 -4 16 -4q14 0 14 19h6l-18 51l-14 18l-10 26q-5 11 -33 48l6 33l-10 18v25q-6 11 -18.5 27.5t-15.5 27.5l-36 111l4 14l-12 4l4 57l-55 37q-11 8 -15 23q4 35 112 101.5t163 66.5q37 0 41 -52l-29 -42q-2 -4 -2 -23l2 -53l-4 -39v-10q0 -25 -15 -41l15 -7l-15 -63
l15 -47l-15 -23l7 -10l-11 -14l11 -8l-19 -15l31 -28v-52q17 -11 39 -50t37 -56q4 26 16.5 38.5t20.5 12.5l22 -4l29 22l4 11l33 18l36 45l37 33l84 94l121 103v4l197 153l92 66l4 8l102 61h15l22 15l47 -25l-36 -22l-5 -33l-39 -34q-8 -7 -30 -13l-19 -41q-38 -22 -51 -33
l-10 14z" />
    <glyph glyph-name="mu1" unicode="&#xb5;" horiz-adv-x="1120" 
d="M164 193q-26 -132 -49 -315t-42 -239.5t-73 -56.5q-80 0 -80 88q0 41 63.5 269.5t106.5 431.5l109 514h147l-104 -492q-13 -61 -13 -112q0 -83 42.5 -129t117.5 -46q200 0 258 269l111 510h149l-114 -531q-21 -99 -21 -137q0 -48 26 -78t66 -30q105 0 159 164
q19 59 38 59q26 0 26 -37q0 -82 -67 -197.5t-203 -115.5q-68 0 -108.5 51t-40.5 139v23q-92 -218 -281 -218q-194 0 -223 216z" />
    <glyph glyph-name="partialdiff" unicode="&#x2202;" horiz-adv-x="1012" 
d="M295 1120h-45q131 303 379 303q161 0 263.5 -127t102.5 -376q0 -358 -164.5 -654.5t-427.5 -296.5q-155 0 -246 91t-91 245q0 239 166.5 420.5t383.5 181.5q222 0 312 -190h4q10 144 10 186q0 175 -92.5 276t-253.5 101q-194 0 -301 -160zM911 629q-81 225 -284 225
q-178 0 -286 -190.5t-108 -399.5q0 -108 54 -172.5t143 -64.5q136 0 279.5 162.5t201.5 439.5z" />
    <glyph glyph-name="summation" unicode="&#x2211;" horiz-adv-x="1460" 
d="M1423 238q-32 -125 -54 -240t-34 -219q-63 11 -102.5 16.5t-54.5 5.5h-1031q-20 0 -59 -3t-59 -3l714 815l-710 930q70 -7 123 -10.5t90 -3.5h1018l12 -326h-41q-31 102 -52.5 141t-81.5 66q-30 13 -74.5 20t-104.5 7h-539l559 -734l-602 -694h760q127 0 177.5 52
t98.5 180h47z" />
    <glyph glyph-name="product" unicode="&#x220f;" horiz-adv-x="1686" 
d="M1645 -207h-629v47q120 0 159.5 41t39.5 125v1419h-734v-1419q0 -84 39.5 -125t159.5 -41v-47h-629v47q122 0 160.5 41t38.5 125v1282q0 101 -48.5 152t-146.5 51v47h1586v-47q-98 0 -146.5 -51t-48.5 -152v-1282q0 -84 38.5 -125t160.5 -41v-47z" />
    <glyph glyph-name="pi" unicode="&#x3c0;" horiz-adv-x="1124" 
d="M1085 309q-5 -155 -75.5 -248.5t-167.5 -93.5q-79 0 -138.5 91.5t-59.5 281.5q0 42 2 80t5 72l35 329h-231q-60 -624 -98.5 -742.5t-130.5 -118.5q-39 0 -74 31t-35 82q0 46 72.5 128.5t80.5 150.5l60 469h-97q-40 0 -78.5 -19.5t-56.5 -45.5l-43 -64h-35
q49 152 120.5 228.5t164.5 76.5h764v-176h-258q-12 -120 -18.5 -240t-6.5 -241q0 -82 38 -133t95 -51q35 0 73.5 28.5t43.5 74.5q3 22 4.5 34.5t1.5 15.5h43z" />
    <glyph glyph-name="integral" unicode="&#x222b;" horiz-adv-x="561" 
d="M602 1760q0 -39 -29.5 -64t-75.5 -25q-37 0 -60 25t-44 25q-18 0 -27.5 -14.5t-9.5 -43.5q0 -34 19.5 -256t19.5 -551q0 -505 -30 -709.5t-79 -282.5q-26 -41 -67.5 -62t-85.5 -21q-49 0 -86 35t-37 85q0 38 25.5 65t64.5 27q34 0 65.5 -33t44.5 -33q25 0 39.5 44.5
t14.5 153.5q0 37 -6 197t-6 562q0 481 17 638.5t41 215.5q29 70 69 104t84 34q57 0 98 -32.5t41 -83.5z" />
    <glyph glyph-name="ordfeminine" unicode="&#xaa;" horiz-adv-x="1040" 
d="M637 1423h27l20 -8l21 4l12 -2l8 -14l-2 -12q-11 -10 -16 -23h-7l2 -8l-22 -8l-2 -113l10 -57l2 -60l8 -71l37 -103q12 -12 15 -18l16 14l12 2q23 28 31 29v6l68 59l2 11q6 1 24 22l23 -4l12 -27l-4 -24l-12 6l-7 -14h-12q-5 -17 -18 -29v-6q-38 -34 -39 -45l-39 -23
q-16 -21 -29 -24l-4 -9h-8l4 -8l-10 -18l-8 -2q-1 -11 -21 -37h-26l-7 -18l-18 -5l-16 7l-15 18l-41 66l-39 86l4 30l-8 29l6 2q-18 33 -18 53l4 21l-18 12q-14 -7 -19 -8l-16 -41l-8 4l-4 -10l-7 4q-2 -10 -18 -37l-6 2l-2 -25q-30 -12 -35 -34l6 -9l-14 -4l-6 -24l-11 -4
l4 -6q-15 -12 -24 -15l-4 -8l-6 6l-9 -20h-6l-10 -35l-12 -4v-19h-19l-16 -39l-8 -6h-8l-2 -12l-39 -14h-39l-19 112l8 17q3 18 17 47l-4 8q11 25 16 31l-6 2l12 28v17l8 16q-4 30 -8 35l4 8l17 -2l12 14q4 5 10 17l-8 12l8 31l4 -2l9 18l-2 17l16 30v9l-2 8
q24 50 31.5 60.5t17.5 25.5l2 4q14 12 25 28l22 9q42 45 55 45h15l14 4h19l8 14l18 -2h17v4h8l8 -6l18 8l13 -4l4 6l14 -6zM477 1319l-12 -2l-19 2l-6 -12v-9q-7 -4 -18 -8q-13 -23 -19 -55l-4 -4h-4q-9 -21 -12 -39q-6 -7 -12 -8l-6 -21q-13 -27 -13 -37v-4l-6 4v-10h-4
l2 -6l-12 -39l-13 -24v-35l-6 -4l-2 -11l4 -6l-8 -20l2 -6h-8v-43l8 -21l13 12l32 48l41 51q6 10 19 26l18 19l39 65l41 54l4 12l-8 10l14 27q5 24 13 32l2 46l-17 2h-10l-18 12l-5 -6zM492 692q7 -2 22 -2q37 0 74 6v-8l16 8q0 -6 4 -6l8 2h41q22 -8 52 -8q14 0 43 4l47 4
l16 -4q9 0 21 8h8l-4 4h4q8 8 45 17l8 -17q4 -8 37 -32l-16 -27l-21 -4l-33 -33l-16 4q-13 -8 -21 -24q-14 -11 -16.5 -13t-22.5 -2q-16 0 -24 2v-4h-74l-78 -8l-24 21q-40 -17 -56 -17q-31 0 -69 21l-29 -4l-49 4l-25 -9l-20 9l-8 -9l-29 5l-16 -13l-25 8l-16 -8h-25l-20 8
l-8 -16l-23 -11q-10 -5 -31 -30q-10 24 -37 49l25 33l53 53l-4 4l21 -2v4q32 24 41 33l4 -4q9 6 20 6q12 0 29 -10v4q6 -4 16 -4q13 0 25 12l16 -8v8q22 0 29 -4l8 13l4 -9h8l9 -4v8h16v5h4v-5l20 -4l17 4z" />
    <glyph glyph-name="ordmasculine" unicode="&#xba;" horiz-adv-x="913" 
d="M543 1423h67l21 -10q6 -21 22 -31q13 25 39 25q12 0 21.5 -12.5t9.5 -75.5l-6 -21q-4 -10 -4 -28q-8 -26 -11 -29l-49 -51l6 -37l-12 -20l-6 -21l-39 -43q-20 -48 -28.5 -57t-36.5 -19l-11 -35l-32 -20l-31 -37l-55 -43l-17 -4l-63 -49q-98 23 -87 65l7 58q-31 47 -31 51
q0 12 19 29l-13 28l4 64v16l9 4q-5 9 -5 21v6q0 8 7 20h10l-10 9l20 45l18 22l5 17l18 24q14 34 25 53l28 15l2 8q23 20 60 29l27 5q14 3 40 19l21 -2zM506 1315l-2 -4q-21 0 -29 -8l-16 6l-68 -37q-22 -9 -40.5 -43.5t-18.5 -54.5q0 -16 4 -21h4v-6l6 -43l-14 -25l10 -30
l-4 -17q0 -8 4 -17l4 -9v-15l10 -16l-2 -12q0 -31 17 -33q24 9 37 18q2 15 20 19q7 27 27 37q2 32 32 65l-2 4l19 21l26 86l9 2v28l10 19l-37 28l27 13l-2 33l4 12l-9 -4zM465 688l16 8q0 -6 4 -6l9 2h41q21 -8 51 -8q14 0 43 4l47 4l16 -4l23 8h6l-4 4h8l8 9l33 8l9 -17
q3 -8 36 -32l-16 -27l-21 -4l-33 -33l-16 4q-12 -8 -20 -24q-15 -11 -17.5 -13t-21.5 -2q-17 0 -25 2v-4h-74l-78 -8l-24 21l-19 -9l-8 13l-28 -4l-50 4l-24 -9l-21 9l-8 -9l-28 5l-17 -13l-24 8l-17 -8h-24l-17 13q-5 -16 -33 -35l-10 16l-24 -18l2 32l-13 25q5 1 33 53
l37 2v4q32 24 41 33l6 -4q7 6 19 6q11 0 28 -10v4q6 -4 19 -4t22 12l17 -8v8q16 0 28 -4l8 13l5 -9h8l8 -4v8l16 5h4v-5z" />
    <glyph glyph-name="Ohm" unicode="&#x2126;" horiz-adv-x="1573" 
d="M1506 0h-604l33 311q161 59 226 200t65 313q0 227 -107 373t-331 146t-331 -146t-107 -373q0 -172 65 -313t226 -200l33 -311h-604v332h30q16 -66 40 -95.5t96 -29.5h323l-4 57q-238 65 -341 221t-103 332q0 259 192 425.5t485 166.5t485 -166.5t192 -425.5
q0 -176 -103 -332t-341 -221l-4 -57h323q72 0 96 29.5t40 95.5h30v-332z" />
    <glyph glyph-name="ae" unicode="&#xe6;" horiz-adv-x="1501" 
d="M1227 999l26 -14l4 -23q3 -14 8 -21l17 -21q-24 -42 -41 -52h8v-18q0 -8 -13 -23t-13 -24q0 -16 37 -31v-24l-7 -15q-4 4 -6 4q-4 0 -4 -4t2 -8q-16 -6 -16 -14q0 -7 7 -22l15 -28q8 -14 12.5 -26t28.5 -41q2 -12 2 -29q0 -22 -16 -67l-10 4q-9 -41 -45 -51
q-3 -36 -11 -37q-5 -15 -12 -15q-8 0 -20 4q0 -18 -15 -26h-8l-6 -19h-23l-36 -10l-19 23v-19q-26 -26 -51 -26q-15 0 -23 4l-14 -15q-13 11 -18 11q-6 -9 -6 -15l-31 8l-10 -12q-11 3 -23 4t-25 8q-17 -23 -51 -26l-12 -10l-10 6q-3 -15 -15 -21l4 -4h-18l-8 -37l-19 -4
v-10q-10 -17 -10 -27q0 -22 25 -65h-6q30 -30 32 -62q7 -4 29 -8l18 -28h33l4 -19l23 6l29 -12l28 4h13l6 -18q17 1 43 22l41 -4l4 8l32 6l11 13l22 -4q44 20 84 24l23 33q13 7 24 18t23 21h6q28 0 45 35l23 14q14 8 25 10l32 4l33 -20q14 -5 14 -23q0 -19 -33 -37l-6 5v-9
h-18q-9 -14 -27 -14v-4h-4q-5 -21 -33 -27q-8 4 -12 4q-10 0 -27.5 -20t-17.5 -39l-23 4q-17 -20 -43 -20h-8v-7q-18 0 -24 -18l-27 -4q4 -4 4 -6q-6 0 -10 2q-6 -14 -21 -14q-5 0 -20 4q0 -4 -4 -4h-6q-7 -13 -23 -23q-13 3 -27 14q-12 -20 -28 -20l-33 6l-47 -10
q-2 0 -24.5 5.5t-78.5 10.5l-14 19l-22 -13v8h-52l-28 19l-15 -4l-32 14l-45 -10l-43 22q-17 -41 -45 -41h-11l2 -18l-6 -14h-6l-12 -8l4 -11l-10 4v-2q0 -5 -11 -9t-20 -26l-10 5l-19 -31q-42 37 -47 55q14 55 14 62l-4 -15q-15 22 -29.5 52t-27.5 30q-10 0 -27 -8v-4
l-18 4v4q-15 -6 -24.5 -21.5t-22.5 -25.5h-19l-14 -8l-8 4h-4q-3 0 -12.5 -3t-16.5 -3q-14 0 -33 6q-10 -8 -20 -8q-13 0 -31 12v6l-12 -12l-10 2l-7 10v-6q-9 -3 -12 -12h-6q-12 -6 -27 -6q-45 0 -94 94q15 22 16.5 39.5t12.5 38.5l4 -5l4 23l6 -4q9 24 41 37l19 24
q17 7 79 70q64 0 74 55q48 15 74 47q29 6 57 37q31 6 51 33q55 12 70 41l60 23l43 24l-7 4q55 0 62 47h4q14 17 14 37q0 7 -4 23q4 1 4 10l-2 16q0 11 2 17h-4q-2 31 -9 45.5t-8.5 44t-11.5 39.5q-11 0 -22 -8l-10 8l-19 -23l-4 6v-10q-30 0 -33 -18l-32 -11v-10l-37 -26
l-4 -29l-15 -8h-24v-6q-25 -16 -31 -46l-20 -10l-13 10l-32 -28q-15 -3 -48 -51q-18 -4 -18 -23l-18 -10l-5 6v-10h-6v-15q-41 0 -59 56l49 63l43 49l4 -4l10 19q19 9 24 21t13 20q20 4 36 19t34 28v4l18 20l109 74h-6l24 12h11q22 0 34 25l99 59v-4q21 3 37 19l47 10
q37 0 37 -51l14 -21q5 -35 14 -69l-10 -27l-4 4v-14h-4q0 -16 -21 -27q8 -8 8 -14q0 -4 -8 -4l-12 -15l4 -47l-14 -14v-23h-4l-11 -10l7 -125l-7 -65l-4 10v-33l52 41l4 -4q24 34 24 66l4 4l4 -4v32q16 0 19 23l6 -4l12 41l-4 -4q16 21 23 22l-4 10q6 3 6 7q0 6 -2 8l10 4
l14 22l4 -4q10 25 15 33l-4 14q24 0 30 23q13 6 24 14t18 19l16 22l69 70q33 14 70 51v6l33 27l4 -8q23 32 67 32h17v4zM1044 762q-18 -10 -18 -29l-22 -18v-4q-55 -65 -60 -66v-4q0 -7 4 -14h-10l-29 -52h-8v-8l-4 4q-18 -21 -18 -51v-8q-7 -9 -7 -20q0 -9 15 -9q4 0 33 4
l22 19l25 -8q32 0 73 41l-4 4q38 34 41 108l15 8l-5 11l5 14q10 17 10 29q0 11 -6 20q6 15 6 25q0 22 -29 22t-29 -18zM539 377v-8h-11v8l-8 -6q-16 0 -28 -13l-15 4l6 -10l-10 6v-14h-4v4q-18 -31 -18 -59q-34 18 -48 18h-18q-4 4 -8 4l-29 -10v6q-14 -33 -33 -33
q-10 0 -18 5q-24 -30 -66 -33l-4 -4l4 -11h-10v-8l-4 4l-22 -14l4 -4l-15 -4l-12 4q-12 -6 -25 -19l-4 5v-9q-22 -2 -22 -24v-8h-15l-6 4q0 -16 -8 -19v-10l-10 6v-51l10 -14h41l88 18l51 4l21 19q16 -19 51 -33l23 24l26 -14l21 4l8 10l47 4l23 37l4 -4v8h6l-6 21v12
q0 32 24 39l19 27l-11 37l11 28h4l18 41q0 18 -22 25z" />
    <glyph glyph-name="oslash" unicode="&#xf8;" horiz-adv-x="864" 
d="M119 -68q-43 31 -43 64q0 8 6 14l10 86l-43 70q-6 9 -6 16q0 12 12 27v4l17 16l-19 50l6 104v27l15 8q-8 16 -8 35l-3 8q0 10 13 35l24 47l11 43l26 31q4 6 14.5 43t61.5 75l8 43l47 25l4 14q50 40 99 49l67 13l45 26l33 -2q18 0 70 19q1 14 9 29l50 91q10 8 24 30.5
t27 27.5q9 50 52 92q30 -21 30 -51q0 -16 -7 -35t-10 -21l-32 -32l-10 -47l-29 -23l-37 -70q32 -9 41 -34t15 -25q10 5 10 20q31 23 57 23q16 0 27 -11t12 -22l8 -114l-6 -23q-7 -23 -10 -49t-9.5 -41t-9.5 -19l-81 -86l10 -59l-21 -35l-10 -32l-55 -97l-31 -78
q-8 -13 -19.5 -25.5t-26.5 -24.5l-32 -23l-47 -43l-39 -47l-59 -37l-49 -25l-31 -24l-27 -7l-104 -84l-14 -65q-3 -11 -31.5 -46t-28.5 -71q-18 -18 -33 -18h-4l-14 10q-6 4 -37 8l12 33v4l15 18q14 47 28.5 75t21 42.5t15.5 14.5h4zM305 160q-14 -35 -14 -43q0 -6 2 -11h12
q28 0 43.5 22t32.5 22l10 32q12 4 15 4q7 0 10 -6q29 26 53 71t33 58l53 94l16 72l2 43l13 4l1 24v19q1 6 17 39l-24 51l8 21l-6 57l8 23l-12 -8l-11 2l-24 -74l-37 -37l-14 -55q-4 -21 -19 -33q-25 -31 -29 -43l-26 -82l-25 -43l-4 -33l-29 -55zM240 156q8 20 18 52t14 36
l-4 14q0 15 19 23l18 69l29 56l12 47l29 61l10 8l-6 15q3 18 24 36l16 26q7 11 21 63l4 -5l13 20q6 9 16 54l16 14l-16 7q-110 -23 -179 -99.5t-69 -142.5q0 -21 8 -37h5l4 -49v-2q0 -11 -11.5 -22.5t-11.5 -14.5q0 -6 10 -6l-10 -76l8 -27q-10 -23 -10 -43q0 -15 4 -26z
" />
    </font>
</defs>
</svg>
